SplineFontDB: 3.0
FontName: Rokkitt-Bold
FullName: Rokkitt Bold
FamilyName: Rokkitt
Weight: Bold
Copyright: Copyright (c) 2011 by vernon adams. All rights reserved. with\nReserved Font Names "Tienne" and "Tienne Regular". This\nFont Software is licensed under the SIL Open Font License, Version\n1.1. This license is available with a FAQ at:\nhttp://scripts.sil.org/OFL
Version: 1.000
ItalicAngle: 0
UnderlinePosition: -103
UnderlineWidth: 102
Ascent: 1638
Descent: 410
sfntRevision: 0x00010041
LayerCount: 2
Layer: 0 1 "Back"  1
Layer: 1 1 "Fore"  0
NeedsXUIDChange: 1
XUID: [1021 14 500265001 13657719]
FSType: 0
OS2Version: 3
OS2_WeightWidthSlopeOnly: 0
OS2_UseTypoMetrics: 1
CreationTime: 1310947380
ModificationTime: 1311363818
PfmFamily: 17
TTFWeight: 700
TTFWidth: 5
LineGap: 0
VLineGap: 0
Panose: 2 0 8 3 5 0 0 2 0 3
OS2TypoAscent: 35
OS2TypoAOffset: 1
OS2TypoDescent: -246
OS2TypoDOffset: 1
OS2TypoLinegap: 0
OS2WinAscent: 0
OS2WinAOffset: 1
OS2WinDescent: -1
OS2WinDOffset: 1
HheadAscent: 0
HheadAOffset: 1
HheadDescent: 1
HheadDOffset: 1
OS2SubXSize: 5646
OS2SubYSize: 5214
OS2SubXOff: 0
OS2SubYOff: 729
OS2SupXSize: 5646
OS2SupYSize: 5214
OS2SupXOff: 0
OS2SupYOff: 3170
OS2StrikeYSize: 102
OS2StrikeYPos: 512
OS2Vendor: 'newt'
OS2CodePages: 00000001.00000000
OS2UnicodeRanges: 800000ef.4000204b.00000000.00000000
Lookup: 258 0 0 "'kern' Horizontal Kerning lookup 0"  {"'kern' Horizontal Kerning lookup 0 kerning class 0"  "'kern' Horizontal Kerning lookup 0 per glyph data 1"  } ['kern' ('DFLT' <'dflt' > 'grek' <'dflt' > 'latn' <'dflt' > ) ]
MarkAttachClasses: 1
DEI: 91125
KernClass2: 5 10 "'kern' Horizontal Kerning lookup 0 kerning class 0" 
 1 F
 1 V
 1 W
 1 Y
 4 a ae
 30 c e o q ccedilla egrave ograve
 8 d oslash
 6 agrave
 26 aacute aring eacute oacute
 50 acircumflex ecircumflex ocircumflex otilde uni0203
 42 atilde edieresis odieresis uni0205 uni020D
 17 adieresis uni0201
 15 uni0207 uni020F

StartChar: exclam
Encoding: 33 33 23
Width: 541
GlyphClass: 2
Flags: W
LayerCount: 2
Fore
SplineSet
373 1222 m 1,0,-1
 373 906 l 1,1,-1
 328 409 l 1,2,-1
 219 409 l 1,3,-1
 170 906 l 1,4,-1
 170 1222 l 1,5,-1
 373 1222 l 1,0,-1
149 242 m 1,6,-1
 393 242 l 1,7,-1
 373 0 l 1,8,-1
 149 0 l 1,9,-1
 149 242 l 1,6,-1
EndSplineSet
Validated: 1
EndChar

StartChar: quotedbl
Encoding: 34 34 24
Width: 819
GlyphClass: 2
Flags: W
LayerCount: 2
Fore
SplineSet
643 757 m 1,0,-1
 522 757 l 1,1,-1
 472 1222 l 1,2,-1
 688 1222 l 1,3,-1
 643 757 l 1,0,-1
315 757 m 1,4,-1
 193 757 l 1,5,-1
 143 1222 l 1,6,-1
 359 1222 l 1,7,-1
 315 757 l 1,4,-1
EndSplineSet
Validated: 1
EndChar

StartChar: numbersign
Encoding: 35 35 25
Width: 1245
GlyphClass: 2
Flags: W
LayerCount: 2
Fore
SplineSet
201 -11 m 1,0,-1
 257 336 l 1,1,-1
 87 336 l 1,2,-1
 87 470 l 1,3,-1
 285 470 l 1,4,-1
 331 758 l 1,5,-1
 100 758 l 1,6,-1
 100 893 l 1,7,-1
 359 893 l 1,8,-1
 417 1239 l 1,9,-1
 567 1239 l 1,10,-1
 509 893 l 1,11,-1
 831 893 l 1,12,-1
 890 1239 l 1,13,-1
 1041 1239 l 1,14,-1
 981 893 l 1,15,-1
 1160 893 l 1,16,-1
 1160 758 l 1,17,-1
 955 758 l 1,18,-1
 909 470 l 1,19,-1
 1148 470 l 1,20,-1
 1148 336 l 1,21,-1
 882 336 l 1,22,-1
 824 -11 l 1,23,-1
 675 -11 l 1,24,-1
 732 336 l 1,25,-1
 407 336 l 1,26,-1
 349 -11 l 1,27,-1
 201 -11 l 1,0,-1
434 470 m 1,28,-1
 758 470 l 1,29,-1
 804 758 l 1,30,-1
 480 758 l 1,31,-1
 434 470 l 1,28,-1
EndSplineSet
Validated: 1
EndChar

StartChar: dollar
Encoding: 36 36 26
Width: 1005
GlyphClass: 2
Flags: W
LayerCount: 2
Fore
SplineSet
94 0 m 1,0,-1
 94 407 l 1,1,-1
 265 407 l 1,2,-1
 265 297 l 1,3,4
 299 240 299 240 339.5 204.5 c 128,-1,5
 380 169 380 169 433 152 c 1,6,-1
 433 547 l 1,7,8
 367 568 367 568 305 594 c 128,-1,9
 243 620 243 620 194 660 c 128,-1,10
 145 700 145 700 115.5 758.5 c 128,-1,11
 86 817 86 817 86 902 c 0,12,13
 86 980 86 980 112 1040 c 128,-1,14
 138 1100 138 1100 184.5 1141.5 c 128,-1,15
 231 1183 231 1183 294.5 1205.5 c 128,-1,16
 358 1228 358 1228 433 1232 c 1,17,-1
 433 1367 l 1,18,-1
 566 1367 l 1,19,-1
 566 1218 l 1,20,21
 604 1206 604 1206 643.5 1186 c 128,-1,22
 683 1166 683 1166 713 1138 c 1,23,-1
 713 1215 l 1,24,-1
 878 1215 l 1,25,-1
 878 864 l 1,26,-1
 719 864 l 1,27,-1
 719 955 l 1,28,29
 693 997 693 997 654 1024.5 c 128,-1,30
 615 1052 615 1052 566 1063 c 1,31,-1
 566 712 l 1,32,33
 635 692 635 692 702 664.5 c 128,-1,34
 769 637 769 637 822 593.5 c 128,-1,35
 875 550 875 550 908 486.5 c 128,-1,36
 941 423 941 423 941 332 c 0,37,38
 941 251 941 251 911 187 c 128,-1,39
 881 123 881 123 829.5 78 c 128,-1,40
 778 33 778 33 710 8.5 c 128,-1,41
 642 -16 642 -16 566 -18 c 1,42,-1
 566 -134 l 1,43,-1
 433 -134 l 1,44,-1
 433 -3 l 1,45,46
 341 20 341 20 266 89 c 1,47,-1
 266 0 l 1,48,-1
 94 0 l 1,0,-1
731 324 m 0,49,50
 731 360 731 360 719 388 c 128,-1,51
 707 416 707 416 685 437.5 c 128,-1,52
 663 459 663 459 633 475.5 c 128,-1,53
 603 492 603 492 566 506 c 1,54,-1
 566 145 l 1,55,56
 604 151 604 151 634.5 166.5 c 128,-1,57
 665 182 665 182 686.5 205.5 c 128,-1,58
 708 229 708 229 719.5 259 c 128,-1,59
 731 289 731 289 731 324 c 0,49,50
282 924 m 0,60,61
 282 890 282 890 293.5 864 c 128,-1,62
 305 838 305 838 325 817.5 c 128,-1,63
 345 797 345 797 372.5 782 c 128,-1,64
 400 767 400 767 433 754 c 1,65,-1
 433 1066 l 1,66,67
 360 1055 360 1055 321 1016.5 c 128,-1,68
 282 978 282 978 282 924 c 0,60,61
EndSplineSet
Validated: 1
EndChar

StartChar: percent
Encoding: 37 37 27
Width: 1671
GlyphClass: 2
Flags: W
LayerCount: 2
Fore
SplineSet
623 920 m 256,0,1
 623 839 623 839 602 778.5 c 128,-1,2
 581 718 581 718 544 677 c 128,-1,3
 507 636 507 636 456 615.5 c 128,-1,4
 405 595 405 595 345 595 c 256,5,6
 285 595 285 595 234 615.5 c 128,-1,7
 183 636 183 636 146.5 677 c 128,-1,8
 110 718 110 718 89 778.5 c 128,-1,9
 68 839 68 839 68 920 c 256,10,11
 68 1001 68 1001 89 1061.5 c 128,-1,12
 110 1122 110 1122 146.5 1163 c 128,-1,13
 183 1204 183 1204 234 1224.5 c 128,-1,14
 285 1245 285 1245 345 1245 c 256,15,16
 405 1245 405 1245 456 1224.5 c 128,-1,17
 507 1204 507 1204 544 1163 c 128,-1,18
 581 1122 581 1122 602 1061.5 c 128,-1,19
 623 1001 623 1001 623 920 c 256,0,1
455 918 m 0,20,21
 455 1033 455 1033 425 1081.5 c 128,-1,22
 395 1130 395 1130 344 1130 c 0,23,24
 295 1130 295 1130 265 1081 c 128,-1,25
 235 1032 235 1032 235 922 c 0,26,27
 235 808 235 808 265.5 758.5 c 128,-1,28
 296 709 296 709 346 709 c 0,29,30
 397 709 397 709 426 761 c 128,-1,31
 455 813 455 813 455 918 c 0,20,21
1255 1247 m 1,32,-1
 1334 1190 l 1,33,-1
 378 -56 l 1,34,-1
 295 0 l 1,35,-1
 1255 1247 l 1,32,-1
1605 299 m 256,36,37
 1605 218 1605 218 1584 157.5 c 128,-1,38
 1563 97 1563 97 1526 56.5 c 128,-1,39
 1489 16 1489 16 1437.5 -4.5 c 128,-1,40
 1386 -25 1386 -25 1326 -25 c 256,41,42
 1266 -25 1266 -25 1215 -5 c 128,-1,43
 1164 15 1164 15 1127 55.5 c 128,-1,44
 1090 96 1090 96 1069.5 157 c 128,-1,45
 1049 218 1049 218 1049 299 c 0,46,47
 1049 381 1049 381 1069.5 442 c 128,-1,48
 1090 503 1090 503 1127 543.5 c 128,-1,49
 1164 584 1164 584 1215 604.5 c 128,-1,50
 1266 625 1266 625 1326 625 c 256,51,52
 1386 625 1386 625 1437.5 604.5 c 128,-1,53
 1489 584 1489 584 1526 543 c 128,-1,54
 1563 502 1563 502 1584 441 c 128,-1,55
 1605 380 1605 380 1605 299 c 256,36,37
1436 299 m 0,56,57
 1436 412 1436 412 1406 460.5 c 128,-1,58
 1376 509 1376 509 1325 509 c 0,59,60
 1276 509 1276 509 1246 460.5 c 128,-1,61
 1216 412 1216 412 1216 302 c 0,62,63
 1216 188 1216 188 1246 138.5 c 128,-1,64
 1276 89 1276 89 1327 89 c 256,65,66
 1378 89 1378 89 1407 141 c 128,-1,67
 1436 193 1436 193 1436 299 c 0,56,57
EndSplineSet
Validated: 1
EndChar

StartChar: ampersand
Encoding: 38 38 28
Width: 1328
GlyphClass: 2
Flags: W
LayerCount: 2
Fore
SplineSet
1263 149 m 1,0,-1
 1263 0 l 1,1,-1
 957 0 l 1,2,-1
 862 125 l 1,3,4
 777 53 777 53 686 17 c 128,-1,5
 595 -19 595 -19 492 -19 c 0,6,7
 399 -19 399 -19 320.5 9 c 128,-1,8
 242 37 242 37 185 87 c 128,-1,9
 128 137 128 137 95.5 204.5 c 128,-1,10
 63 272 63 272 63 352 c 0,11,12
 63 414 63 414 84.5 466.5 c 128,-1,13
 106 519 106 519 147 563 c 128,-1,14
 188 607 188 607 247.5 643 c 128,-1,15
 307 679 307 679 383 708 c 1,16,17
 329 777 329 777 299.5 838 c 128,-1,18
 270 899 270 899 270 964 c 0,19,20
 270 1022 270 1022 294.5 1071.5 c 128,-1,21
 319 1121 319 1121 362 1157 c 128,-1,22
 405 1193 405 1193 464 1213 c 128,-1,23
 523 1233 523 1233 592 1233 c 0,24,25
 657 1233 657 1233 713 1213.5 c 128,-1,26
 769 1194 769 1194 809.5 1159.5 c 128,-1,27
 850 1125 850 1125 873 1078 c 128,-1,28
 896 1031 896 1031 896 977 c 0,29,30
 896 876 896 876 836 799 c 128,-1,31
 776 722 776 722 642 662 c 1,32,-1
 880 387 l 1,33,34
 926 444 926 444 954 515 c 128,-1,35
 982 586 982 586 999 661 c 1,36,-1
 1262 661 l 1,37,-1
 1262 514 l 1,38,-1
 1123 513 l 1,39,40
 1096 433 1096 433 1061.5 371 c 128,-1,41
 1027 309 1027 309 983 259 c 1,42,-1
 1070 149 l 1,43,-1
 1263 149 l 1,0,-1
476 595 m 1,44,45
 370 554 370 554 317 497 c 128,-1,46
 264 440 264 440 264 363 c 0,47,48
 264 319 264 319 283.5 279.5 c 128,-1,49
 303 240 303 240 338 210 c 128,-1,50
 373 180 373 180 420.5 162.5 c 128,-1,51
 468 145 468 145 525 145 c 0,52,53
 591 145 591 145 650 170 c 128,-1,54
 709 195 709 195 764 249 c 1,55,-1
 476 595 l 1,44,45
553 779 m 1,56,57
 642 821 642 821 685.5 865 c 128,-1,58
 729 909 729 909 729 967 c 0,59,60
 729 996 729 996 718.5 1019.5 c 128,-1,61
 708 1043 708 1043 689.5 1059.5 c 128,-1,62
 671 1076 671 1076 646 1085 c 128,-1,63
 621 1094 621 1094 591 1094 c 0,64,65
 530 1094 530 1094 490.5 1061.5 c 128,-1,66
 451 1029 451 1029 451 971 c 0,67,68
 451 933 451 933 476.5 889 c 128,-1,69
 502 845 502 845 553 779 c 1,56,57
EndSplineSet
Validated: 1
EndChar

StartChar: quotesingle
Encoding: 39 39 29
Width: 502
GlyphClass: 2
Flags: W
LayerCount: 2
Fore
SplineSet
317 757 m 1,0,-1
 195 757 l 1,1,-1
 146 1222 l 1,2,-1
 362 1222 l 1,3,-1
 317 757 l 1,0,-1
EndSplineSet
Validated: 1
EndChar

StartChar: parenleft
Encoding: 40 40 30
Width: 583
GlyphClass: 2
Flags: W
LayerCount: 2
Fore
SplineSet
79 487 m 256,0,1
 79 617 79 617 114.5 721 c 128,-1,2
 150 825 150 825 211.5 905 c 128,-1,3
 273 985 273 985 357 1041 c 128,-1,4
 441 1097 441 1097 537 1130 c 1,5,-1
 539 991 l 1,6,7
 471 962 471 962 417 919.5 c 128,-1,8
 363 877 363 877 326 816 c 128,-1,9
 289 755 289 755 269.5 674 c 128,-1,10
 250 593 250 593 250 487 c 0,11,12
 250 379 250 379 270 297.5 c 128,-1,13
 290 216 290 216 327 155.5 c 128,-1,14
 364 95 364 95 417.5 53 c 128,-1,15
 471 11 471 11 539 -18 c 1,16,-1
 537 -158 l 1,17,18
 441 -125 441 -125 357 -69 c 128,-1,19
 273 -13 273 -13 211.5 67 c 128,-1,20
 150 147 150 147 114.5 252 c 128,-1,21
 79 357 79 357 79 487 c 256,0,1
EndSplineSet
Validated: 1
EndChar

StartChar: parenright
Encoding: 41 41 31
Width: 583
GlyphClass: 2
Flags: W
LayerCount: 2
Fore
SplineSet
499 487 m 0,0,1
 499 357 499 357 463.5 252 c 128,-1,2
 428 147 428 147 366 67 c 128,-1,3
 304 -13 304 -13 220.5 -69 c 128,-1,4
 137 -125 137 -125 40 -158 c 1,5,-1
 39 -18 l 1,6,7
 106 11 106 11 160 53 c 128,-1,8
 214 95 214 95 251 155.5 c 128,-1,9
 288 216 288 216 308 297.5 c 128,-1,10
 328 379 328 379 328 487 c 0,11,12
 328 593 328 593 308.5 674 c 128,-1,13
 289 755 289 755 252 816 c 128,-1,14
 215 877 215 877 161 919.5 c 128,-1,15
 107 962 107 962 39 991 c 1,16,-1
 40 1130 l 1,17,18
 137 1097 137 1097 220.5 1040.5 c 128,-1,19
 304 984 304 984 366 904.5 c 128,-1,20
 428 825 428 825 463.5 720.5 c 128,-1,21
 499 616 499 616 499 487 c 0,0,1
EndSplineSet
Validated: 1
EndChar

StartChar: asterisk
Encoding: 42 42 32
Width: 986
GlyphClass: 2
Flags: W
LayerCount: 2
Fore
SplineSet
329 407 m 1,0,-1
 195 503 l 1,1,-1
 286 629 l 1,2,-1
 452 770 l 1,3,-1
 234 784 l 1,4,-1
 90 835 l 1,5,-1
 138 992 l 1,6,-1
 286 943 l 1,7,-1
 477 822 l 1,8,-1
 421 1043 l 1,9,-1
 421 1194 l 1,10,-1
 582 1194 l 1,11,-1
 582 1043 l 1,12,-1
 526 822 l 1,13,-1
 717 943 l 1,14,-1
 866 992 l 1,15,-1
 913 835 l 1,16,-1
 770 784 l 1,17,-1
 551 770 l 1,18,-1
 717 629 l 1,19,-1
 807 503 l 1,20,-1
 674 407 l 1,21,-1
 582 534 l 1,22,-1
 501 740 l 1,23,-1
 421 534 l 1,24,-1
 329 407 l 1,0,-1
EndSplineSet
Validated: 1
EndChar

StartChar: plus
Encoding: 43 43 33
Width: 1156
GlyphClass: 2
Flags: W
LayerCount: 2
Fore
SplineSet
657 654 m 1,0,-1
 1076 654 l 1,1,-1
 1076 505 l 1,2,-1
 657 505 l 1,3,-1
 657 97 l 1,4,-1
 498 97 l 1,5,-1
 498 505 l 1,6,-1
 80 505 l 1,7,-1
 80 654 l 1,8,-1
 498 654 l 1,9,-1
 498 1061 l 1,10,-1
 657 1061 l 1,11,-1
 657 654 l 1,0,-1
EndSplineSet
Validated: 1
EndChar

StartChar: comma
Encoding: 44 44 34
Width: 500
GlyphClass: 2
Flags: W
LayerCount: 2
Fore
SplineSet
119 236 m 1,0,1
 137 238 137 238 170 239 c 128,-1,2
 203 240 203 240 240 241 c 128,-1,3
 277 242 277 242 311.5 242 c 128,-1,4
 346 242 346 242 367 242 c 1,5,6
 368 228 368 228 369.5 198.5 c 128,-1,7
 371 169 371 169 372 135 c 128,-1,8
 373 101 373 101 373.5 69.5 c 128,-1,9
 374 38 374 38 374 21 c 0,10,11
 374 -51 374 -51 361.5 -105.5 c 128,-1,12
 349 -160 349 -160 319 -197 c 128,-1,13
 289 -234 289 -234 239.5 -252.5 c 128,-1,14
 190 -271 190 -271 117 -271 c 1,15,-1
 117 -169 l 1,16,17
 153 -162 153 -162 178 -150 c 128,-1,18
 203 -138 203 -138 219 -118.5 c 128,-1,19
 235 -99 235 -99 242 -69.5 c 128,-1,20
 249 -40 249 -40 249 1 c 1,21,-1
 121 1 l 1,22,23
 121 17 121 17 120.5 49.5 c 128,-1,24
 120 82 120 82 119.5 118 c 128,-1,25
 119 154 119 154 119 186.5 c 128,-1,26
 119 219 119 219 119 236 c 1,0,1
EndSplineSet
Validated: 1
EndChar

StartChar: hyphen
Encoding: 45 45 35
Width: 654
GlyphClass: 2
Flags: W
LayerCount: 2
Fore
SplineSet
92 506 m 1,0,-1
 567 506 l 1,1,-1
 567 357 l 1,2,-1
 92 357 l 1,3,-1
 92 506 l 1,0,-1
EndSplineSet
Validated: 1
EndChar

StartChar: period
Encoding: 46 46 36
Width: 500
GlyphClass: 2
Flags: W
LayerCount: 2
Fore
SplineSet
367 238 m 1,0,-1
 367 0 l 1,1,-1
 120 0 l 1,2,-1
 120 238 l 1,3,-1
 367 238 l 1,0,-1
EndSplineSet
Validated: 1
EndChar

StartChar: slash
Encoding: 47 47 37
Width: 865
GlyphClass: 2
Flags: W
LayerCount: 2
Fore
SplineSet
654 1252 m 1,0,-1
 782 1216 l 1,1,-1
 209 -36 l 1,2,-1
 80 0 l 1,3,-1
 654 1252 l 1,0,-1
EndSplineSet
Validated: 1
EndChar

StartChar: zero
Encoding: 48 48 38
Width: 1044
GlyphClass: 2
Flags: W
LayerCount: 2
Fore
SplineSet
521 -19 m 256,0,1
 411 -19 411 -19 329.5 25 c 128,-1,2
 248 69 248 69 194 151 c 128,-1,3
 140 233 140 233 113 349 c 128,-1,4
 86 465 86 465 86 608 c 256,5,6
 86 751 86 751 113 866.5 c 128,-1,7
 140 982 140 982 194 1063.5 c 128,-1,8
 248 1145 248 1145 329.5 1189 c 128,-1,9
 411 1233 411 1233 521 1233 c 256,10,11
 631 1233 631 1233 713 1189 c 128,-1,12
 795 1145 795 1145 849.5 1064 c 128,-1,13
 904 983 904 983 931 867.5 c 128,-1,14
 958 752 958 752 958 608 c 256,15,16
 958 464 958 464 931 348.5 c 128,-1,17
 904 233 904 233 849.5 151 c 128,-1,18
 795 69 795 69 713 25 c 128,-1,19
 631 -19 631 -19 521 -19 c 256,0,1
521 124 m 0,20,21
 581 124 581 124 625.5 151.5 c 128,-1,22
 670 179 670 179 699 238 c 128,-1,23
 728 297 728 297 742 388.5 c 128,-1,24
 756 480 756 480 756 608 c 0,25,26
 756 737 756 737 741.5 828.5 c 128,-1,27
 727 920 727 920 698 978.5 c 128,-1,28
 669 1037 669 1037 625 1064 c 128,-1,29
 581 1091 581 1091 521 1091 c 0,30,31
 456 1091 456 1091 411.5 1058.5 c 128,-1,32
 367 1026 367 1026 339.5 964.5 c 128,-1,33
 312 903 312 903 300 812.5 c 128,-1,34
 288 722 288 722 288 607 c 0,35,36
 288 491 288 491 300 401 c 128,-1,37
 312 311 312 311 339.5 249.5 c 128,-1,38
 367 188 367 188 411.5 156 c 128,-1,39
 456 124 456 124 521 124 c 0,20,21
EndSplineSet
Validated: 1
EndChar

StartChar: one
Encoding: 49 49 39
Width: 749
GlyphClass: 2
Flags: W
LayerCount: 2
Fore
SplineSet
648 141 m 1,0,-1
 648 0 l 1,1,-1
 116 0 l 1,2,-1
 116 141 l 1,3,-1
 289 141 l 1,4,-1
 289 1075 l 1,5,-1
 104 1075 l 1,6,-1
 104 1215 l 1,7,-1
 485 1215 l 1,8,-1
 485 141 l 1,9,-1
 648 141 l 1,0,-1
EndSplineSet
Validated: 1
EndChar

StartChar: two
Encoding: 50 50 40
Width: 996
GlyphClass: 2
Flags: W
LayerCount: 2
Fore
SplineSet
72 0 m 1,0,1
 72 109 72 109 102 195 c 128,-1,2
 132 281 132 281 180 351 c 128,-1,3
 228 421 228 421 289 478.5 c 128,-1,4
 350 536 350 536 413 587 c 0,5,6
 454 621 454 621 499.5 656.5 c 128,-1,7
 545 692 545 692 583 731 c 128,-1,8
 621 770 621 770 646 813.5 c 128,-1,9
 671 857 671 857 671 908 c 0,10,11
 671 989 671 989 623.5 1036.5 c 128,-1,12
 576 1084 576 1084 488 1084 c 0,13,14
 430 1084 430 1084 390.5 1066.5 c 128,-1,15
 351 1049 351 1049 326 1013 c 128,-1,16
 301 977 301 977 289.5 922 c 128,-1,17
 278 867 278 867 277 792 c 1,18,-1
 104 792 l 1,19,20
 104 1016 104 1016 200 1124.5 c 128,-1,21
 296 1233 296 1233 486 1233 c 0,22,23
 590 1233 590 1233 665 1204.5 c 128,-1,24
 740 1176 740 1176 788 1129.5 c 128,-1,25
 836 1083 836 1083 858.5 1023.5 c 128,-1,26
 881 964 881 964 881 903 c 0,27,28
 881 838 881 838 858.5 785 c 128,-1,29
 836 732 836 732 798 686.5 c 128,-1,30
 760 641 760 641 711 601.5 c 128,-1,31
 662 562 662 562 609 523.5 c 128,-1,32
 556 485 556 485 502.5 445.5 c 128,-1,33
 449 406 449 406 402.5 360.5 c 128,-1,34
 356 315 356 315 320.5 261 c 128,-1,35
 285 207 285 207 268 141 c 1,36,-1
 732 141 l 1,37,-1
 732 384 l 1,38,-1
 881 384 l 1,39,-1
 881 0 l 1,40,-1
 72 0 l 1,0,1
EndSplineSet
Validated: 1
EndChar

StartChar: three
Encoding: 51 51 41
Width: 1009
GlyphClass: 2
Flags: W
LayerCount: 2
Fore
SplineSet
244 364 m 1,0,1
 254 255 254 255 310.5 194 c 128,-1,2
 367 133 367 133 479 133 c 0,3,4
 537 133 537 133 581.5 148.5 c 128,-1,5
 626 164 626 164 657 192 c 128,-1,6
 688 220 688 220 704 257.5 c 128,-1,7
 720 295 720 295 720 340 c 0,8,9
 720 405 720 405 695 447 c 128,-1,10
 670 489 670 489 625 513 c 128,-1,11
 580 537 580 537 516.5 546.5 c 128,-1,12
 453 556 453 556 376 556 c 1,13,-1
 376 710 l 1,14,15
 451 710 451 710 508 718 c 128,-1,16
 565 726 565 726 603.5 748 c 128,-1,17
 642 770 642 770 662 808 c 128,-1,18
 682 846 682 846 682 906 c 0,19,20
 682 942 682 942 669.5 974 c 128,-1,21
 657 1006 657 1006 631.5 1029.5 c 128,-1,22
 606 1053 606 1053 568.5 1066.5 c 128,-1,23
 531 1080 531 1080 480 1080 c 0,24,25
 428 1080 428 1080 391.5 1066.5 c 128,-1,26
 355 1053 355 1053 332 1029 c 128,-1,27
 309 1005 309 1005 297.5 972 c 128,-1,28
 286 939 286 939 285 900 c 1,29,-1
 105 901 l 1,30,31
 108 977 108 977 135 1038.5 c 128,-1,32
 162 1100 162 1100 210.5 1143.5 c 128,-1,33
 259 1187 259 1187 328 1210 c 128,-1,34
 397 1233 397 1233 484 1233 c 0,35,36
 574 1233 574 1233 647 1211 c 128,-1,37
 720 1189 720 1189 771 1147.5 c 128,-1,38
 822 1106 822 1106 849.5 1045.5 c 128,-1,39
 877 985 877 985 877 908 c 0,40,41
 877 863 877 863 864 821.5 c 128,-1,42
 851 780 851 780 825 745 c 128,-1,43
 799 710 799 710 761 683.5 c 128,-1,44
 723 657 723 657 672 642 c 1,45,46
 798 611 798 611 861.5 534.5 c 128,-1,47
 925 458 925 458 925 344 c 0,48,49
 925 263 925 263 894 196 c 128,-1,50
 863 129 863 129 805 81.5 c 128,-1,51
 747 34 747 34 664 7.5 c 128,-1,52
 581 -19 581 -19 478 -19 c 0,53,54
 386 -19 386 -19 311 4.5 c 128,-1,55
 236 28 236 28 182 76 c 128,-1,56
 128 124 128 124 97 196 c 128,-1,57
 66 268 66 268 64 364 c 1,58,-1
 244 364 l 1,0,1
EndSplineSet
Validated: 1
EndChar

StartChar: four
Encoding: 52 52 42
Width: 954
GlyphClass: 2
Flags: W
LayerCount: 2
Fore
SplineSet
839 141 m 1,0,-1
 839 0 l 1,1,-1
 368 0 l 1,2,-1
 368 141 l 1,3,-1
 523 141 l 1,4,-1
 523 334 l 1,5,-1
 32 334 l 1,6,-1
 32 498 l 1,7,-1
 526 1215 l 1,8,-1
 704 1215 l 1,9,-1
 704 470 l 1,10,-1
 880 470 l 1,11,-1
 880 334 l 1,12,-1
 704 334 l 1,13,-1
 704 141 l 1,14,-1
 839 141 l 1,0,-1
523 470 m 1,15,-1
 523 977 l 1,16,-1
 191 470 l 1,17,-1
 523 470 l 1,15,-1
EndSplineSet
Validated: 1
EndChar

StartChar: five
Encoding: 53 53 43
Width: 1005
GlyphClass: 2
Flags: W
LayerCount: 2
Fore
SplineSet
493 -19 m 1,0,1
 307 -19 307 -19 201 74 c 128,-1,2
 95 167 95 167 79 339 c 1,3,-1
 261 339 l 1,4,5
 280 238 280 238 333 183.5 c 128,-1,6
 386 129 386 129 488 129 c 0,7,8
 545 129 545 129 588.5 148 c 128,-1,9
 632 167 632 167 661 200.5 c 128,-1,10
 690 234 690 234 704.5 280 c 128,-1,11
 719 326 719 326 719 379 c 0,12,13
 719 444 719 444 702.5 492 c 128,-1,14
 686 540 686 540 656 571.5 c 128,-1,15
 626 603 626 603 585.5 618.5 c 128,-1,16
 545 634 545 634 497 634 c 0,17,18
 438 634 438 634 383 610 c 128,-1,19
 328 586 328 586 276 534 c 1,20,-1
 162 591 l 1,21,-1
 162 1215 l 1,22,-1
 851 1215 l 1,23,-1
 851 959 l 1,24,-1
 695 959 l 1,25,-1
 695 1075 l 1,26,-1
 309 1075 l 1,27,28
 308 1060 308 1060 305.5 1030.5 c 128,-1,29
 303 1001 303 1001 300 963.5 c 128,-1,30
 297 926 297 926 294 885 c 128,-1,31
 291 844 291 844 288 807 c 128,-1,32
 285 770 285 770 283 740 c 128,-1,33
 281 710 281 710 280 695 c 1,34,35
 331 748 331 748 392 771 c 128,-1,36
 453 794 453 794 529 794 c 0,37,38
 618 794 618 794 691 764 c 128,-1,39
 764 734 764 734 815.5 680.5 c 128,-1,40
 867 627 867 627 895 552 c 128,-1,41
 923 477 923 477 923 387 c 0,42,43
 923 308 923 308 898.5 235 c 128,-1,44
 874 162 874 162 822 106 c 128,-1,45
 770 50 770 50 688.5 16 c 128,-1,46
 607 -18 607 -18 493 -19 c 1,0,1
EndSplineSet
Validated: 1
EndChar

StartChar: six
Encoding: 54 54 44
Width: 1005
GlyphClass: 2
Flags: W
LayerCount: 2
Fore
SplineSet
284 524 m 1,0,1
 290 432 290 432 305 359 c 128,-1,2
 320 286 320 286 348.5 236 c 128,-1,3
 377 186 377 186 419.5 159.5 c 128,-1,4
 462 133 462 133 523 133 c 0,5,6
 574 133 574 133 613 151.5 c 128,-1,7
 652 170 652 170 678.5 203 c 128,-1,8
 705 236 705 236 718.5 281.5 c 128,-1,9
 732 327 732 327 732 381 c 0,10,11
 732 432 732 432 718.5 474.5 c 128,-1,12
 705 517 705 517 678.5 547.5 c 128,-1,13
 652 578 652 578 613.5 595 c 128,-1,14
 575 612 575 612 525 612 c 0,15,16
 499 612 499 612 467.5 606.5 c 128,-1,17
 436 601 436 601 403.5 590 c 128,-1,18
 371 579 371 579 340 562.5 c 128,-1,19
 309 546 309 546 284 524 c 1,0,1
730 914 m 1,20,21
 714 993 714 993 666.5 1040.5 c 128,-1,22
 619 1088 619 1088 542 1088 c 0,23,24
 479 1088 479 1088 430.5 1058.5 c 128,-1,25
 382 1029 382 1029 349 975 c 128,-1,26
 316 921 316 921 298.5 844.5 c 128,-1,27
 281 768 281 768 280 674 c 1,28,29
 333 721 333 721 405.5 744 c 128,-1,30
 478 767 478 767 561 767 c 0,31,32
 640 767 640 767 706 739.5 c 128,-1,33
 772 712 772 712 818.5 663 c 128,-1,34
 865 614 865 614 891 546 c 128,-1,35
 917 478 917 478 917 397 c 0,36,37
 917 305 917 305 890.5 228.5 c 128,-1,38
 864 152 864 152 814 97 c 128,-1,39
 764 42 764 42 692 11.5 c 128,-1,40
 620 -19 620 -19 529 -19 c 0,41,42
 418 -19 418 -19 335 22.5 c 128,-1,43
 252 64 252 64 197 142.5 c 128,-1,44
 142 221 142 221 114.5 336 c 128,-1,45
 87 451 87 451 87 598 c 0,46,47
 87 743 87 743 114.5 860 c 128,-1,48
 142 977 142 977 198 1060 c 128,-1,49
 254 1143 254 1143 338 1188 c 128,-1,50
 422 1233 422 1233 536 1233 c 0,51,52
 614 1233 614 1233 677.5 1210.5 c 128,-1,53
 741 1188 741 1188 786.5 1146.5 c 128,-1,54
 832 1105 832 1105 859 1046 c 128,-1,55
 886 987 886 987 891 914 c 1,56,-1
 730 914 l 1,20,21
EndSplineSet
Validated: 1
EndChar

StartChar: seven
Encoding: 55 55 45
Width: 914
GlyphClass: 2
Flags: W
LayerCount: 2
Fore
SplineSet
661 0 m 1,0,-1
 147 0 l 1,1,-1
 147 141 l 1,2,-1
 310 141 l 1,3,4
 319 264 319 264 350.5 392 c 128,-1,5
 382 520 382 520 431 641.5 c 128,-1,6
 480 763 480 763 542.5 874 c 128,-1,7
 605 985 605 985 674 1074 c 1,8,-1
 234 1074 l 1,9,-1
 234 892 l 1,10,-1
 76 892 l 1,11,-1
 76 1215 l 1,12,-1
 875 1215 l 1,13,-1
 875 1084 l 1,14,15
 800 995 800 995 735 880 c 128,-1,16
 670 765 670 765 621.5 639 c 128,-1,17
 573 513 573 513 544 384.5 c 128,-1,18
 515 256 515 256 512 141 c 1,19,-1
 661 141 l 1,20,-1
 661 0 l 1,0,-1
EndSplineSet
Validated: 1
EndChar

StartChar: eight
Encoding: 56 56 46
Width: 1047
GlyphClass: 2
Flags: W
LayerCount: 2
Fore
SplineSet
523 -19 m 0,0,1
 412 -19 412 -19 328.5 8 c 128,-1,2
 245 35 245 35 189.5 82.5 c 128,-1,3
 134 130 134 130 106.5 194.5 c 128,-1,4
 79 259 79 259 79 334 c 0,5,6
 79 441 79 441 136 518 c 128,-1,7
 193 595 193 595 311 632 c 1,8,9
 206 680 206 680 160.5 751 c 128,-1,10
 115 822 115 822 115 915 c 0,11,12
 115 987 115 987 143.5 1045.5 c 128,-1,13
 172 1104 172 1104 224.5 1145.5 c 128,-1,14
 277 1187 277 1187 352 1210 c 128,-1,15
 427 1233 427 1233 521 1233 c 256,16,17
 615 1233 615 1233 690 1210.5 c 128,-1,18
 765 1188 765 1188 817.5 1146.5 c 128,-1,19
 870 1105 870 1105 898.5 1046.5 c 128,-1,20
 927 988 927 988 927 917 c 0,21,22
 927 823 927 823 882.5 753 c 128,-1,23
 838 683 838 683 732 634 c 1,24,25
 850 598 850 598 907 520 c 128,-1,26
 964 442 964 442 964 334 c 0,27,28
 964 258 964 258 935 193.5 c 128,-1,29
 906 129 906 129 850 81.5 c 128,-1,30
 794 34 794 34 712 7.5 c 128,-1,31
 630 -19 630 -19 523 -19 c 0,0,1
509 560 m 1,32,33
 397 556 397 556 338.5 498.5 c 128,-1,34
 280 441 280 441 280 344 c 0,35,36
 280 297 280 297 297 258 c 128,-1,37
 314 219 314 219 345.5 190.5 c 128,-1,38
 377 162 377 162 422 146 c 128,-1,39
 467 130 467 130 523 130 c 0,40,41
 578 130 578 130 622 145.5 c 128,-1,42
 666 161 666 161 697.5 189 c 128,-1,43
 729 217 729 217 746 255.5 c 128,-1,44
 763 294 763 294 763 341 c 0,45,46
 763 442 763 442 700 499.5 c 128,-1,47
 637 557 637 557 509 560 c 1,32,33
521 1085 m 0,48,49
 417 1085 417 1085 361 1035 c 128,-1,50
 305 985 305 985 305 898 c 256,51,52
 305 811 305 811 364 759 c 128,-1,53
 423 707 423 707 530 701 c 1,54,55
 628 708 628 708 683.5 760 c 128,-1,56
 739 812 739 812 739 898 c 0,57,58
 739 939 739 939 725 973.5 c 128,-1,59
 711 1008 711 1008 684 1032.5 c 128,-1,60
 657 1057 657 1057 616 1071 c 128,-1,61
 575 1085 575 1085 521 1085 c 0,48,49
EndSplineSet
Validated: 1
EndChar

StartChar: nine
Encoding: 57 57 47
Width: 1006
GlyphClass: 2
Flags: W
LayerCount: 2
Fore
SplineSet
478 609 m 0,0,1
 504 609 504 609 535.5 615.5 c 128,-1,2
 567 622 567 622 599.5 635 c 128,-1,3
 632 648 632 648 663.5 668.5 c 128,-1,4
 695 689 695 689 720 716 c 1,5,6
 714 803 714 803 699 870.5 c 128,-1,7
 684 938 684 938 656 985 c 128,-1,8
 628 1032 628 1032 585.5 1056.5 c 128,-1,9
 543 1081 543 1081 482 1081 c 0,10,11
 430 1081 430 1081 390.5 1062.5 c 128,-1,12
 351 1044 351 1044 324.5 1011 c 128,-1,13
 298 978 298 978 284.5 933 c 128,-1,14
 271 888 271 888 271 834 c 0,15,16
 271 784 271 784 285 742.5 c 128,-1,17
 299 701 299 701 325.5 671.5 c 128,-1,18
 352 642 352 642 390.5 625.5 c 128,-1,19
 429 609 429 609 478 609 c 0,0,1
456 -19 m 1,20,21
 379 -18 379 -18 317 5.5 c 128,-1,22
 255 29 255 29 210.5 72 c 128,-1,23
 166 115 166 115 140.5 175 c 128,-1,24
 115 235 115 235 112 308 c 1,25,-1
 278 307 l 1,26,27
 292 225 292 225 341.5 179.5 c 128,-1,28
 391 134 391 134 476 134 c 0,29,30
 590 134 590 134 656 236.5 c 128,-1,31
 722 339 722 339 724 551 c 1,32,33
 671 500 671 500 598.5 474.5 c 128,-1,34
 526 449 526 449 443 449 c 0,35,36
 364 449 364 449 298.5 476 c 128,-1,37
 233 503 233 503 185.5 551.5 c 128,-1,38
 138 600 138 600 112 668 c 128,-1,39
 86 736 86 736 86 817 c 0,40,41
 86 911 86 911 112.5 987.5 c 128,-1,42
 139 1064 139 1064 189.5 1118.5 c 128,-1,43
 240 1173 240 1173 312 1203 c 128,-1,44
 384 1233 384 1233 476 1233 c 0,45,46
 697 1233 697 1233 807 1077 c 128,-1,47
 917 921 917 921 917 618 c 0,48,49
 917 470 917 470 888.5 352 c 128,-1,50
 860 234 860 234 802.5 151.5 c 128,-1,51
 745 69 745 69 658.5 25 c 128,-1,52
 572 -19 572 -19 456 -19 c 1,20,21
EndSplineSet
Validated: 1
EndChar

StartChar: colon
Encoding: 58 58 48
Width: 506
GlyphClass: 2
Flags: W
LayerCount: 2
Fore
SplineSet
380 323 m 1,0,-1
 380 80 l 1,1,-1
 126 80 l 1,2,-1
 126 323 l 1,3,-1
 380 323 l 1,0,-1
380 866 m 1,4,-1
 380 621 l 1,5,-1
 126 621 l 1,6,-1
 126 866 l 1,7,-1
 380 866 l 1,4,-1
EndSplineSet
Validated: 1
EndChar

StartChar: semicolon
Encoding: 59 59 49
Width: 505
GlyphClass: 2
Flags: W
LayerCount: 2
Fore
SplineSet
383 325 m 1,0,-1
 383 82 l 2,1,2
 383 15 383 15 371.5 -36 c 128,-1,3
 360 -87 360 -87 330.5 -121.5 c 128,-1,4
 301 -156 301 -156 251.5 -174 c 128,-1,5
 202 -192 202 -192 126 -193 c 1,6,-1
 126 -90 l 1,7,8
 166 -87 166 -87 192 -75.5 c 128,-1,9
 218 -64 218 -64 233 -43 c 128,-1,10
 248 -22 248 -22 253.5 8.5 c 128,-1,11
 259 39 259 39 259 80 c 1,12,-1
 129 80 l 1,13,-1
 129 324 l 1,14,-1
 383 325 l 1,0,-1
380 866 m 1,15,-1
 380 621 l 1,16,-1
 126 621 l 1,17,-1
 126 866 l 1,18,-1
 380 866 l 1,15,-1
EndSplineSet
Validated: 1
EndChar

StartChar: less
Encoding: 60 60 50
Width: 1199
GlyphClass: 2
Flags: W
LayerCount: 2
Fore
SplineSet
304 599 m 1,0,-1
 1030 269 l 1,1,-1
 1030 105 l 1,2,-1
 113 530 l 1,3,-1
 113 666 l 1,4,-1
 1030 1091 l 1,5,-1
 1030 928 l 1,6,-1
 304 599 l 1,0,-1
EndSplineSet
Validated: 1
EndChar

StartChar: equal
Encoding: 61 61 51
Width: 1229
GlyphClass: 2
Flags: W
LayerCount: 2
Fore
SplineSet
163 797 m 1,0,-1
 1065 797 l 1,1,-1
 1065 647 l 1,2,-1
 163 647 l 1,3,-1
 163 797 l 1,0,-1
163 397 m 1,4,-1
 1065 397 l 1,5,-1
 1065 248 l 1,6,-1
 163 248 l 1,7,-1
 163 397 l 1,4,-1
EndSplineSet
Validated: 1
EndChar

StartChar: greater
Encoding: 62 62 52
Width: 1198
GlyphClass: 2
Flags: W
LayerCount: 2
Fore
SplineSet
139 928 m 1,0,-1
 139 1091 l 1,1,-1
 1055 666 l 1,2,-1
 1055 530 l 1,3,-1
 139 105 l 1,4,-1
 139 269 l 1,5,-1
 864 599 l 1,6,-1
 139 928 l 1,0,-1
EndSplineSet
Validated: 1
EndChar

StartChar: question
Encoding: 63 63 53
Width: 796
GlyphClass: 2
Flags: W
LayerCount: 2
Fore
SplineSet
300 340 m 1,0,1
 300 426 300 426 313 487.5 c 128,-1,2
 326 549 326 549 347 592.5 c 128,-1,3
 368 636 368 636 394.5 665.5 c 128,-1,4
 421 695 421 695 449 717 c 128,-1,5
 477 739 477 739 503.5 757 c 128,-1,6
 530 775 530 775 551 796 c 128,-1,7
 572 817 572 817 585 845 c 128,-1,8
 598 873 598 873 598 914 c 0,9,10
 598 956 598 956 584 990 c 128,-1,11
 570 1024 570 1024 545.5 1048 c 128,-1,12
 521 1072 521 1072 488.5 1085 c 128,-1,13
 456 1098 456 1098 419 1098 c 0,14,15
 317 1098 317 1098 267 1043.5 c 128,-1,16
 217 989 217 989 217 889 c 1,17,-1
 44 889 l 1,18,19
 44 985 44 985 75.5 1050.5 c 128,-1,20
 107 1116 107 1116 159 1156.5 c 128,-1,21
 211 1197 211 1197 278.5 1215 c 128,-1,22
 346 1233 346 1233 417 1233 c 0,23,24
 492 1233 492 1233 558 1210.5 c 128,-1,25
 624 1188 624 1188 672.5 1146.5 c 128,-1,26
 721 1105 721 1105 749 1046 c 128,-1,27
 777 987 777 987 777 914 c 0,28,29
 777 859 777 859 762.5 819.5 c 128,-1,30
 748 780 748 780 725 750.5 c 128,-1,31
 702 721 702 721 674 699.5 c 128,-1,32
 646 678 646 678 619 660 c 0,33,34
 588 639 588 639 557.5 615 c 128,-1,35
 527 591 527 591 502 555 c 128,-1,36
 477 519 477 519 460 467.5 c 128,-1,37
 443 416 443 416 439 340 c 1,38,-1
 300 340 l 1,0,1
472 209 m 1,39,-1
 472 0 l 1,40,-1
 277 0 l 1,41,-1
 277 209 l 1,42,-1
 472 209 l 1,39,-1
EndSplineSet
Validated: 1
EndChar

StartChar: at
Encoding: 64 64 54
Width: 1418
GlyphClass: 2
Flags: W
LayerCount: 2
Fore
SplineSet
1189 75 m 1,0,1
 1101 7 1101 7 993 -29.5 c 128,-1,2
 885 -66 885 -66 745 -66 c 0,3,4
 626 -66 626 -66 529 -41.5 c 128,-1,5
 432 -17 432 -17 355 26 c 128,-1,6
 278 69 278 69 221 128 c 128,-1,7
 164 187 164 187 126.5 256.5 c 128,-1,8
 89 326 89 326 70.5 402.5 c 128,-1,9
 52 479 52 479 52 558 c 0,10,11
 52 641 52 641 72 723.5 c 128,-1,12
 92 806 92 806 131.5 881 c 128,-1,13
 171 956 171 956 228.5 1020.5 c 128,-1,14
 286 1085 286 1085 362 1132 c 128,-1,15
 438 1179 438 1179 531.5 1206 c 128,-1,16
 625 1233 625 1233 735 1233 c 0,17,18
 837 1233 837 1233 920.5 1211.5 c 128,-1,19
 1004 1190 1004 1190 1069 1153 c 128,-1,20
 1134 1116 1134 1116 1181 1065 c 128,-1,21
 1228 1014 1228 1014 1258.5 955 c 128,-1,22
 1289 896 1289 896 1304 831 c 128,-1,23
 1319 766 1319 766 1319 701 c 0,24,25
 1319 608 1319 608 1290.5 520 c 128,-1,26
 1262 432 1262 432 1209.5 363.5 c 128,-1,27
 1157 295 1157 295 1082 254 c 128,-1,28
 1007 213 1007 213 914 213 c 0,29,30
 876 213 876 213 848.5 238 c 128,-1,31
 821 263 821 263 813 326 c 1,32,33
 768 265 768 265 713 239 c 128,-1,34
 658 213 658 213 600 213 c 0,35,36
 548 213 548 213 499.5 234 c 128,-1,37
 451 255 451 255 413.5 295.5 c 128,-1,38
 376 336 376 336 353 395.5 c 128,-1,39
 330 455 330 455 330 532 c 0,40,41
 330 583 330 583 340 635 c 128,-1,42
 350 687 350 687 370.5 734.5 c 128,-1,43
 391 782 391 782 422 824 c 128,-1,44
 453 866 453 866 494 896.5 c 128,-1,45
 535 927 535 927 586 945 c 128,-1,46
 637 963 637 963 698 963 c 0,47,48
 758 963 758 963 809 934 c 128,-1,49
 860 905 860 905 892 841 c 1,50,-1
 912 947 l 1,51,-1
 1055 947 l 1,52,-1
 953 472 l 2,53,54
 946 440 946 440 941.5 420 c 128,-1,55
 937 400 937 400 934.5 389 c 128,-1,56
 932 378 932 378 931.5 373.5 c 128,-1,57
 931 369 931 369 931 368 c 0,58,59
 931 354 931 354 936 344.5 c 128,-1,60
 941 335 941 335 955 335 c 0,61,62
 980 335 980 335 1019 358.5 c 128,-1,63
 1058 382 1058 382 1095.5 428 c 128,-1,64
 1133 474 1133 474 1160 542.5 c 128,-1,65
 1187 611 1187 611 1187 700 c 0,66,67
 1187 781 1187 781 1157.5 856 c 128,-1,68
 1128 931 1128 931 1070 988.5 c 128,-1,69
 1012 1046 1012 1046 927 1081 c 128,-1,70
 842 1116 842 1116 730 1116 c 0,71,72
 613 1116 613 1116 514.5 1074.5 c 128,-1,73
 416 1033 416 1033 344.5 958.5 c 128,-1,74
 273 884 273 884 232.5 781.5 c 128,-1,75
 192 679 192 679 192 556 c 0,76,77
 192 442 192 442 228.5 348.5 c 128,-1,78
 265 255 265 255 335 188.5 c 128,-1,79
 405 122 405 122 508 85.5 c 128,-1,80
 611 49 611 49 745 49 c 0,81,82
 856 49 856 49 948.5 77 c 128,-1,83
 1041 105 1041 105 1115 163 c 1,84,-1
 1189 75 l 1,0,1
851 668 m 0,85,86
 851 749 851 749 806 797 c 128,-1,87
 761 845 761 845 685 845 c 0,88,89
 633 845 633 845 593 816.5 c 128,-1,90
 553 788 553 788 526 742.5 c 128,-1,91
 499 697 499 697 485 641 c 128,-1,92
 471 585 471 585 471 530 c 0,93,94
 471 490 471 490 480.5 453 c 128,-1,95
 490 416 490 416 510 388 c 128,-1,96
 530 360 530 360 559.5 343.5 c 128,-1,97
 589 327 589 327 630 327 c 0,98,99
 676 327 676 327 716 358 c 128,-1,100
 756 389 756 389 786 438 c 128,-1,101
 816 487 816 487 833.5 548 c 128,-1,102
 851 609 851 609 851 668 c 0,85,86
EndSplineSet
Validated: 1
EndChar

StartChar: A
Encoding: 65 65 55
Width: 1263
GlyphClass: 2
Flags: W
LayerCount: 2
Fore
SplineSet
-11 141 m 1,0,-1
 136 141 l 1,1,-1
 428 1075 l 1,2,-1
 310 1075 l 1,3,-1
 310 1215 l 1,4,-1
 951 1215 l 1,5,-1
 951 1075 l 1,6,-1
 833 1075 l 1,7,-1
 1129 141 l 1,8,-1
 1273 141 l 1,9,-1
 1273 0 l 1,10,-1
 758 0 l 1,11,-1
 758 141 l 1,12,-1
 914 141 l 1,13,-1
 836 436 l 1,14,-1
 406 436 l 1,15,-1
 326 141 l 1,16,-1
 485 141 l 1,17,-1
 485 0 l 1,18,-1
 -11 0 l 1,19,-1
 -11 141 l 1,0,-1
795 577 m 1,20,-1
 644 1075 l 1,21,-1
 603 1075 l 1,22,-1
 448 577 l 1,23,-1
 795 577 l 1,20,-1
EndSplineSet
Validated: 1
EndChar

StartChar: B
Encoding: 66 66 56
Width: 1155
GlyphClass: 2
Flags: W
LayerCount: 2
Fore
SplineSet
65 0 m 1,0,-1
 65 141 l 1,1,-1
 220 141 l 1,2,-1
 220 1075 l 1,3,-1
 65 1075 l 1,4,-1
 65 1215 l 1,5,-1
 601 1215 l 2,6,7
 704 1215 704 1215 783 1193 c 128,-1,8
 862 1171 862 1171 915 1129.5 c 128,-1,9
 968 1088 968 1088 995.5 1029.5 c 128,-1,10
 1023 971 1023 971 1023 898 c 0,11,12
 1023 851 1023 851 1010 811 c 128,-1,13
 997 771 997 771 974 738.5 c 128,-1,14
 951 706 951 706 919 681.5 c 128,-1,15
 887 657 887 657 849 641 c 1,16,17
 954 608 954 608 1016.5 532 c 128,-1,18
 1079 456 1079 456 1079 344 c 0,19,20
 1079 283 1079 283 1057.5 222 c 128,-1,21
 1036 161 1036 161 983.5 111.5 c 128,-1,22
 931 62 931 62 842.5 31 c 128,-1,23
 754 0 754 0 619 0 c 2,24,-1
 65 0 l 1,0,-1
439 141 m 1,25,-1
 577 141 l 2,26,27
 655 141 655 141 708 155.5 c 128,-1,28
 761 170 761 170 793.5 197.5 c 128,-1,29
 826 225 826 225 840 264.5 c 128,-1,30
 854 304 854 304 854 354 c 0,31,32
 854 445 854 445 788 499 c 128,-1,33
 722 553 722 553 583 553 c 2,34,-1
 439 553 l 1,35,-1
 439 141 l 1,25,-1
439 705 m 1,36,-1
 556 705 l 2,37,38
 687 705 687 705 745 752 c 128,-1,39
 803 799 803 799 803 888 c 0,40,41
 803 935 803 935 788.5 970 c 128,-1,42
 774 1005 774 1005 741.5 1028.5 c 128,-1,43
 709 1052 709 1052 657.5 1063.5 c 128,-1,44
 606 1075 606 1075 533 1075 c 2,45,-1
 439 1075 l 1,46,-1
 439 705 l 1,36,-1
EndSplineSet
Validated: 1
EndChar

StartChar: C
Encoding: 67 67 57
Width: 1341
GlyphClass: 2
Flags: W
LayerCount: 2
Fore
SplineSet
698 -19 m 1,0,1
 541 -18 541 -18 423.5 32 c 128,-1,2
 306 82 306 82 227.5 167 c 128,-1,3
 149 252 149 252 110 365 c 128,-1,4
 71 478 71 478 71 606 c 0,5,6
 71 745 71 745 114 860 c 128,-1,7
 157 975 157 975 238 1058 c 128,-1,8
 319 1141 319 1141 435.5 1187 c 128,-1,9
 552 1233 552 1233 699 1233 c 0,10,11
 817 1233 817 1233 910.5 1194 c 128,-1,12
 1004 1155 1004 1155 1074 1089 c 1,13,-1
 1074 1215 l 1,14,-1
 1238 1215 l 1,15,-1
 1238 832 l 1,16,-1
 1083 832 l 1,17,18
 1053 896 1053 896 1013.5 942 c 128,-1,19
 974 988 974 988 927 1017.5 c 128,-1,20
 880 1047 880 1047 826.5 1060.5 c 128,-1,21
 773 1074 773 1074 715 1074 c 0,22,23
 620 1074 620 1074 545 1039 c 128,-1,24
 470 1004 470 1004 417 942 c 128,-1,25
 364 880 364 880 336 795 c 128,-1,26
 308 710 308 710 308 609 c 0,27,28
 308 510 308 510 334 424.5 c 128,-1,29
 360 339 360 339 411.5 276 c 128,-1,30
 463 213 463 213 539 177 c 128,-1,31
 615 141 615 141 714 141 c 0,32,33
 780 141 780 141 842 158 c 128,-1,34
 904 175 904 175 955.5 211.5 c 128,-1,35
 1007 248 1007 248 1045 304.5 c 128,-1,36
 1083 361 1083 361 1103 439 c 1,37,-1
 1274 358 l 1,38,39
 1240 249 1240 249 1181 177 c 128,-1,40
 1122 105 1122 105 1046.5 61.5 c 128,-1,41
 971 18 971 18 882 0 c 128,-1,42
 793 -18 793 -18 698 -19 c 1,0,1
EndSplineSet
Validated: 1
EndChar

StartChar: D
Encoding: 68 68 58
Width: 1374
GlyphClass: 2
Flags: W
LayerCount: 2
Fore
SplineSet
453 141 m 1,0,-1
 642 141 l 2,1,2
 759 141 759 141 841.5 176 c 128,-1,3
 924 211 924 211 975.5 273.5 c 128,-1,4
 1027 336 1027 336 1050.5 422 c 128,-1,5
 1074 508 1074 508 1074 609 c 0,6,7
 1074 709 1074 709 1050 794.5 c 128,-1,8
 1026 880 1026 880 975 942.5 c 128,-1,9
 924 1005 924 1005 843.5 1040 c 128,-1,10
 763 1075 763 1075 650 1075 c 2,11,-1
 453 1075 l 1,12,-1
 453 141 l 1,0,-1
61 0 m 1,13,-1
 61 141 l 1,14,-1
 234 141 l 1,15,-1
 234 1075 l 1,16,-1
 61 1075 l 1,17,-1
 61 1215 l 1,18,-1
 662 1215 l 2,19,20
 824 1215 824 1215 944 1168.5 c 128,-1,21
 1064 1122 1064 1122 1143 1041 c 128,-1,22
 1222 960 1222 960 1261 850.5 c 128,-1,23
 1300 741 1300 741 1300 615 c 0,24,25
 1300 473 1300 473 1260 359 c 128,-1,26
 1220 245 1220 245 1140 165.5 c 128,-1,27
 1060 86 1060 86 940 43 c 128,-1,28
 820 0 820 0 661 0 c 2,29,-1
 61 0 l 1,13,-1
EndSplineSet
Validated: 1
EndChar

StartChar: E
Encoding: 69 69 59
Width: 1186
GlyphClass: 2
Flags: W
LayerCount: 2
Fore
SplineSet
62 0 m 1,0,-1
 62 141 l 1,1,-1
 220 141 l 1,2,-1
 220 1075 l 1,3,-1
 62 1075 l 1,4,-1
 62 1215 l 1,5,-1
 1101 1215 l 1,6,-1
 1101 867 l 1,7,-1
 935 867 l 1,8,-1
 935 1075 l 1,9,-1
 438 1075 l 1,10,-1
 438 696 l 1,11,-1
 766 696 l 1,12,-1
 766 812 l 1,13,-1
 868 812 l 1,14,-1
 868 434 l 1,15,-1
 766 434 l 1,16,-1
 766 547 l 1,17,-1
 439 547 l 1,18,-1
 439 141 l 1,19,-1
 937 141 l 1,20,-1
 937 355 l 1,21,-1
 1103 355 l 1,22,-1
 1103 0 l 1,23,-1
 62 0 l 1,0,-1
EndSplineSet
Validated: 1
EndChar

StartChar: F
Encoding: 70 70 60
Width: 1092
GlyphClass: 2
Flags: W
LayerCount: 2
Fore
SplineSet
59 0 m 1,0,-1
 59 141 l 1,1,-1
 222 141 l 1,2,-1
 222 1075 l 1,3,-1
 59 1075 l 1,4,-1
 59 1215 l 1,5,-1
 1065 1215 l 1,6,-1
 1065 868 l 1,7,-1
 896 868 l 1,8,-1
 896 1075 l 1,9,-1
 441 1075 l 1,10,-1
 441 697 l 1,11,-1
 719 697 l 1,12,-1
 719 809 l 1,13,-1
 825 809 l 1,14,-1
 825 434 l 1,15,-1
 719 434 l 1,16,-1
 719 547 l 1,17,-1
 441 547 l 1,18,-1
 441 141 l 1,19,-1
 613 141 l 1,20,-1
 613 0 l 1,21,-1
 59 0 l 1,0,-1
EndSplineSet
Validated: 1
EndChar

StartChar: G
Encoding: 71 71 61
Width: 1412
GlyphClass: 2
Flags: W
LayerCount: 2
Fore
SplineSet
867 448 m 1,0,-1
 867 598 l 1,1,-1
 1334 598 l 1,2,3
 1332 436 1332 436 1289 319.5 c 128,-1,4
 1246 203 1246 203 1167.5 127.5 c 128,-1,5
 1089 52 1089 52 976.5 16.5 c 128,-1,6
 864 -19 864 -19 725 -19 c 0,7,8
 601 -19 601 -19 504.5 8.5 c 128,-1,9
 408 36 408 36 336 83.5 c 128,-1,10
 264 131 264 131 214 193.5 c 128,-1,11
 164 256 164 256 133 326 c 128,-1,12
 102 396 102 396 88.5 469 c 128,-1,13
 75 542 75 542 75 610 c 0,14,15
 75 724 75 724 112 835.5 c 128,-1,16
 149 947 149 947 226 1035.5 c 128,-1,17
 303 1124 303 1124 421 1178.5 c 128,-1,18
 539 1233 539 1233 702 1233 c 0,19,20
 824 1233 824 1233 923 1194.5 c 128,-1,21
 1022 1156 1022 1156 1089 1093 c 1,22,-1
 1089 1215 l 1,23,-1
 1260 1215 l 1,24,-1
 1260 831 l 1,25,-1
 1105 831 l 1,26,27
 1050 952 1050 952 954.5 1013 c 128,-1,28
 859 1074 859 1074 728 1074 c 0,29,30
 630 1074 630 1074 553 1040 c 128,-1,31
 476 1006 476 1006 422.5 945 c 128,-1,32
 369 884 369 884 341 799.5 c 128,-1,33
 313 715 313 715 313 615 c 0,34,35
 313 507 313 507 342 419.5 c 128,-1,36
 371 332 371 332 426 270 c 128,-1,37
 481 208 481 208 558.5 174.5 c 128,-1,38
 636 141 636 141 734 141 c 1,39,40
 915 145 915 145 1006.5 225 c 128,-1,41
 1098 305 1098 305 1103 448 c 1,42,-1
 867 448 l 1,0,-1
EndSplineSet
Validated: 1
EndChar

StartChar: H
Encoding: 72 72 62
Width: 1372
GlyphClass: 2
Flags: W
LayerCount: 2
Fore
SplineSet
69 0 m 1,0,-1
 69 141 l 1,1,-1
 215 141 l 1,2,-1
 215 1075 l 1,3,-1
 69 1075 l 1,4,-1
 69 1215 l 1,5,-1
 576 1215 l 1,6,-1
 576 1075 l 1,7,-1
 434 1075 l 1,8,-1
 434 713 l 1,9,-1
 939 713 l 1,10,-1
 939 1075 l 1,11,-1
 798 1075 l 1,12,-1
 798 1215 l 1,13,-1
 1303 1215 l 1,14,-1
 1303 1075 l 1,15,-1
 1157 1075 l 1,16,-1
 1157 141 l 1,17,-1
 1303 141 l 1,18,-1
 1303 0 l 1,19,-1
 798 0 l 1,20,-1
 798 141 l 1,21,-1
 939 141 l 1,22,-1
 939 560 l 1,23,-1
 434 560 l 1,24,-1
 434 141 l 1,25,-1
 576 141 l 1,26,-1
 576 0 l 1,27,-1
 69 0 l 1,0,-1
EndSplineSet
Validated: 1
EndChar

StartChar: I
Encoding: 73 73 63
Width: 662
GlyphClass: 2
Flags: W
LayerCount: 2
Fore
SplineSet
67 0 m 1,0,-1
 67 141 l 1,1,-1
 221 141 l 1,2,-1
 221 1075 l 1,3,-1
 67 1075 l 1,4,-1
 67 1215 l 1,5,-1
 594 1215 l 1,6,-1
 594 1075 l 1,7,-1
 440 1075 l 1,8,-1
 440 141 l 1,9,-1
 594 141 l 1,10,-1
 594 0 l 1,11,-1
 67 0 l 1,0,-1
EndSplineSet
Validated: 1
EndChar

StartChar: J
Encoding: 74 74 64
Width: 645
GlyphClass: 2
Flags: W
LayerCount: 2
Fore
SplineSet
-25 -83 m 1,0,-1
 100 -83 l 2,1,2
 140 -83 140 -83 165 -70 c 128,-1,3
 190 -57 190 -57 204 -35 c 128,-1,4
 218 -13 218 -13 222.5 16.5 c 128,-1,5
 227 46 227 46 227 80 c 2,6,-1
 227 1075 l 1,7,-1
 58 1075 l 1,8,-1
 58 1215 l 1,9,-1
 608 1215 l 1,10,-1
 608 1075 l 1,11,-1
 446 1075 l 1,12,-1
 446 88 l 2,13,14
 446 10 446 10 430.5 -53.5 c 128,-1,15
 415 -117 415 -117 380 -162 c 128,-1,16
 345 -207 345 -207 287.5 -231.5 c 128,-1,17
 230 -256 230 -256 146 -256 c 2,18,-1
 -25 -256 l 1,19,-1
 -25 -83 l 1,0,-1
EndSplineSet
Validated: 1
EndChar

StartChar: K
Encoding: 75 75 65
Width: 1267
GlyphClass: 2
Flags: W
LayerCount: 2
Fore
SplineSet
1217 0 m 1,0,-1
 673 0 l 1,1,-1
 673 141 l 1,2,-1
 797 141 l 1,3,-1
 422 601 l 1,4,-1
 422 141 l 1,5,-1
 565 141 l 1,6,-1
 565 0 l 1,7,-1
 62 0 l 1,8,-1
 62 141 l 1,9,-1
 203 141 l 1,10,-1
 203 1075 l 1,11,-1
 62 1075 l 1,12,-1
 62 1215 l 1,13,-1
 576 1215 l 1,14,-1
 576 1075 l 1,15,-1
 421 1075 l 1,16,-1
 421 650 l 1,17,-1
 819 1075 l 1,18,-1
 699 1075 l 1,19,-1
 699 1215 l 1,20,-1
 1199 1215 l 1,21,-1
 1199 1075 l 1,22,-1
 1077 1075 l 1,23,-1
 661 634 l 1,24,-1
 1066 141 l 1,25,-1
 1217 141 l 1,26,-1
 1217 0 l 1,0,-1
EndSplineSet
Validated: 1
EndChar

StartChar: L
Encoding: 76 76 66
Width: 1076
GlyphClass: 2
Flags: W
LayerCount: 2
Fore
SplineSet
58 0 m 1,0,-1
 58 141 l 1,1,-1
 227 141 l 1,2,-1
 227 1075 l 1,3,-1
 58 1075 l 1,4,-1
 58 1215 l 1,5,-1
 612 1215 l 1,6,-1
 612 1075 l 1,7,-1
 445 1075 l 1,8,-1
 445 141 l 1,9,-1
 854 141 l 1,10,-1
 854 506 l 1,11,-1
 1034 506 l 1,12,-1
 1034 0 l 1,13,-1
 58 0 l 1,0,-1
EndSplineSet
Validated: 1
EndChar

StartChar: M
Encoding: 77 77 67
Width: 1729
GlyphClass: 2
Flags: W
LayerCount: 2
Fore
SplineSet
219 1075 m 1,0,-1
 62 1075 l 1,1,-1
 62 1215 l 1,2,-1
 533 1215 l 1,3,-1
 858 379 l 1,4,-1
 1190 1215 l 1,5,-1
 1667 1215 l 1,6,-1
 1667 1075 l 1,7,-1
 1511 1075 l 1,8,-1
 1511 141 l 1,9,-1
 1668 141 l 1,10,-1
 1668 0 l 1,11,-1
 1159 0 l 1,12,-1
 1159 141 l 1,13,-1
 1306 141 l 1,14,-1
 1306 1061 l 1,15,-1
 878 0 l 1,16,-1
 803 0 l 1,17,-1
 377 1060 l 1,18,-1
 377 141 l 1,19,-1
 524 141 l 1,20,-1
 524 0 l 1,21,-1
 62 0 l 1,22,-1
 62 141 l 1,23,-1
 219 141 l 1,24,-1
 219 1075 l 1,0,-1
EndSplineSet
Validated: 1
EndChar

StartChar: N
Encoding: 78 78 68
Width: 1406
GlyphClass: 2
Flags: W
LayerCount: 2
Fore
SplineSet
1032 1075 m 1,0,-1
 863 1075 l 1,1,-1
 863 1215 l 1,2,-1
 1374 1215 l 1,3,-1
 1374 1075 l 1,4,-1
 1196 1075 l 1,5,-1
 1196 0 l 1,6,-1
 980 0 l 1,7,-1
 389 1006 l 1,8,-1
 389 141 l 1,9,-1
 559 141 l 1,10,-1
 559 0 l 1,11,-1
 53 0 l 1,12,-1
 53 141 l 1,13,-1
 226 141 l 1,14,-1
 226 1075 l 1,15,-1
 53 1075 l 1,16,-1
 53 1215 l 1,17,-1
 489 1215 l 1,18,-1
 1032 289 l 1,19,-1
 1032 1075 l 1,0,-1
EndSplineSet
Validated: 1
EndChar

StartChar: O
Encoding: 79 79 69
Width: 1439
GlyphClass: 2
Flags: W
LayerCount: 2
Fore
SplineSet
720 1075 m 0,0,1
 633 1075 633 1075 558.5 1040.5 c 128,-1,2
 484 1006 484 1006 429.5 944 c 128,-1,3
 375 882 375 882 344 795.5 c 128,-1,4
 313 709 313 709 313 605 c 0,5,6
 313 508 313 508 342 423.5 c 128,-1,7
 371 339 371 339 424.5 276 c 128,-1,8
 478 213 478 213 552.5 177 c 128,-1,9
 627 141 627 141 719 141 c 0,10,11
 808 141 808 141 883 175.5 c 128,-1,12
 958 210 958 210 1012 272 c 128,-1,13
 1066 334 1066 334 1096.5 419 c 128,-1,14
 1127 504 1127 504 1127 606 c 0,15,16
 1127 706 1127 706 1097.5 792 c 128,-1,17
 1068 878 1068 878 1014.5 941 c 128,-1,18
 961 1004 961 1004 886 1039.5 c 128,-1,19
 811 1075 811 1075 720 1075 c 0,0,1
719 1233 m 0,20,21
 873 1233 873 1233 993 1183.5 c 128,-1,22
 1113 1134 1113 1134 1196 1048.5 c 128,-1,23
 1279 963 1279 963 1322.5 849 c 128,-1,24
 1366 735 1366 735 1366 606 c 0,25,26
 1366 479 1366 479 1322.5 365.5 c 128,-1,27
 1279 252 1279 252 1196.5 166.5 c 128,-1,28
 1114 81 1114 81 994 31 c 128,-1,29
 874 -19 874 -19 720 -19 c 0,30,31
 565 -19 565 -19 445.5 30.5 c 128,-1,32
 326 80 326 80 243.5 165.5 c 128,-1,33
 161 251 161 251 118.5 365 c 128,-1,34
 76 479 76 479 76 607 c 0,35,36
 76 736 76 736 119 850 c 128,-1,37
 162 964 162 964 244.5 1049 c 128,-1,38
 327 1134 327 1134 446.5 1183.5 c 128,-1,39
 566 1233 566 1233 719 1233 c 0,20,21
EndSplineSet
Validated: 1
EndChar

StartChar: P
Encoding: 80 80 70
Width: 1124
GlyphClass: 2
Flags: W
LayerCount: 2
Fore
SplineSet
57 141 m 1,0,-1
 220 141 l 1,1,-1
 220 1075 l 1,2,-1
 62 1075 l 1,3,-1
 62 1215 l 1,4,-1
 606 1215 l 2,5,6
 840 1215 840 1215 962.5 1119.5 c 128,-1,7
 1085 1024 1085 1024 1085 843 c 0,8,9
 1085 738 1085 738 1048 667.5 c 128,-1,10
 1011 597 1011 597 945 554.5 c 128,-1,11
 879 512 879 512 787 494 c 128,-1,12
 695 476 695 476 586 476 c 2,13,-1
 439 476 l 1,14,-1
 439 141 l 1,15,-1
 606 141 l 1,16,-1
 606 0 l 1,17,-1
 57 0 l 1,18,-1
 57 141 l 1,0,-1
439 616 m 1,19,-1
 577 616 l 2,20,21
 657 616 657 616 711 632 c 128,-1,22
 765 648 765 648 797.5 677 c 128,-1,23
 830 706 830 706 844 748 c 128,-1,24
 858 790 858 790 858 843 c 0,25,26
 858 951 858 951 799 1013 c 128,-1,27
 740 1075 740 1075 634 1075 c 2,28,-1
 439 1075 l 1,29,-1
 439 616 l 1,19,-1
EndSplineSet
Validated: 1
EndChar

StartChar: Q
Encoding: 81 81 71
Width: 1441
GlyphClass: 2
Flags: W
LayerCount: 2
Fore
SplineSet
1166 -254 m 1,0,1
 1137 -261 1137 -261 1104 -261 c 0,2,3
 1040 -261 1040 -261 981.5 -245 c 128,-1,4
 923 -229 923 -229 866 -209.5 c 128,-1,5
 809 -190 809 -190 751.5 -173.5 c 128,-1,6
 694 -157 694 -157 631 -157 c 0,7,8
 566 -157 566 -157 506.5 -174 c 128,-1,9
 447 -191 447 -191 389 -230 c 1,10,-1
 335 -75 l 1,11,12
 392 -37 392 -37 444.5 -19 c 128,-1,13
 497 -1 497 -1 554 7 c 1,14,15
 443 32 443 32 354 87 c 128,-1,16
 265 142 265 142 203.5 220.5 c 128,-1,17
 142 299 142 299 109 397 c 128,-1,18
 76 495 76 495 76 605 c 0,19,20
 76 731 76 731 118 845 c 128,-1,21
 160 959 160 959 241.5 1045.5 c 128,-1,22
 323 1132 323 1132 443 1182.5 c 128,-1,23
 563 1233 563 1233 719 1233 c 0,24,25
 874 1233 874 1233 994.5 1183 c 128,-1,26
 1115 1133 1115 1133 1197.5 1047.5 c 128,-1,27
 1280 962 1280 962 1323 848 c 128,-1,28
 1366 734 1366 734 1366 605 c 0,29,30
 1366 482 1366 482 1324.5 375.5 c 128,-1,31
 1283 269 1283 269 1208 188 c 128,-1,32
 1133 107 1133 107 1028 56 c 128,-1,33
 923 5 923 5 796 -7 c 1,34,35
 833 -21 833 -21 873 -34 c 128,-1,36
 913 -47 913 -47 954 -58 c 128,-1,37
 995 -69 995 -69 1036.5 -75.5 c 128,-1,38
 1078 -82 1078 -82 1119 -82 c 0,39,40
 1141 -82 1141 -82 1162 -80 c 128,-1,41
 1183 -78 1183 -78 1205 -73 c 1,42,-1
 1166 -254 l 1,0,1
719 1075 m 0,43,44
 632 1075 632 1075 558 1040.5 c 128,-1,45
 484 1006 484 1006 429.5 944 c 128,-1,46
 375 882 375 882 344.5 795.5 c 128,-1,47
 314 709 314 709 314 605 c 0,48,49
 314 506 314 506 343 421.5 c 128,-1,50
 372 337 372 337 425.5 274.5 c 128,-1,51
 479 212 479 212 553.5 176.5 c 128,-1,52
 628 141 628 141 720 141 c 0,53,54
 809 141 809 141 884 175 c 128,-1,55
 959 209 959 209 1013 270.5 c 128,-1,56
 1067 332 1067 332 1097.5 417.5 c 128,-1,57
 1128 503 1128 503 1128 607 c 0,58,59
 1128 707 1128 707 1098.5 792.5 c 128,-1,60
 1069 878 1069 878 1015.5 941 c 128,-1,61
 962 1004 962 1004 886.5 1039.5 c 128,-1,62
 811 1075 811 1075 719 1075 c 0,43,44
EndSplineSet
Validated: 1
EndChar

StartChar: R
Encoding: 82 82 72
Width: 1220
GlyphClass: 2
Flags: W
LayerCount: 2
Fore
SplineSet
443 702 m 1,0,-1
 642 702 l 2,1,2
 705 702 705 702 746.5 719 c 128,-1,3
 788 736 788 736 813 763 c 128,-1,4
 838 790 838 790 848 824 c 128,-1,5
 858 858 858 858 858 893 c 0,6,7
 858 930 858 930 845 963 c 128,-1,8
 832 996 832 996 806.5 1021 c 128,-1,9
 781 1046 781 1046 743.5 1060.5 c 128,-1,10
 706 1075 706 1075 656 1075 c 2,11,-1
 443 1075 l 1,12,-1
 443 702 l 1,0,-1
1222 141 m 1,13,-1
 1222 0 l 1,14,-1
 898 0 l 1,15,-1
 603 557 l 1,16,-1
 443 557 l 1,17,-1
 443 141 l 1,18,-1
 603 141 l 1,19,-1
 603 0 l 1,20,-1
 55 0 l 1,21,-1
 55 141 l 1,22,-1
 225 141 l 1,23,-1
 225 1075 l 1,24,-1
 55 1075 l 1,25,-1
 55 1215 l 1,26,-1
 654 1215 l 2,27,28
 746 1215 746 1215 823.5 1197 c 128,-1,29
 901 1179 901 1179 957.5 1140.5 c 128,-1,30
 1014 1102 1014 1102 1045.5 1041.5 c 128,-1,31
 1077 981 1077 981 1077 896 c 0,32,33
 1077 774 1077 774 1012 695 c 128,-1,34
 947 616 947 616 809 581 c 1,35,-1
 1051 141 l 1,36,-1
 1222 141 l 1,13,-1
EndSplineSet
Validated: 1
EndChar

StartChar: S
Encoding: 83 83 73
Width: 1008
GlyphClass: 2
Flags: W
LayerCount: 2
Fore
SplineSet
551 -19 m 0,0,1
 385 -19 385 -19 266 89 c 1,2,-1
 265 0 l 1,3,-1
 94 0 l 1,4,-1
 94 407 l 1,5,-1
 265 407 l 1,6,-1
 265 297 l 1,7,8
 313 220 313 220 374 180.5 c 128,-1,9
 435 141 435 141 522 141 c 0,10,11
 569 141 569 141 607.5 154.5 c 128,-1,12
 646 168 646 168 673.5 192 c 128,-1,13
 701 216 701 216 716 249 c 128,-1,14
 731 282 731 282 731 321 c 0,15,16
 731 373 731 373 707 408 c 128,-1,17
 683 443 683 443 642 468 c 128,-1,18
 601 493 601 493 545 512 c 128,-1,19
 489 531 489 531 425 550 c 0,20,21
 358 570 358 570 296.5 596 c 128,-1,22
 235 622 235 622 188.5 662.5 c 128,-1,23
 142 703 142 703 114 761 c 128,-1,24
 86 819 86 819 86 902 c 0,25,26
 86 984 86 984 114.5 1046 c 128,-1,27
 143 1108 143 1108 193.5 1149.5 c 128,-1,28
 244 1191 244 1191 312.5 1212 c 128,-1,29
 381 1233 381 1233 462 1233 c 0,30,31
 533 1233 533 1233 596 1209 c 128,-1,32
 659 1185 659 1185 709 1138 c 1,33,-1
 709 1215 l 1,34,-1
 878 1215 l 1,35,-1
 878 864 l 1,36,-1
 709 864 l 1,37,-1
 709 961 l 1,38,39
 664 1018 664 1018 609.5 1046 c 128,-1,40
 555 1074 555 1074 483 1074 c 0,41,42
 435 1074 435 1074 398 1062 c 128,-1,43
 361 1050 361 1050 335 1030 c 128,-1,44
 309 1010 309 1010 295.5 982.5 c 128,-1,45
 282 955 282 955 282 924 c 0,46,47
 282 871 282 871 310.5 837 c 128,-1,48
 339 803 339 803 385 778.5 c 128,-1,49
 431 754 431 754 490.5 735.5 c 128,-1,50
 550 717 550 717 611.5 696 c 128,-1,51
 673 675 673 675 732.5 648 c 128,-1,52
 792 621 792 621 838 579.5 c 128,-1,53
 884 538 884 538 912.5 478 c 128,-1,54
 941 418 941 418 941 332 c 0,55,56
 941 249 941 249 909.5 184 c 128,-1,57
 878 119 878 119 824.5 74 c 128,-1,58
 771 29 771 29 700 5 c 128,-1,59
 629 -19 629 -19 551 -19 c 0,0,1
EndSplineSet
Validated: 1
EndChar

StartChar: T
Encoding: 84 84 74
Width: 1132
GlyphClass: 2
Flags: W
LayerCount: 2
Fore
SplineSet
1085 1215 m 1,0,-1
 1085 804 l 1,1,-1
 925 804 l 1,2,-1
 925 1075 l 1,3,-1
 677 1075 l 1,4,-1
 677 141 l 1,5,-1
 853 141 l 1,6,-1
 853 0 l 1,7,-1
 280 0 l 1,8,-1
 280 141 l 1,9,-1
 458 141 l 1,10,-1
 458 1075 l 1,11,-1
 207 1075 l 1,12,-1
 207 804 l 1,13,-1
 47 804 l 1,14,-1
 47 1215 l 1,15,-1
 1085 1215 l 1,0,-1
EndSplineSet
Validated: 1
EndChar

StartChar: U
Encoding: 85 85 75
Width: 1265
GlyphClass: 2
Flags: W
LayerCount: 2
Fore
SplineSet
639 -19 m 0,0,1
 501 -19 501 -19 413 16 c 128,-1,2
 325 51 325 51 274 113 c 128,-1,3
 223 175 223 175 204 258.5 c 128,-1,4
 185 342 185 342 185 440 c 2,5,-1
 185 1075 l 1,6,-1
 33 1075 l 1,7,-1
 33 1215 l 1,8,-1
 541 1215 l 1,9,-1
 541 1075 l 1,10,-1
 403 1075 l 1,11,-1
 403 406 l 2,12,13
 403 343 403 343 416.5 293.5 c 128,-1,14
 430 244 430 244 459 210.5 c 128,-1,15
 488 177 488 177 534 159 c 128,-1,16
 580 141 580 141 645 141 c 0,17,18
 713 141 713 141 760.5 158.5 c 128,-1,19
 808 176 808 176 837.5 210.5 c 128,-1,20
 867 245 867 245 880.5 295.5 c 128,-1,21
 894 346 894 346 894 411 c 2,22,-1
 894 1075 l 1,23,-1
 758 1075 l 1,24,-1
 758 1215 l 1,25,-1
 1231 1215 l 1,26,-1
 1231 1075 l 1,27,-1
 1077 1075 l 1,28,-1
 1077 420 l 2,29,30
 1077 304 1077 304 1046.5 221 c 128,-1,31
 1016 138 1016 138 959 84.5 c 128,-1,32
 902 31 902 31 821 6 c 128,-1,33
 740 -19 740 -19 639 -19 c 0,0,1
EndSplineSet
Validated: 1
EndChar

StartChar: V
Encoding: 86 86 76
Width: 1274
GlyphClass: 2
Flags: W
LayerCount: 2
Fore
SplineSet
135 1075 m 1,0,-1
 -15 1075 l 1,1,-1
 -15 1215 l 1,2,-1
 506 1215 l 1,3,-1
 506 1075 l 1,4,-1
 360 1075 l 1,5,-1
 656 236 l 1,6,-1
 948 1075 l 1,7,-1
 804 1075 l 1,8,-1
 804 1215 l 1,9,-1
 1286 1215 l 1,10,-1
 1286 1075 l 1,11,-1
 1136 1075 l 1,12,-1
 734 0 l 1,13,-1
 546 0 l 1,14,-1
 135 1075 l 1,0,-1
EndSplineSet
Validated: 1
EndChar

StartChar: W
Encoding: 87 87 77
Width: 1837
GlyphClass: 2
Flags: W
LayerCount: 2
Fore
SplineSet
1527 1075 m 1,0,-1
 1383 1075 l 1,1,-1
 1383 1215 l 1,2,-1
 1845 1215 l 1,3,-1
 1845 1075 l 1,4,-1
 1702 1075 l 1,5,-1
 1371 0 l 1,6,-1
 1187 0 l 1,7,-1
 917 879 l 1,8,-1
 651 0 l 1,9,-1
 470 0 l 1,10,-1
 131 1075 l 1,11,-1
 -14 1075 l 1,12,-1
 -14 1215 l 1,13,-1
 480 1215 l 1,14,-1
 480 1075 l 1,15,-1
 337 1075 l 1,16,-1
 575 282 l 1,17,-1
 807 1075 l 1,18,-1
 677 1075 l 1,19,-1
 677 1215 l 1,20,-1
 1181 1215 l 1,21,-1
 1181 1075 l 1,22,-1
 1054 1075 l 1,23,-1
 1291 282 l 1,24,-1
 1527 1075 l 1,0,-1
EndSplineSet
Validated: 1
EndChar

StartChar: X
Encoding: 88 88 78
Width: 1251
GlyphClass: 2
Flags: W
LayerCount: 2
Fore
SplineSet
12 0 m 1,0,-1
 12 141 l 1,1,-1
 182 141 l 1,2,-1
 506 615 l 1,3,-1
 187 1075 l 1,4,-1
 25 1075 l 1,5,-1
 25 1215 l 1,6,-1
 557 1215 l 1,7,-1
 557 1075 l 1,8,-1
 423 1075 l 1,9,-1
 641 747 l 1,10,-1
 858 1075 l 1,11,-1
 722 1075 l 1,12,-1
 722 1215 l 1,13,-1
 1213 1215 l 1,14,-1
 1213 1075 l 1,15,-1
 1051 1075 l 1,16,-1
 739 625 l 1,17,-1
 1077 141 l 1,18,-1
 1246 141 l 1,19,-1
 1246 0 l 1,20,-1
 698 0 l 1,21,-1
 698 141 l 1,22,-1
 838 141 l 1,23,-1
 607 492 l 1,24,-1
 377 141 l 1,25,-1
 519 141 l 1,26,-1
 519 0 l 1,27,-1
 12 0 l 1,0,-1
EndSplineSet
Validated: 1
EndChar

StartChar: Y
Encoding: 89 89 79
Width: 1216
GlyphClass: 2
Flags: W
LayerCount: 2
Fore
SplineSet
335 0 m 1,0,-1
 335 141 l 1,1,-1
 502 141 l 1,2,-1
 502 549 l 1,3,-1
 138 1075 l 1,4,-1
 -14 1075 l 1,5,-1
 -14 1215 l 1,6,-1
 517 1215 l 1,7,-1
 517 1075 l 1,8,-1
 374 1075 l 1,9,-1
 632 686 l 1,10,-1
 875 1075 l 1,11,-1
 733 1075 l 1,12,-1
 733 1215 l 1,13,-1
 1227 1215 l 1,14,-1
 1227 1075 l 1,15,-1
 1068 1075 l 1,16,-1
 720 550 l 1,17,-1
 720 141 l 1,18,-1
 891 141 l 1,19,-1
 891 0 l 1,20,-1
 335 0 l 1,0,-1
EndSplineSet
Validated: 1
EndChar

StartChar: Z
Encoding: 90 90 80
Width: 1098
GlyphClass: 2
Flags: W
LayerCount: 2
Fore
SplineSet
73 0 m 1,0,-1
 73 151 l 1,1,-1
 737 1075 l 1,2,-1
 264 1075 l 1,3,-1
 264 855 l 1,4,-1
 105 855 l 1,5,-1
 105 1215 l 1,6,-1
 1006 1215 l 1,7,-1
 1006 1081 l 1,8,-1
 333 141 l 1,9,-1
 858 141 l 1,10,-1
 858 375 l 1,11,-1
 1016 375 l 1,12,-1
 1016 0 l 1,13,-1
 73 0 l 1,0,-1
EndSplineSet
Validated: 1
EndChar

StartChar: bracketleft
Encoding: 91 91 81
Width: 655
GlyphClass: 2
Flags: W
LayerCount: 2
Fore
SplineSet
176 -95 m 1,0,-1
 176 1268 l 1,1,-1
 584 1268 l 1,2,-1
 584 1119 l 1,3,-1
 389 1119 l 1,4,-1
 389 54 l 1,5,-1
 584 54 l 1,6,-1
 584 -95 l 1,7,-1
 176 -95 l 1,0,-1
EndSplineSet
Validated: 1
EndChar

StartChar: backslash
Encoding: 92 92 82
Width: 865
GlyphClass: 2
Flags: W
LayerCount: 2
Fore
SplineSet
239 1224 m 1,0,-1
 803 -19 l 1,1,-1
 632 -19 l 1,2,-1
 68 1224 l 1,3,-1
 239 1224 l 1,0,-1
EndSplineSet
Validated: 1
EndChar

StartChar: bracketright
Encoding: 93 93 83
Width: 655
GlyphClass: 2
Flags: W
LayerCount: 2
Fore
SplineSet
483 1268 m 1,0,-1
 483 -95 l 1,1,-1
 74 -95 l 1,2,-1
 74 54 l 1,3,-1
 270 54 l 1,4,-1
 270 1119 l 1,5,-1
 74 1119 l 1,6,-1
 74 1268 l 1,7,-1
 483 1268 l 1,0,-1
EndSplineSet
Validated: 1
EndChar

StartChar: asciicircum
Encoding: 94 94 84
Width: 953
GlyphClass: 2
Flags: W
LayerCount: 2
Fore
SplineSet
879 590 m 1,0,-1
 698 590 l 1,1,-1
 491 1075 l 1,2,-1
 282 590 l 1,3,-1
 101 590 l 1,4,-1
 404 1233 l 1,5,-1
 578 1233 l 1,6,-1
 879 590 l 1,0,-1
EndSplineSet
Validated: 1
EndChar

StartChar: underscore
Encoding: 95 95 85
Width: 940
GlyphClass: 2
Flags: W
LayerCount: 2
Fore
SplineSet
941 -31 m 1,0,-1
 941 -137 l 1,1,-1
 0 -137 l 1,2,-1
 0 -31 l 1,3,-1
 941 -31 l 1,0,-1
EndSplineSet
Validated: 1
EndChar

StartChar: grave
Encoding: 96 96 86
Width: 579
GlyphClass: 2
Flags: W
LayerCount: 2
Fore
SplineSet
300 960 m 1,0,-1
 84 1266 l 1,1,-1
 342 1266 l 1,2,-1
 465 960 l 1,3,-1
 300 960 l 1,0,-1
EndSplineSet
Validated: 1
EndChar

StartChar: a
Encoding: 97 97 87
Width: 977
GlyphClass: 2
Flags: W
LayerCount: 2
Fore
SplineSet
353 -19 m 0,0,1
 287 -19 287 -19 233 1.5 c 128,-1,2
 179 22 179 22 141.5 57 c 128,-1,3
 104 92 104 92 83.5 137.5 c 128,-1,4
 63 183 63 183 63 233 c 0,5,6
 63 308 63 308 91 360 c 128,-1,7
 119 412 119 412 169 444.5 c 128,-1,8
 219 477 219 477 286.5 491.5 c 128,-1,9
 354 506 354 506 434 506 c 0,10,11
 482 506 482 506 528.5 500.5 c 128,-1,12
 575 495 575 495 626 485 c 1,13,-1
 626 571 l 2,14,15
 626 612 626 612 612 642 c 128,-1,16
 598 672 598 672 573.5 691.5 c 128,-1,17
 549 711 549 711 515.5 720.5 c 128,-1,18
 482 730 482 730 443 730 c 0,19,20
 361 730 361 730 305.5 706 c 128,-1,21
 250 682 250 682 204 636 c 1,22,-1
 103 748 l 1,23,24
 163 807 163 807 253 836.5 c 128,-1,25
 343 866 343 866 461 866 c 0,26,27
 562 866 562 866 631 844 c 128,-1,28
 700 822 700 822 742.5 783 c 128,-1,29
 785 744 785 744 803.5 690.5 c 128,-1,30
 822 637 822 637 822 574 c 2,31,-1
 822 141 l 1,32,-1
 969 141 l 1,33,-1
 969 0 l 1,34,-1
 644 0 l 1,35,-1
 635 88 l 1,36,37
 596 58 596 58 561 37.5 c 128,-1,38
 526 17 526 17 492.5 4.5 c 128,-1,39
 459 -8 459 -8 424.5 -13.5 c 128,-1,40
 390 -19 390 -19 353 -19 c 0,0,1
626 368 m 1,41,42
 588 371 588 371 541.5 378 c 128,-1,43
 495 385 495 385 446 385 c 0,44,45
 407 385 407 385 371.5 378.5 c 128,-1,46
 336 372 336 372 309 355.5 c 128,-1,47
 282 339 282 339 266 311 c 128,-1,48
 250 283 250 283 250 239 c 0,49,50
 250 212 250 212 260 189 c 128,-1,51
 270 166 270 166 288.5 148.5 c 128,-1,52
 307 131 307 131 334 121 c 128,-1,53
 361 111 361 111 395 111 c 0,54,55
 455 111 455 111 515 133 c 128,-1,56
 575 155 575 155 626 197 c 1,57,-1
 626 368 l 1,41,42
EndSplineSet
Validated: 1
EndChar

StartChar: b
Encoding: 98 98 88
Width: 1131
GlyphClass: 2
Flags: W
LayerCount: 2
Fore
SplineSet
373 1215 m 1,0,-1
 373 750 l 1,1,2
 437 810 437 810 505.5 838 c 128,-1,3
 574 866 574 866 663 866 c 0,4,5
 755 866 755 866 829.5 832.5 c 128,-1,6
 904 799 904 799 957 741 c 128,-1,7
 1010 683 1010 683 1038.5 603.5 c 128,-1,8
 1067 524 1067 524 1067 433 c 0,9,10
 1067 330 1067 330 1036 246.5 c 128,-1,11
 1005 163 1005 163 950 104 c 128,-1,12
 895 45 895 45 821 13 c 128,-1,13
 747 -19 747 -19 662 -19 c 0,14,15
 621 -19 621 -19 579.5 -11 c 128,-1,16
 538 -3 538 -3 500 12.5 c 128,-1,17
 462 28 462 28 429 51 c 128,-1,18
 396 74 396 74 372 104 c 1,19,-1
 371 0 l 1,20,-1
 31 0 l 1,21,-1
 31 141 l 1,22,-1
 174 141 l 1,23,-1
 174 1075 l 1,24,-1
 27 1075 l 1,25,-1
 27 1215 l 1,26,-1
 373 1215 l 1,0,-1
860 419 m 0,27,28
 860 482 860 482 842.5 535 c 128,-1,29
 825 588 825 588 792.5 627 c 128,-1,30
 760 666 760 666 713 688 c 128,-1,31
 666 710 666 710 606 710 c 0,32,33
 559 710 559 710 519.5 694.5 c 128,-1,34
 480 679 480 679 450 658.5 c 128,-1,35
 420 638 420 638 400 617.5 c 128,-1,36
 380 597 380 597 373 587 c 1,37,-1
 373 253 l 1,38,39
 381 244 381 244 401.5 224.5 c 128,-1,40
 422 205 422 205 452.5 185.5 c 128,-1,41
 483 166 483 166 522 151.5 c 128,-1,42
 561 137 561 137 608 137 c 0,43,44
 668 137 668 137 714.5 157.5 c 128,-1,45
 761 178 761 178 793.5 215.5 c 128,-1,46
 826 253 826 253 843 305 c 128,-1,47
 860 357 860 357 860 419 c 0,27,28
EndSplineSet
Validated: 1
EndChar

StartChar: c
Encoding: 99 99 89
Width: 969
GlyphClass: 2
Flags: W
LayerCount: 2
Fore
SplineSet
887 535 m 1,0,-1
 730 535 l 1,1,2
 720 573 720 573 702.5 605.5 c 128,-1,3
 685 638 685 638 658.5 661.5 c 128,-1,4
 632 685 632 685 596 698 c 128,-1,5
 560 711 560 711 513 711 c 0,6,7
 454 711 454 711 407.5 691 c 128,-1,8
 361 671 361 671 329.5 634 c 128,-1,9
 298 597 298 597 281.5 544.5 c 128,-1,10
 265 492 265 492 265 428 c 0,11,12
 265 362 265 362 281.5 308 c 128,-1,13
 298 254 298 254 329.5 216 c 128,-1,14
 361 178 361 178 407.5 157.5 c 128,-1,15
 454 137 454 137 513 137 c 0,16,17
 591 137 591 137 659.5 171.5 c 128,-1,18
 728 206 728 206 771 274 c 1,19,-1
 904 189 l 1,20,21
 844 86 844 86 746.5 33.5 c 128,-1,22
 649 -19 649 -19 510 -19 c 0,23,24
 396 -19 396 -19 311 19 c 128,-1,25
 226 57 226 57 170 119 c 128,-1,26
 114 181 114 181 86.5 260.5 c 128,-1,27
 59 340 59 340 59 423 c 0,28,29
 59 516 59 516 90.5 597 c 128,-1,30
 122 678 122 678 179 738 c 128,-1,31
 236 798 236 798 315 832 c 128,-1,32
 394 866 394 866 489 866 c 0,33,34
 528 866 528 866 563 858 c 128,-1,35
 598 850 598 850 628 836.5 c 128,-1,36
 658 823 658 823 682.5 805.5 c 128,-1,37
 707 788 707 788 725 769 c 1,38,-1
 724 849 l 1,39,-1
 887 849 l 1,40,-1
 887 535 l 1,0,-1
EndSplineSet
Validated: 1
EndChar

StartChar: d
Encoding: 100 100 90
Width: 1131
GlyphClass: 2
Flags: W
LayerCount: 2
Fore
SplineSet
601 1215 m 1,0,-1
 956 1215 l 1,1,-1
 956 141 l 1,2,-1
 1102 141 l 1,3,-1
 1102 0 l 1,4,-1
 757 0 l 1,5,-1
 757 98 l 1,6,7
 700 37 700 37 626.5 9 c 128,-1,8
 553 -19 553 -19 471 -19 c 0,9,10
 391 -19 391 -19 318 10 c 128,-1,11
 245 39 245 39 189 95.5 c 128,-1,12
 133 152 133 152 99.5 235.5 c 128,-1,13
 66 319 66 319 66 428 c 0,14,15
 66 519 66 519 95 599 c 128,-1,16
 124 679 124 679 177 738.5 c 128,-1,17
 230 798 230 798 305 832 c 128,-1,18
 380 866 380 866 472 866 c 0,19,20
 559 866 559 866 627.5 838 c 128,-1,21
 696 810 696 810 759 753 c 1,22,-1
 759 1075 l 1,23,-1
 601 1075 l 1,24,-1
 601 1215 l 1,0,-1
271 419 m 0,25,26
 271 358 271 358 288 306 c 128,-1,27
 305 254 305 254 337 216.5 c 128,-1,28
 369 179 369 179 416 158 c 128,-1,29
 463 137 463 137 523 137 c 0,30,31
 569 137 569 137 608.5 151.5 c 128,-1,32
 648 166 648 166 678 184.5 c 128,-1,33
 708 203 708 203 728.5 222 c 128,-1,34
 749 241 749 241 758 250 c 1,35,-1
 758 588 l 1,36,37
 749 597 749 597 728.5 617.5 c 128,-1,38
 708 638 708 638 677.5 659 c 128,-1,39
 647 680 647 680 607 695.5 c 128,-1,40
 567 711 567 711 521 711 c 0,41,42
 461 711 461 711 414.5 689 c 128,-1,43
 368 667 368 667 336 628 c 128,-1,44
 304 589 304 589 287.5 535.5 c 128,-1,45
 271 482 271 482 271 419 c 0,25,26
EndSplineSet
Validated: 1
EndChar

StartChar: e
Encoding: 101 101 91
Width: 1017
GlyphClass: 2
Flags: W
LayerCount: 2
Fore
SplineSet
918 137 m 1,0,1
 861 63 861 63 764 22 c 128,-1,2
 667 -19 667 -19 536 -19 c 0,3,4
 426 -19 426 -19 338 14.5 c 128,-1,5
 250 48 250 48 188.5 106.5 c 128,-1,6
 127 165 127 165 94 245.5 c 128,-1,7
 61 326 61 326 61 420 c 0,8,9
 61 517 61 517 96 599 c 128,-1,10
 131 681 131 681 193.5 740.5 c 128,-1,11
 256 800 256 800 341 833 c 128,-1,12
 426 866 426 866 527 866 c 0,13,14
 633 866 633 866 713 829 c 128,-1,15
 793 792 793 792 846.5 726.5 c 128,-1,16
 900 661 900 661 927 573 c 128,-1,17
 954 485 954 485 954 383 c 1,18,-1
 268 383 l 1,19,20
 272 329 272 329 290.5 283 c 128,-1,21
 309 237 309 237 343.5 203.5 c 128,-1,22
 378 170 378 170 428.5 151 c 128,-1,23
 479 132 479 132 545 132 c 0,24,25
 616 132 616 132 686.5 160 c 128,-1,26
 757 188 757 188 810 241 c 1,27,-1
 918 137 l 1,0,1
763 501 m 1,28,29
 756 549 756 549 737.5 589 c 128,-1,30
 719 629 719 629 689.5 658.5 c 128,-1,31
 660 688 660 688 619 704.5 c 128,-1,32
 578 721 578 721 526 721 c 0,33,34
 413 721 413 721 350.5 661 c 128,-1,35
 288 601 288 601 271 501 c 1,36,-1
 763 501 l 1,28,29
EndSplineSet
Validated: 1
EndChar

StartChar: f
Encoding: 102 102 92
Width: 605
GlyphClass: 2
Flags: W
LayerCount: 2
Fore
SplineSet
63 141 m 1,0,-1
 189 141 l 1,1,-1
 189 709 l 1,2,-1
 59 709 l 1,3,-1
 59 849 l 1,4,-1
 189 849 l 1,5,-1
 189 951 l 2,6,7
 189 1014 189 1014 203.5 1066 c 128,-1,8
 218 1118 218 1118 250.5 1155 c 128,-1,9
 283 1192 283 1192 334 1212.5 c 128,-1,10
 385 1233 385 1233 459 1233 c 0,11,12
 503 1233 503 1233 545 1223.5 c 128,-1,13
 587 1214 587 1214 619.5 1188.5 c 128,-1,14
 652 1163 652 1163 671.5 1119.5 c 128,-1,15
 691 1076 691 1076 691 1009 c 1,16,-1
 536 1009 l 1,17,18
 536 1057 536 1057 514 1076.5 c 128,-1,19
 492 1096 492 1096 466 1096 c 0,20,21
 422 1096 422 1096 404.5 1062 c 128,-1,22
 387 1028 387 1028 387 948 c 2,23,-1
 387 849 l 1,24,-1
 542 849 l 1,25,-1
 542 709 l 1,26,-1
 387 709 l 1,27,-1
 387 141 l 1,28,-1
 545 141 l 1,29,-1
 545 0 l 1,30,-1
 63 0 l 1,31,-1
 63 141 l 1,0,-1
EndSplineSet
Validated: 1
EndChar

StartChar: g
Encoding: 103 103 93
Width: 1127
GlyphClass: 2
Flags: W
LayerCount: 2
Fore
SplineSet
514 -348 m 0,0,1
 401 -348 401 -348 315.5 -324.5 c 128,-1,2
 230 -301 230 -301 166 -248 c 1,3,-1
 254 -131 l 1,4,5
 304 -169 304 -169 360.5 -190 c 128,-1,6
 417 -211 417 -211 497 -211 c 0,7,8
 549 -211 549 -211 595.5 -201.5 c 128,-1,9
 642 -192 642 -192 677 -171.5 c 128,-1,10
 712 -151 712 -151 732.5 -120 c 128,-1,11
 753 -89 753 -89 753 -46 c 2,12,-1
 753 89 l 1,13,14
 728 65 728 65 695 46.5 c 128,-1,15
 662 28 662 28 624.5 15 c 128,-1,16
 587 2 587 2 546 -5 c 128,-1,17
 505 -12 505 -12 465 -12 c 0,18,19
 379 -12 379 -12 305 19 c 128,-1,20
 231 50 231 50 176.5 107.5 c 128,-1,21
 122 165 122 165 91 245.5 c 128,-1,22
 60 326 60 326 60 425 c 0,23,24
 60 517 60 517 89 597.5 c 128,-1,25
 118 678 118 678 171 737.5 c 128,-1,26
 224 797 224 797 299.5 831.5 c 128,-1,27
 375 866 375 866 468 866 c 0,28,29
 552 866 552 866 620.5 838 c 128,-1,30
 689 810 689 810 752 750 c 1,31,-1
 752 849 l 1,32,-1
 1100 849 l 1,33,-1
 1100 709 l 1,34,-1
 950 709 l 1,35,-1
 950 -37 l 2,36,37
 950 -348 950 -348 514 -348 c 0,0,1
517 144 m 0,38,39
 563 144 563 144 602.5 158 c 128,-1,40
 642 172 642 172 672 190.5 c 128,-1,41
 702 209 702 209 722.5 227 c 128,-1,42
 743 245 743 245 752 253 c 1,43,-1
 752 590 l 1,44,45
 744 599 744 599 724 619 c 128,-1,46
 704 639 704 639 674 659.5 c 128,-1,47
 644 680 644 680 604.5 695.5 c 128,-1,48
 565 711 565 711 519 711 c 0,49,50
 459 711 459 711 411.5 689 c 128,-1,51
 364 667 364 667 331 628 c 128,-1,52
 298 589 298 589 281 535.5 c 128,-1,53
 264 482 264 482 264 419 c 0,54,55
 264 359 264 359 281 309 c 128,-1,56
 298 259 298 259 330.5 222 c 128,-1,57
 363 185 363 185 410 164.5 c 128,-1,58
 457 144 457 144 517 144 c 0,38,39
EndSplineSet
Validated: 1
EndChar

StartChar: h
Encoding: 104 104 94
Width: 1093
GlyphClass: 2
Flags: W
LayerCount: 2
Fore
SplineSet
31 141 m 1,0,-1
 182 141 l 1,1,-1
 182 1075 l 1,2,-1
 33 1075 l 1,3,-1
 33 1215 l 1,4,-1
 378 1215 l 1,5,-1
 378 769 l 1,6,7
 454 820 454 820 523.5 843 c 128,-1,8
 593 866 593 866 668 866 c 0,9,10
 799 866 799 866 865.5 794 c 128,-1,11
 932 722 932 722 932 591 c 2,12,-1
 932 141 l 1,13,-1
 1063 141 l 1,14,-1
 1063 0 l 1,15,-1
 643 0 l 1,16,-1
 643 141 l 1,17,-1
 737 141 l 1,18,-1
 737 553 l 2,19,20
 737 587 737 587 731 616 c 128,-1,21
 725 645 725 645 710.5 666 c 128,-1,22
 696 687 696 687 671.5 699 c 128,-1,23
 647 711 647 711 610 711 c 0,24,25
 558 711 558 711 499 691 c 128,-1,26
 440 671 440 671 378 631 c 1,27,-1
 378 141 l 1,28,-1
 503 141 l 1,29,-1
 503 0 l 1,30,-1
 31 0 l 1,31,-1
 31 141 l 1,0,-1
EndSplineSet
Validated: 1
EndChar

StartChar: i
Encoding: 105 105 95
Width: 571
GlyphClass: 2
Flags: W
LayerCount: 2
Fore
SplineSet
301 1227 m 256,0,1
 325 1227 325 1227 346 1218.5 c 128,-1,2
 367 1210 367 1210 382.5 1195.5 c 128,-1,3
 398 1181 398 1181 407 1161 c 128,-1,4
 416 1141 416 1141 416 1119 c 0,5,6
 416 1096 416 1096 407 1076.5 c 128,-1,7
 398 1057 398 1057 382.5 1042.5 c 128,-1,8
 367 1028 367 1028 346 1019.5 c 128,-1,9
 325 1011 325 1011 301 1011 c 256,10,11
 277 1011 277 1011 256.5 1019.5 c 128,-1,12
 236 1028 236 1028 221 1042.5 c 128,-1,13
 206 1057 206 1057 197 1076.5 c 128,-1,14
 188 1096 188 1096 188 1119 c 0,15,16
 188 1141 188 1141 197 1161 c 128,-1,17
 206 1181 206 1181 221 1195.5 c 128,-1,18
 236 1210 236 1210 256.5 1218.5 c 128,-1,19
 277 1227 277 1227 301 1227 c 256,0,1
67 709 m 1,20,-1
 67 849 l 1,21,-1
 400 849 l 1,22,-1
 400 141 l 1,23,-1
 537 141 l 1,24,-1
 537 0 l 1,25,-1
 67 0 l 1,26,-1
 67 141 l 1,27,-1
 204 141 l 1,28,-1
 204 709 l 1,29,-1
 67 709 l 1,20,-1
EndSplineSet
Validated: 1
EndChar

StartChar: j
Encoding: 106 106 96
Width: 523
GlyphClass: 2
Flags: W
LayerCount: 2
Fore
SplineSet
275 1227 m 256,0,1
 299 1227 299 1227 319.5 1218.5 c 128,-1,2
 340 1210 340 1210 356 1195.5 c 128,-1,3
 372 1181 372 1181 381 1161 c 128,-1,4
 390 1141 390 1141 390 1119 c 0,5,6
 390 1096 390 1096 381 1076.5 c 128,-1,7
 372 1057 372 1057 356 1042.5 c 128,-1,8
 340 1028 340 1028 319.5 1019.5 c 128,-1,9
 299 1011 299 1011 275 1011 c 0,10,11
 226 1011 226 1011 193.5 1042 c 128,-1,12
 161 1073 161 1073 161 1119 c 0,13,14
 161 1141 161 1141 169.5 1161 c 128,-1,15
 178 1181 178 1181 193.5 1195.5 c 128,-1,16
 209 1210 209 1210 230 1218.5 c 128,-1,17
 251 1227 251 1227 275 1227 c 256,0,1
14 709 m 1,18,-1
 14 849 l 1,19,-1
 379 849 l 1,20,-1
 379 47 l 2,21,22
 379 -40 379 -40 370 -111.5 c 128,-1,23
 361 -183 361 -183 327.5 -234 c 128,-1,24
 294 -285 294 -285 228 -313.5 c 128,-1,25
 162 -342 162 -342 48 -342 c 2,26,-1
 -48 -342 l 1,27,-1
 -48 -186 l 1,28,-1
 48 -186 l 2,29,30
 87 -186 87 -186 112.5 -176 c 128,-1,31
 138 -166 138 -166 153.5 -145 c 128,-1,32
 169 -124 169 -124 175 -91 c 128,-1,33
 181 -58 181 -58 181 -13 c 2,34,-1
 181 709 l 1,35,-1
 14 709 l 1,18,-1
EndSplineSet
Validated: 1
EndChar

StartChar: k
Encoding: 107 107 97
Width: 1088
GlyphClass: 2
Flags: W
LayerCount: 2
Fore
SplineSet
35 0 m 1,0,-1
 35 141 l 1,1,-1
 186 141 l 1,2,-1
 186 1075 l 1,3,-1
 34 1075 l 1,4,-1
 34 1215 l 1,5,-1
 381 1215 l 1,6,-1
 381 449 l 1,7,-1
 700 709 l 1,8,-1
 555 709 l 1,9,-1
 555 849 l 1,10,-1
 1041 849 l 1,11,-1
 1041 709 l 1,12,-1
 902 709 l 1,13,-1
 589 440 l 1,14,-1
 914 141 l 1,15,-1
 1053 141 l 1,16,-1
 1053 0 l 1,17,-1
 608 0 l 1,18,-1
 608 141 l 1,19,-1
 692 141 l 1,20,-1
 381 428 l 1,21,-1
 381 141 l 1,22,-1
 491 141 l 1,23,-1
 491 0 l 1,24,-1
 35 0 l 1,0,-1
EndSplineSet
Validated: 1
EndChar

StartChar: l
Encoding: 108 108 98
Width: 556
GlyphClass: 2
Flags: W
LayerCount: 2
Fore
SplineSet
36 0 m 1,0,-1
 36 141 l 1,1,-1
 187 141 l 1,2,-1
 187 1075 l 1,3,-1
 38 1075 l 1,4,-1
 38 1215 l 1,5,-1
 383 1215 l 1,6,-1
 383 141 l 1,7,-1
 518 141 l 1,8,-1
 518 0 l 1,9,-1
 36 0 l 1,0,-1
EndSplineSet
Validated: 1
EndChar

StartChar: m
Encoding: 109 109 99
Width: 1687
GlyphClass: 2
Flags: W
LayerCount: 2
Fore
SplineSet
57 709 m 1,0,-1
 57 849 l 1,1,-1
 404 849 l 1,2,3
 404 835 404 835 404 817 c 128,-1,4
 404 799 404 799 405 782 c 1,5,6
 405 763 405 763 406 743 c 1,7,8
 477 800 477 800 548.5 833 c 128,-1,9
 620 866 620 866 697 866 c 0,10,11
 783 866 783 866 842.5 830 c 128,-1,12
 902 794 902 794 937 726 c 1,13,14
 981 760 981 760 1021 786 c 128,-1,15
 1061 812 1061 812 1100 830 c 128,-1,16
 1139 848 1139 848 1178.5 857 c 128,-1,17
 1218 866 1218 866 1261 866 c 0,18,19
 1324 866 1324 866 1373.5 847 c 128,-1,20
 1423 828 1423 828 1457 792.5 c 128,-1,21
 1491 757 1491 757 1508.5 707 c 128,-1,22
 1526 657 1526 657 1526 595 c 2,23,-1
 1526 137 l 1,24,-1
 1657 137 l 1,25,-1
 1657 0 l 1,26,-1
 1215 0 l 1,27,-1
 1215 137 l 1,28,-1
 1331 137 l 1,29,-1
 1331 528 l 2,30,31
 1331 571 1331 571 1324.5 605 c 128,-1,32
 1318 639 1318 639 1303 662.5 c 128,-1,33
 1288 686 1288 686 1263 698.5 c 128,-1,34
 1238 711 1238 711 1200 711 c 0,35,36
 1168 711 1168 711 1136 700.5 c 128,-1,37
 1104 690 1104 690 1074 672.5 c 128,-1,38
 1044 655 1044 655 1016.5 633 c 128,-1,39
 989 611 989 611 967 588 c 1,40,-1
 967 141 l 1,41,-1
 1092 141 l 1,42,-1
 1092 0 l 1,43,-1
 660 0 l 1,44,-1
 660 141 l 1,45,-1
 769 141 l 1,46,-1
 769 523 l 2,47,48
 769 618 769 618 740.5 664.5 c 128,-1,49
 712 711 712 711 639 711 c 0,50,51
 609 711 609 711 581 703 c 128,-1,52
 553 695 553 695 525 680 c 128,-1,53
 497 665 497 665 468 643 c 128,-1,54
 439 621 439 621 406 593 c 1,55,-1
 406 141 l 1,56,-1
 532 141 l 1,57,-1
 532 0 l 1,58,-1
 52 0 l 1,59,-1
 52 141 l 1,60,-1
 209 141 l 1,61,-1
 209 709 l 1,62,-1
 57 709 l 1,0,-1
EndSplineSet
Validated: 1
EndChar

StartChar: n
Encoding: 110 110 100
Width: 1105
GlyphClass: 2
Flags: W
LayerCount: 2
Fore
SplineSet
61 709 m 1,0,-1
 61 849 l 1,1,-1
 405 849 l 1,2,3
 405 841 405 841 405 826 c 128,-1,4
 405 811 405 811 405.5 794.5 c 128,-1,5
 406 778 406 778 406.5 764 c 128,-1,6
 407 750 407 750 407 745 c 1,7,8
 482 805 482 805 550.5 835.5 c 128,-1,9
 619 866 619 866 692 866 c 0,10,11
 746 866 746 866 792.5 848 c 128,-1,12
 839 830 839 830 872.5 795 c 128,-1,13
 906 760 906 760 925.5 707.5 c 128,-1,14
 945 655 945 655 945 586 c 0,15,16
 945 577 945 577 945 553.5 c 128,-1,17
 945 530 945 530 944.5 497 c 128,-1,18
 944 464 944 464 944 424.5 c 128,-1,19
 944 385 944 385 944 346 c 2,20,-1
 944 141 l 1,21,-1
 1087 141 l 1,22,-1
 1087 0 l 1,23,-1
 655 0 l 1,24,-1
 655 141 l 1,25,-1
 749 141 l 1,26,-1
 749 535 l 2,27,28
 749 621 749 621 724.5 666 c 128,-1,29
 700 711 700 711 638 711 c 0,30,31
 574 711 574 711 515.5 677.5 c 128,-1,32
 457 644 457 644 407 593 c 1,33,-1
 407 141 l 1,34,-1
 528 141 l 1,35,-1
 528 0 l 1,36,-1
 65 0 l 1,37,-1
 65 141 l 1,38,-1
 209 141 l 1,39,-1
 209 709 l 1,40,-1
 61 709 l 1,0,-1
EndSplineSet
Validated: 1
EndChar

StartChar: o
Encoding: 111 111 101
Width: 1029
GlyphClass: 2
Flags: W
LayerCount: 2
Fore
SplineSet
760 424 m 0,0,1
 760 487 760 487 743 540 c 128,-1,2
 726 593 726 593 694 631 c 128,-1,3
 662 669 662 669 616.5 690 c 128,-1,4
 571 711 571 711 513 711 c 0,5,6
 456 711 456 711 410.5 690 c 128,-1,7
 365 669 365 669 333.5 631 c 128,-1,8
 302 593 302 593 285 540 c 128,-1,9
 268 487 268 487 268 423 c 0,10,11
 268 360 268 360 285 307 c 128,-1,12
 302 254 302 254 334 216.5 c 128,-1,13
 366 179 366 179 411.5 158 c 128,-1,14
 457 137 457 137 514 137 c 256,15,16
 571 137 571 137 616.5 158 c 128,-1,17
 662 179 662 179 694 217 c 128,-1,18
 726 255 726 255 743 307.5 c 128,-1,19
 760 360 760 360 760 424 c 0,0,1
967 424 m 0,20,21
 967 329 967 329 934.5 248 c 128,-1,22
 902 167 902 167 842.5 108 c 128,-1,23
 783 49 783 49 699.5 15 c 128,-1,24
 616 -19 616 -19 513 -19 c 0,25,26
 412 -19 412 -19 329 14.5 c 128,-1,27
 246 48 246 48 187 107 c 128,-1,28
 128 166 128 166 95.5 247 c 128,-1,29
 63 328 63 328 63 424 c 0,30,31
 63 521 63 521 96.5 602.5 c 128,-1,32
 130 684 130 684 190 742.5 c 128,-1,33
 250 801 250 801 333 833.5 c 128,-1,34
 416 866 416 866 515 866 c 0,35,36
 616 866 616 866 699 833 c 128,-1,37
 782 800 782 800 841.5 741 c 128,-1,38
 901 682 901 682 934 601 c 128,-1,39
 967 520 967 520 967 424 c 0,20,21
EndSplineSet
Validated: 1
EndChar

StartChar: p
Encoding: 112 112 102
Width: 1122
GlyphClass: 2
Flags: W
LayerCount: 2
Fore
SplineSet
28 -180 m 1,0,-1
 175 -180 l 1,1,-1
 175 709 l 1,2,-1
 28 709 l 1,3,-1
 28 849 l 1,4,-1
 368 849 l 1,5,-1
 371 746 l 1,6,7
 434 807 434 807 504 836.5 c 128,-1,8
 574 866 574 866 659 866 c 0,9,10
 751 866 751 866 826 832 c 128,-1,11
 901 798 901 798 953.5 739 c 128,-1,12
 1006 680 1006 680 1034.5 600 c 128,-1,13
 1063 520 1063 520 1063 428 c 0,14,15
 1063 327 1063 327 1031.5 244.5 c 128,-1,16
 1000 162 1000 162 945.5 103.5 c 128,-1,17
 891 45 891 45 817 13 c 128,-1,18
 743 -19 743 -19 658 -19 c 0,19,20
 577 -19 577 -19 501 9 c 128,-1,21
 425 37 425 37 371 93 c 1,22,-1
 371 -180 l 1,23,-1
 539 -180 l 1,24,-1
 539 -330 l 1,25,-1
 28 -330 l 1,26,-1
 28 -180 l 1,0,-1
607 137 m 0,27,28
 667 137 667 137 714 158 c 128,-1,29
 761 179 761 179 793.5 216.5 c 128,-1,30
 826 254 826 254 843 306 c 128,-1,31
 860 358 860 358 860 419 c 0,32,33
 860 482 860 482 842.5 535.5 c 128,-1,34
 825 589 825 589 792.5 628 c 128,-1,35
 760 667 760 667 713 689 c 128,-1,36
 666 711 666 711 606 711 c 0,37,38
 559 711 559 711 519 695.5 c 128,-1,39
 479 680 479 680 449 659.5 c 128,-1,40
 419 639 419 639 399 619 c 128,-1,41
 379 599 379 599 371 590 c 1,42,-1
 371 245 l 1,43,44
 380 236 380 236 401 218 c 128,-1,45
 422 200 422 200 452 182 c 128,-1,46
 482 164 482 164 521 150.5 c 128,-1,47
 560 137 560 137 607 137 c 0,27,28
EndSplineSet
Validated: 1
EndChar

StartChar: q
Encoding: 113 113 103
Width: 1125
GlyphClass: 2
Flags: W
LayerCount: 2
Fore
SplineSet
1096 849 m 1,0,-1
 1096 709 l 1,1,-1
 949 709 l 1,2,-1
 949 -181 l 1,3,-1
 1096 -181 l 1,4,-1
 1096 -330 l 1,5,-1
 585 -330 l 1,6,-1
 585 -181 l 1,7,-1
 751 -181 l 1,8,-1
 751 94 l 1,9,10
 697 37 697 37 622 9 c 128,-1,11
 547 -19 547 -19 465 -19 c 0,12,13
 379 -19 379 -19 305.5 13 c 128,-1,14
 232 45 232 45 177 103.5 c 128,-1,15
 122 162 122 162 91 244.5 c 128,-1,16
 60 327 60 327 60 429 c 0,17,18
 60 521 60 521 89 600.5 c 128,-1,19
 118 680 118 680 171.5 739 c 128,-1,20
 225 798 225 798 301 832 c 128,-1,21
 377 866 377 866 472 866 c 0,22,23
 634 866 634 866 751 746 c 1,24,-1
 753 849 l 1,25,-1
 1096 849 l 1,0,-1
263 419 m 0,26,27
 263 358 263 358 280 306 c 128,-1,28
 297 254 297 254 329.5 216.5 c 128,-1,29
 362 179 362 179 408.5 158 c 128,-1,30
 455 137 455 137 515 137 c 0,31,32
 561 137 561 137 600.5 151.5 c 128,-1,33
 640 166 640 166 670.5 185.5 c 128,-1,34
 701 205 701 205 721.5 224.5 c 128,-1,35
 742 244 742 244 751 253 c 1,36,-1
 751 587 l 1,37,38
 743 597 743 597 723 617.5 c 128,-1,39
 703 638 703 638 673 659 c 128,-1,40
 643 680 643 680 604 695.5 c 128,-1,41
 565 711 565 711 520 711 c 0,42,43
 457 711 457 711 409 689 c 128,-1,44
 361 667 361 667 328.5 628 c 128,-1,45
 296 589 296 589 279.5 535.5 c 128,-1,46
 263 482 263 482 263 419 c 0,26,27
EndSplineSet
Validated: 1
EndChar

StartChar: r
Encoding: 114 114 104
Width: 806
GlyphClass: 2
Flags: W
LayerCount: 2
Fore
SplineSet
602 141 m 1,0,-1
 602 0 l 1,1,-1
 61 0 l 1,2,-1
 61 141 l 1,3,-1
 226 141 l 1,4,-1
 226 709 l 1,5,-1
 61 709 l 1,6,-1
 61 849 l 1,7,-1
 396 849 l 1,8,-1
 397 657 l 1,9,10
 423 715 423 715 455.5 755 c 128,-1,11
 488 795 488 795 527.5 820 c 128,-1,12
 567 845 567 845 613 855.5 c 128,-1,13
 659 866 659 866 712 866 c 0,14,15
 729 866 729 866 750 864 c 128,-1,16
 771 862 771 862 781 861 c 1,17,-1
 779 681 l 1,18,19
 779 681 779 681 770 681.5 c 128,-1,20
 761 682 761 682 749.5 682.5 c 128,-1,21
 738 683 738 683 727 683.5 c 128,-1,22
 716 684 716 684 710 684 c 0,23,24
 632 684 632 684 577.5 664 c 128,-1,25
 523 644 523 644 488.5 605 c 128,-1,26
 454 566 454 566 438 509 c 128,-1,27
 422 452 422 452 422 379 c 2,28,-1
 422 141 l 1,29,-1
 602 141 l 1,0,-1
EndSplineSet
Validated: 1
EndChar

StartChar: s
Encoding: 115 115 105
Width: 873
GlyphClass: 2
Flags: W
LayerCount: 2
Fore
SplineSet
87 283 m 1,0,-1
 243 283 l 1,1,-1
 243 216 l 1,2,3
 271 169 271 169 325.5 144 c 128,-1,4
 380 119 380 119 452 119 c 0,5,6
 537 119 537 119 583 145.5 c 128,-1,7
 629 172 629 172 629 224 c 0,8,9
 629 257 629 257 605.5 277.5 c 128,-1,10
 582 298 582 298 543 312 c 128,-1,11
 504 326 504 326 454.5 336.5 c 128,-1,12
 405 347 405 347 353 360 c 128,-1,13
 301 373 301 373 251.5 391 c 128,-1,14
 202 409 202 409 163 438.5 c 128,-1,15
 124 468 124 468 100.5 512 c 128,-1,16
 77 556 77 556 77 621 c 0,17,18
 77 672 77 672 99.5 717 c 128,-1,19
 122 762 122 762 163 795 c 128,-1,20
 204 828 204 828 262 847 c 128,-1,21
 320 866 320 866 391 866 c 0,22,23
 450 866 450 866 505 848.5 c 128,-1,24
 560 831 560 831 600 796 c 1,25,-1
 600 849 l 1,26,-1
 762 849 l 1,27,-1
 762 585 l 1,28,-1
 600 585 l 1,29,-1
 600 654 l 1,30,31
 569 690 569 690 524 709.5 c 128,-1,32
 479 729 479 729 413 729 c 0,33,34
 339 729 339 729 296.5 703.5 c 128,-1,35
 254 678 254 678 254 632 c 0,36,37
 254 601 254 601 278 581.5 c 128,-1,38
 302 562 302 562 341 549 c 128,-1,39
 380 536 380 536 430 526 c 128,-1,40
 480 516 480 516 532 503 c 128,-1,41
 584 490 584 490 634 471 c 128,-1,42
 684 452 684 452 723 421 c 128,-1,43
 762 390 762 390 786 343.5 c 128,-1,44
 810 297 810 297 810 230 c 0,45,46
 810 175 810 175 787 129 c 128,-1,47
 764 83 764 83 720.5 50 c 128,-1,48
 677 17 677 17 615 -1 c 128,-1,49
 553 -19 553 -19 476 -19 c 0,50,51
 397 -19 397 -19 342.5 -2 c 128,-1,52
 288 15 288 15 243 51 c 1,53,-1
 243 0 l 1,54,-1
 87 0 l 1,55,-1
 87 283 l 1,0,-1
EndSplineSet
Validated: 1
EndChar

StartChar: t
Encoding: 116 116 106
Width: 596
GlyphClass: 2
Flags: W
LayerCount: 2
Fore
SplineSet
36 709 m 1,0,-1
 36 849 l 1,1,-1
 162 849 l 1,2,-1
 162 1111 l 1,3,-1
 357 1156 l 1,4,-1
 357 849 l 1,5,-1
 560 849 l 1,6,-1
 560 709 l 1,7,-1
 357 709 l 1,8,-1
 357 259 l 2,9,10
 357 195 357 195 371 168 c 128,-1,11
 385 141 385 141 424 141 c 2,12,-1
 569 141 l 1,13,-1
 569 0 l 1,14,-1
 385 0 l 2,15,16
 266 0 266 0 213 64 c 128,-1,17
 160 128 160 128 160 248 c 2,18,-1
 160 709 l 1,19,-1
 36 709 l 1,0,-1
EndSplineSet
Validated: 1
EndChar

StartChar: u
Encoding: 117 117 107
Width: 1087
GlyphClass: 2
Flags: W
LayerCount: 2
Fore
SplineSet
1040 141 m 1,0,-1
 1040 0 l 1,1,-1
 699 0 l 1,2,-1
 695 96 l 1,3,4
 629 39 629 39 560.5 10 c 128,-1,5
 492 -19 492 -19 420 -19 c 0,6,7
 351 -19 351 -19 300.5 1 c 128,-1,8
 250 21 250 21 217 58 c 128,-1,9
 184 95 184 95 168.5 148.5 c 128,-1,10
 153 202 153 202 153 269 c 2,11,-1
 153 709 l 1,12,-1
 26 709 l 1,13,-1
 26 849 l 1,14,-1
 350 849 l 1,15,-1
 350 292 l 2,16,17
 350 216 350 216 376.5 176.5 c 128,-1,18
 403 137 403 137 471 137 c 0,19,20
 532 137 532 137 589.5 170.5 c 128,-1,21
 647 204 647 204 695 259 c 1,22,-1
 695 709 l 1,23,-1
 554 709 l 1,24,-1
 554 849 l 1,25,-1
 893 849 l 1,26,-1
 893 141 l 1,27,-1
 1040 141 l 1,0,-1
EndSplineSet
Validated: 1
EndChar

StartChar: v
Encoding: 118 118 108
Width: 1022
GlyphClass: 2
Flags: W
LayerCount: 2
Fore
SplineSet
434 0 m 1,0,-1
 142 709 l 1,1,-1
 -3 709 l 1,2,-1
 -3 849 l 1,3,-1
 454 849 l 1,4,-1
 454 709 l 1,5,-1
 342 709 l 1,6,7
 383 590 383 590 420 490 c 0,8,9
 435 447 435 447 451 403.5 c 128,-1,10
 467 360 467 360 481.5 322 c 128,-1,11
 496 284 496 284 507.5 254.5 c 128,-1,12
 519 225 519 225 526 209 c 1,13,-1
 718 709 l 1,14,-1
 601 709 l 1,15,-1
 601 849 l 1,16,-1
 1025 849 l 1,17,-1
 1025 709 l 1,18,-1
 892 709 l 1,19,-1
 605 0 l 1,20,-1
 434 0 l 1,0,-1
EndSplineSet
Validated: 1
EndChar

StartChar: w
Encoding: 119 119 109
Width: 1418
GlyphClass: 2
Flags: W
LayerCount: 2
Fore
SplineSet
101 709 m 1,0,-1
 8 709 l 1,1,-1
 8 849 l 1,2,-1
 382 849 l 1,3,-1
 382 709 l 1,4,-1
 294 709 l 1,5,-1
 451 201 l 1,6,-1
 607 709 l 1,7,-1
 506 709 l 1,8,-1
 506 849 l 1,9,-1
 920 849 l 1,10,-1
 920 709 l 1,11,-1
 820 709 l 1,12,-1
 984 197 l 1,13,-1
 1129 709 l 1,14,-1
 1031 709 l 1,15,-1
 1031 849 l 1,16,-1
 1405 849 l 1,17,-1
 1405 709 l 1,18,-1
 1307 709 l 1,19,-1
 1074 0 l 1,20,-1
 889 0 l 1,21,-1
 709 547 l 1,22,-1
 531 0 l 1,23,-1
 346 0 l 1,24,-1
 101 709 l 1,0,-1
EndSplineSet
Validated: 1
EndChar

StartChar: x
Encoding: 120 120 110
Width: 1036
GlyphClass: 2
Flags: W
LayerCount: 2
Fore
SplineSet
37 0 m 1,0,-1
 37 141 l 1,1,-1
 166 141 l 1,2,-1
 411 429 l 1,3,-1
 174 709 l 1,4,-1
 51 709 l 1,5,-1
 51 849 l 1,6,-1
 476 849 l 1,7,-1
 476 709 l 1,8,-1
 396 709 l 1,9,-1
 522 552 l 1,10,-1
 647 709 l 1,11,-1
 569 709 l 1,12,-1
 569 849 l 1,13,-1
 982 849 l 1,14,-1
 982 709 l 1,15,-1
 847 709 l 1,16,-1
 621 440 l 1,17,-1
 876 141 l 1,18,-1
 995 141 l 1,19,-1
 995 0 l 1,20,-1
 558 0 l 1,21,-1
 558 141 l 1,22,-1
 653 141 l 1,23,-1
 508 316 l 1,24,-1
 369 141 l 1,25,-1
 461 141 l 1,26,-1
 461 0 l 1,27,-1
 37 0 l 1,0,-1
EndSplineSet
Validated: 1
EndChar

StartChar: y
Encoding: 121 121 111
Width: 1049
GlyphClass: 2
Flags: W
LayerCount: 2
Fore
SplineSet
721 709 m 1,0,-1
 608 709 l 1,1,-1
 608 849 l 1,2,-1
 1040 849 l 1,3,-1
 1040 709 l 1,4,-1
 909 709 l 1,5,-1
 650 -23 l 2,6,7
 621 -106 621 -106 596 -169 c 128,-1,8
 571 -232 571 -232 534.5 -275.5 c 128,-1,9
 498 -319 498 -319 442.5 -341 c 128,-1,10
 387 -363 387 -363 297 -363 c 2,11,-1
 179 -363 l 1,12,-1
 179 -206 l 1,13,-1
 277 -206 l 2,14,15
 313 -206 313 -206 339.5 -202 c 128,-1,16
 366 -198 366 -198 387 -183.5 c 128,-1,17
 408 -169 408 -169 424.5 -139.5 c 128,-1,18
 441 -110 441 -110 457 -59 c 2,19,-1
 488 45 l 1,20,-1
 419 45 l 1,21,-1
 130 709 l 1,22,-1
 2 709 l 1,23,-1
 2 849 l 1,24,-1
 453 849 l 1,25,-1
 453 709 l 1,26,-1
 347 709 l 1,27,-1
 545 175 l 1,28,-1
 721 709 l 1,0,-1
EndSplineSet
Validated: 1
EndChar

StartChar: z
Encoding: 122 122 112
Width: 906
GlyphClass: 2
Flags: W
LayerCount: 2
Fore
SplineSet
60 0 m 1,0,-1
 60 135 l 1,1,-1
 595 715 l 1,2,-1
 246 715 l 1,3,-1
 246 562 l 1,4,-1
 100 562 l 1,5,-1
 100 849 l 1,6,-1
 829 849 l 1,7,-1
 829 710 l 1,8,-1
 290 133 l 1,9,-1
 677 133 l 1,10,-1
 677 298 l 1,11,-1
 828 298 l 1,12,-1
 828 0 l 1,13,-1
 60 0 l 1,0,-1
EndSplineSet
Validated: 1
EndChar

StartChar: braceleft
Encoding: 123 123 113
Width: 579
GlyphClass: 2
Flags: W
LayerCount: 2
Fore
SplineSet
31 638 m 1,0,1
 83 638 83 638 115 656.5 c 128,-1,2
 147 675 147 675 165 710.5 c 128,-1,3
 183 746 183 746 189 796.5 c 128,-1,4
 195 847 195 847 195 911 c 0,5,6
 195 1002 195 1002 199 1078.5 c 128,-1,7
 203 1155 203 1155 228 1210.5 c 128,-1,8
 253 1266 253 1266 307 1297 c 128,-1,9
 361 1328 361 1328 461 1328 c 2,10,-1
 543 1328 l 1,11,-1
 543 1195 l 1,12,13
 487 1195 487 1195 452 1189 c 128,-1,14
 417 1183 417 1183 397 1165 c 128,-1,15
 377 1147 377 1147 369.5 1113 c 128,-1,16
 362 1079 362 1079 362 1023 c 0,17,18
 362 912 362 912 357.5 836.5 c 128,-1,19
 353 761 353 761 338 709.5 c 128,-1,20
 323 658 323 658 293.5 625 c 128,-1,21
 264 592 264 592 215 566 c 1,22,23
 258 543 258 543 286 512.5 c 128,-1,24
 314 482 314 482 330.5 437.5 c 128,-1,25
 347 393 347 393 353.5 330.5 c 128,-1,26
 360 268 360 268 360 181 c 0,27,28
 360 99 360 99 362.5 51 c 128,-1,29
 365 3 365 3 382.5 -22.5 c 128,-1,30
 400 -48 400 -48 437 -55.5 c 128,-1,31
 474 -63 474 -63 543 -63 c 1,32,-1
 543 -196 l 1,33,-1
 462 -196 l 2,34,35
 363 -196 363 -196 308.5 -166.5 c 128,-1,36
 254 -137 254 -137 229 -83 c 128,-1,37
 204 -29 204 -29 199.5 46 c 128,-1,38
 195 121 195 121 195 212 c 0,39,40
 195 279 195 279 189.5 331.5 c 128,-1,41
 184 384 184 384 167 420.5 c 128,-1,42
 150 457 150 457 117.5 476 c 128,-1,43
 85 495 85 495 31 495 c 1,44,-1
 31 638 l 1,0,1
EndSplineSet
Validated: 1
EndChar

StartChar: bar
Encoding: 124 124 114
Width: 646
GlyphClass: 2
Flags: W
LayerCount: 2
Fore
SplineSet
243 1227 m 1,0,-1
 403 1227 l 1,1,-1
 403 -251 l 1,2,-1
 243 -251 l 1,3,-1
 243 1227 l 1,0,-1
EndSplineSet
Validated: 1
EndChar

StartChar: braceright
Encoding: 125 125 115
Width: 579
GlyphClass: 2
Flags: W
LayerCount: 2
Fore
SplineSet
543 495 m 1,0,1
 489 495 489 495 457 476 c 128,-1,2
 425 457 425 457 408 420.5 c 128,-1,3
 391 384 391 384 385.5 331.5 c 128,-1,4
 380 279 380 279 380 212 c 0,5,6
 380 121 380 121 375.5 46 c 128,-1,7
 371 -29 371 -29 346 -83 c 128,-1,8
 321 -137 321 -137 266.5 -166.5 c 128,-1,9
 212 -196 212 -196 113 -196 c 2,10,-1
 31 -196 l 1,11,-1
 31 -63 l 1,12,13
 100 -63 100 -63 137 -56 c 128,-1,14
 174 -49 174 -49 191.5 -24 c 128,-1,15
 209 1 209 1 212 47.5 c 128,-1,16
 215 94 215 94 215 174 c 0,17,18
 215 263 215 263 221 326.5 c 128,-1,19
 227 390 227 390 243.5 435.5 c 128,-1,20
 260 481 260 481 288 512 c 128,-1,21
 316 543 316 543 360 566 c 1,22,23
 310 592 310 592 281 625 c 128,-1,24
 252 658 252 658 237 709.5 c 128,-1,25
 222 761 222 761 217.5 836.5 c 128,-1,26
 213 912 213 912 213 1023 c 0,27,28
 213 1079 213 1079 205.5 1113 c 128,-1,29
 198 1147 198 1147 178 1165 c 128,-1,30
 158 1183 158 1183 122.5 1189 c 128,-1,31
 87 1195 87 1195 31 1195 c 1,32,-1
 31 1328 l 1,33,-1
 114 1328 l 2,34,35
 213 1328 213 1328 267 1297.5 c 128,-1,36
 321 1267 321 1267 346 1212 c 128,-1,37
 371 1157 371 1157 375.5 1081.5 c 128,-1,38
 380 1006 380 1006 380 916 c 0,39,40
 380 851 380 851 386 799.5 c 128,-1,41
 392 748 392 748 409.5 712 c 128,-1,42
 427 676 427 676 459 657 c 128,-1,43
 491 638 491 638 543 638 c 1,44,-1
 543 495 l 1,0,1
EndSplineSet
Validated: 1
EndChar

StartChar: asciitilde
Encoding: 126 126 116
Width: 1122
GlyphClass: 2
Flags: W
LayerCount: 2
Fore
SplineSet
1040 588 m 1,0,1
 989 528 989 528 928 494.5 c 128,-1,2
 867 461 867 461 795 461 c 0,3,4
 753 461 753 461 713 471 c 128,-1,5
 673 481 673 481 633.5 496 c 128,-1,6
 594 511 594 511 555 529 c 128,-1,7
 516 547 516 547 478 562 c 128,-1,8
 440 577 440 577 401.5 587 c 128,-1,9
 363 597 363 597 325 597 c 0,10,11
 264 597 264 597 214 570.5 c 128,-1,12
 164 544 164 544 110 489 c 1,13,-1
 87 627 l 1,14,15
 140 693 140 693 202 725 c 128,-1,16
 264 757 264 757 341 757 c 0,17,18
 406 757 406 757 467 737 c 128,-1,19
 528 717 528 717 585 693.5 c 128,-1,20
 642 670 642 670 696.5 650 c 128,-1,21
 751 630 751 630 802 630 c 0,22,23
 861 630 861 630 912.5 656 c 128,-1,24
 964 682 964 682 1013 731 c 1,25,-1
 1040 588 l 1,0,1
EndSplineSet
Validated: 1
EndChar

StartChar: cent
Encoding: 162 162 118
Width: 969
GlyphClass: 2
Flags: W
LayerCount: 2
Fore
SplineSet
887 535 m 1,0,-1
 730 535 l 1,1,2
 716 587 716 587 689 627 c 128,-1,3
 662 667 662 667 617 689 c 1,4,-1
 436 147 l 1,5,6
 470 137 470 137 513 137 c 0,7,8
 591 137 591 137 659.5 171.5 c 128,-1,9
 728 206 728 206 771 274 c 1,10,-1
 904 189 l 1,11,12
 844 86 844 86 746.5 33.5 c 128,-1,13
 649 -19 649 -19 510 -19 c 0,14,15
 444 -19 444 -19 385 -5 c 1,16,-1
 276 -335 l 1,17,-1
 198 -312 l 1,18,-1
 308 20 l 1,19,20
 245 47 245 47 198 90 c 128,-1,21
 151 133 151 133 120.5 186.5 c 128,-1,22
 90 240 90 240 74.5 300.5 c 128,-1,23
 59 361 59 361 59 423 c 0,24,25
 59 516 59 516 90.5 597 c 128,-1,26
 122 678 122 678 179 738 c 128,-1,27
 236 798 236 798 315 832 c 128,-1,28
 394 866 394 866 489 866 c 0,29,30
 538 866 538 866 585 852 c 1,31,-1
 709 1227 l 1,32,-1
 788 1203 l 1,33,-1
 660 820 l 1,34,35
 680 809 680 809 696 796 c 128,-1,36
 712 783 712 783 725 769 c 1,37,-1
 724 849 l 1,38,-1
 887 849 l 1,39,-1
 887 535 l 1,0,-1
265 428 m 0,40,41
 265 345 265 345 290 283 c 128,-1,42
 315 221 315 221 363 184 c 1,43,-1
 537 710 l 1,44,45
 531 710 531 710 525 710.5 c 128,-1,46
 519 711 519 711 513 711 c 0,47,48
 454 711 454 711 407.5 691 c 128,-1,49
 361 671 361 671 329.5 634 c 128,-1,50
 298 597 298 597 281.5 544.5 c 128,-1,51
 265 492 265 492 265 428 c 0,40,41
EndSplineSet
Validated: 1
EndChar

StartChar: sterling
Encoding: 163 163 119
Width: 1049
GlyphClass: 2
Flags: W
LayerCount: 2
Fore
SplineSet
117 692 m 1,0,-1
 266 692 l 1,1,2
 243 740 243 740 230.5 790.5 c 128,-1,3
 218 841 218 841 218 901 c 0,4,5
 218 980 218 980 243.5 1041.5 c 128,-1,6
 269 1103 269 1103 317 1145.5 c 128,-1,7
 365 1188 365 1188 433 1210.5 c 128,-1,8
 501 1233 501 1233 586 1233 c 0,9,10
 668 1233 668 1233 732 1209 c 128,-1,11
 796 1185 796 1185 839 1140 c 128,-1,12
 882 1095 882 1095 904.5 1031.5 c 128,-1,13
 927 968 927 968 927 890 c 1,14,-1
 756 890 l 1,15,16
 756 930 756 930 747.5 965 c 128,-1,17
 739 1000 739 1000 720 1025.5 c 128,-1,18
 701 1051 701 1051 670 1065.5 c 128,-1,19
 639 1080 639 1080 593 1080 c 0,20,21
 498 1080 498 1080 446.5 1036.5 c 128,-1,22
 395 993 395 993 395 910 c 0,23,24
 395 855 395 855 417.5 800.5 c 128,-1,25
 440 746 440 746 469 692 c 1,26,-1
 855 692 l 1,27,-1
 855 559 l 1,28,-1
 530 559 l 1,29,30
 550 518 550 518 559.5 479.5 c 128,-1,31
 569 441 569 441 569 399 c 0,32,33
 569 361 569 361 560.5 319.5 c 128,-1,34
 552 278 552 278 533 232 c 1,35,36
 581 203 581 203 627 179.5 c 128,-1,37
 673 156 673 156 720 156 c 0,38,39
 760 156 760 156 783.5 167 c 128,-1,40
 807 178 807 178 820.5 199.5 c 128,-1,41
 834 221 834 221 839 252.5 c 128,-1,42
 844 284 844 284 847 325 c 1,43,-1
 974 325 l 1,44,45
 974 242 974 242 963 178 c 128,-1,46
 952 114 952 114 923.5 70.5 c 128,-1,47
 895 27 895 27 846 4.5 c 128,-1,48
 797 -18 797 -18 720 -18 c 0,49,50
 648 -18 648 -18 585 13.5 c 128,-1,51
 522 45 522 45 457 96 c 1,52,53
 419 44 419 44 370 13 c 128,-1,54
 321 -18 321 -18 261 -18 c 0,55,56
 203 -18 203 -18 160.5 -2 c 128,-1,57
 118 14 118 14 90 40 c 128,-1,58
 62 66 62 66 48.5 99.5 c 128,-1,59
 35 133 35 133 35 169 c 0,60,61
 35 207 35 207 49.5 244 c 128,-1,62
 64 281 64 281 92 310 c 128,-1,63
 120 339 120 339 161 357 c 128,-1,64
 202 375 202 375 254 375 c 0,65,66
 299 375 299 375 337.5 358.5 c 128,-1,67
 376 342 376 342 415 309 c 1,68,69
 417 317 417 317 417.5 326 c 128,-1,70
 418 335 418 335 418 344 c 0,71,72
 418 400 418 400 395 455 c 128,-1,73
 372 510 372 510 339 559 c 1,74,-1
 117 559 l 1,75,-1
 117 692 l 1,0,-1
291 133 m 1,76,77
 298 151 298 151 305 170.5 c 128,-1,78
 312 190 312 190 320 212 c 1,79,80
 303 223 303 223 288 228 c 128,-1,81
 273 233 273 233 260 233 c 0,82,83
 230 233 230 233 211 215.5 c 128,-1,84
 192 198 192 198 192 172 c 0,85,86
 192 152 192 152 206 134.5 c 128,-1,87
 220 117 220 117 242 117 c 0,88,89
 262 117 262 117 291 133 c 1,76,77
EndSplineSet
Validated: 1
EndChar

StartChar: currency
Encoding: 164 164 120
Width: 929
GlyphClass: 2
Flags: W
LayerCount: 2
Fore
SplineSet
123 806 m 0,0,1
 123 922 123 922 196 1007 c 1,2,-1
 116 1088 l 1,3,-1
 185 1157 l 1,4,-1
 271 1071 l 1,5,6
 313 1096 313 1096 360.5 1110 c 128,-1,7
 408 1124 408 1124 464 1124 c 256,8,9
 520 1124 520 1124 568 1109.5 c 128,-1,10
 616 1095 616 1095 658 1069 c 1,11,-1
 746 1157 l 1,12,-1
 815 1088 l 1,13,-1
 732 1005 l 1,14,15
 804 921 804 921 804 806 c 0,16,17
 804 746 804 746 784.5 695.5 c 128,-1,18
 765 645 765 645 730 603 c 1,19,-1
 815 519 l 1,20,-1
 746 451 l 1,21,-1
 656 539 l 1,22,23
 571 486 571 486 464 486 c 0,24,25
 408 486 408 486 361.5 499.5 c 128,-1,26
 315 513 315 513 273 538 c 1,27,-1
 185 451 l 1,28,-1
 116 519 l 1,29,-1
 198 601 l 1,30,31
 163 643 163 643 143 694.5 c 128,-1,32
 123 746 123 746 123 806 c 0,0,1
261 805 m 0,33,34
 261 763 261 763 275.5 726 c 128,-1,35
 290 689 290 689 316.5 661 c 128,-1,36
 343 633 343 633 380.5 616.5 c 128,-1,37
 418 600 418 600 464 600 c 256,38,39
 510 600 510 600 547.5 616.5 c 128,-1,40
 585 633 585 633 611 661 c 128,-1,41
 637 689 637 689 651.5 726 c 128,-1,42
 666 763 666 763 666 804 c 256,43,44
 666 845 666 845 651.5 881.5 c 128,-1,45
 637 918 637 918 610.5 946 c 128,-1,46
 584 974 584 974 547 990 c 128,-1,47
 510 1006 510 1006 464 1006 c 0,48,49
 417 1006 417 1006 379.5 990 c 128,-1,50
 342 974 342 974 316 946 c 128,-1,51
 290 918 290 918 275.5 881.5 c 128,-1,52
 261 845 261 845 261 805 c 0,33,34
EndSplineSet
Validated: 1
EndChar

StartChar: yen
Encoding: 165 165 121
Width: 1221
GlyphClass: 2
Flags: W
LayerCount: 2
Fore
SplineSet
367 0 m 1,0,-1
 367 123 l 1,1,-1
 526 123 l 1,2,-1
 526 297 l 1,3,-1
 249 297 l 1,4,-1
 249 414 l 1,5,-1
 526 414 l 1,6,-1
 526 503 l 1,7,-1
 249 503 l 1,8,-1
 249 622 l 1,9,-1
 460 622 l 1,10,-1
 168 1032 l 1,11,-1
 22 1032 l 1,12,-1
 22 1153 l 1,13,-1
 494 1153 l 1,14,-1
 494 1030 l 1,15,-1
 344 1030 l 1,16,-1
 618 639 l 1,17,-1
 875 1031 l 1,18,-1
 725 1031 l 1,19,-1
 725 1153 l 1,20,-1
 1185 1153 l 1,21,-1
 1185 1030 l 1,22,-1
 1029 1030 l 1,23,-1
 749 622 l 1,24,-1
 960 622 l 1,25,-1
 960 503 l 1,26,-1
 686 503 l 1,27,-1
 686 414 l 1,28,-1
 960 414 l 1,29,-1
 960 297 l 1,30,-1
 686 297 l 1,31,-1
 686 122 l 1,32,-1
 850 122 l 1,33,-1
 850 0 l 1,34,-1
 367 0 l 1,0,-1
EndSplineSet
Validated: 1
EndChar

StartChar: brokenbar
Encoding: 166 166 122
Width: 414
GlyphClass: 2
Flags: W
LayerCount: 2
Fore
SplineSet
269 1215 m 1,0,-1
 269 670 l 1,1,-1
 147 670 l 1,2,-1
 147 1215 l 1,3,-1
 269 1215 l 1,0,-1
269 324 m 1,4,-1
 269 -221 l 1,5,-1
 147 -221 l 1,6,-1
 147 324 l 1,7,-1
 269 324 l 1,4,-1
EndSplineSet
Validated: 1
EndChar

StartChar: section
Encoding: 167 167 123
Width: 891
GlyphClass: 2
Flags: W
LayerCount: 2
Fore
SplineSet
452 -185 m 0,0,1
 360 -185 360 -185 298.5 -166 c 128,-1,2
 237 -147 237 -147 200.5 -117 c 128,-1,3
 164 -87 164 -87 149 -49.5 c 128,-1,4
 134 -12 134 -12 134 25 c 0,5,6
 134 89 134 89 174.5 121.5 c 128,-1,7
 215 154 215 154 280 154 c 1,8,9
 280 100 280 100 292.5 54 c 128,-1,10
 305 8 305 8 329 -25.5 c 128,-1,11
 353 -59 353 -59 389.5 -78 c 128,-1,12
 426 -97 426 -97 474 -97 c 0,13,14
 553 -97 553 -97 597 -53.5 c 128,-1,15
 641 -10 641 -10 641 62 c 0,16,17
 641 96 641 96 631 122 c 128,-1,18
 621 148 621 148 591 175 c 128,-1,19
 561 202 561 202 505.5 233.5 c 128,-1,20
 450 265 450 265 359 310 c 0,21,22
 291 343 291 343 243 377.5 c 128,-1,23
 195 412 195 412 164.5 449 c 128,-1,24
 134 486 134 486 120 528 c 128,-1,25
 106 570 106 570 106 618 c 0,26,27
 106 673 106 673 135.5 717.5 c 128,-1,28
 165 762 165 762 213 786 c 1,29,30
 184 816 184 816 163 865 c 128,-1,31
 142 914 142 914 142 982 c 0,32,33
 142 1045 142 1045 166 1093.5 c 128,-1,34
 190 1142 190 1142 233.5 1176 c 128,-1,35
 277 1210 277 1210 336 1227.5 c 128,-1,36
 395 1245 395 1245 466 1245 c 0,37,38
 538 1245 538 1245 592.5 1231 c 128,-1,39
 647 1217 647 1217 684 1192 c 128,-1,40
 721 1167 721 1167 739.5 1132.5 c 128,-1,41
 758 1098 758 1098 758 1058 c 0,42,43
 758 1007 758 1007 718 974 c 128,-1,44
 678 941 678 941 603 941 c 1,45,46
 603 977 603 977 596.5 1015 c 128,-1,47
 590 1053 590 1053 574 1084 c 128,-1,48
 558 1115 558 1115 529.5 1135 c 128,-1,49
 501 1155 501 1155 458 1155 c 0,50,51
 389 1155 389 1155 347.5 1115.5 c 128,-1,52
 306 1076 306 1076 306 1001 c 0,53,54
 306 962 306 962 319 935.5 c 128,-1,55
 332 909 332 909 357.5 888 c 128,-1,56
 383 867 383 867 419 848.5 c 128,-1,57
 455 830 455 830 502 808 c 0,58,59
 588 766 588 766 650 729 c 128,-1,60
 712 692 712 692 751.5 654 c 128,-1,61
 791 616 791 616 810 573.5 c 128,-1,62
 829 531 829 531 829 478 c 0,63,64
 829 448 829 448 820.5 419.5 c 128,-1,65
 812 391 812 391 798 365.5 c 128,-1,66
 784 340 784 340 765 319 c 128,-1,67
 746 298 746 298 724 285 c 1,68,69
 751 250 751 250 766.5 204 c 128,-1,70
 782 158 782 158 782 110 c 0,71,72
 782 45 782 45 761 -9.5 c 128,-1,73
 740 -64 740 -64 698.5 -103 c 128,-1,74
 657 -142 657 -142 595.5 -163.5 c 128,-1,75
 534 -185 534 -185 452 -185 c 0,0,1
669 421 m 0,76,77
 669 448 669 448 660 473.5 c 128,-1,78
 651 499 651 499 628.5 524 c 128,-1,79
 606 549 606 549 567.5 575 c 128,-1,80
 529 601 529 601 469 630 c 0,81,82
 414 657 414 657 366 680.5 c 128,-1,83
 318 704 318 704 278 732 c 1,84,85
 266 718 266 718 259 699.5 c 128,-1,86
 252 681 252 681 252 660 c 0,87,88
 252 626 252 626 263.5 600 c 128,-1,89
 275 574 275 574 302 549.5 c 128,-1,90
 329 525 329 525 373 500 c 128,-1,91
 417 475 417 475 483 442 c 0,92,93
 537 416 537 416 576 394 c 128,-1,94
 615 372 615 372 647 350 c 1,95,96
 656 363 656 363 662.5 380.5 c 128,-1,97
 669 398 669 398 669 421 c 0,76,77
EndSplineSet
Validated: 1
EndChar

StartChar: dieresis
Encoding: 168 168 124
Width: 661
GlyphClass: 2
Flags: W
LayerCount: 2
Fore
SplineSet
422 1215 m 1,0,-1
 609 1215 l 1,1,-1
 609 1030 l 1,2,-1
 422 1030 l 1,3,-1
 422 1215 l 1,0,-1
244 1215 m 1,4,-1
 244 1030 l 1,5,-1
 57 1030 l 1,6,-1
 57 1215 l 1,7,-1
 244 1215 l 1,4,-1
EndSplineSet
Validated: 1
EndChar

StartChar: copyright
Encoding: 169 169 125
Width: 1470
GlyphClass: 2
Flags: W
LayerCount: 2
Fore
SplineSet
718 1233 m 256,0,1
 825 1233 825 1233 915 1208.5 c 128,-1,2
 1005 1184 1005 1184 1077 1140 c 128,-1,3
 1149 1096 1149 1096 1203 1036.5 c 128,-1,4
 1257 977 1257 977 1293.5 907.5 c 128,-1,5
 1330 838 1330 838 1348 761 c 128,-1,6
 1366 684 1366 684 1366 606 c 256,7,8
 1366 528 1366 528 1348 451 c 128,-1,9
 1330 374 1330 374 1294 304.5 c 128,-1,10
 1258 235 1258 235 1204 176 c 128,-1,11
 1150 117 1150 117 1078 73.5 c 128,-1,12
 1006 30 1006 30 916 5.5 c 128,-1,13
 826 -19 826 -19 718 -19 c 256,14,15
 610 -19 610 -19 520.5 5.5 c 128,-1,16
 431 30 431 30 359.5 73.5 c 128,-1,17
 288 117 288 117 234.5 176 c 128,-1,18
 181 235 181 235 145.5 304.5 c 128,-1,19
 110 374 110 374 92 451 c 128,-1,20
 74 528 74 528 74 606 c 256,21,22
 74 684 74 684 92 761 c 128,-1,23
 110 838 110 838 145.5 907.5 c 128,-1,24
 181 977 181 977 235 1036.5 c 128,-1,25
 289 1096 289 1096 360.5 1140 c 128,-1,26
 432 1184 432 1184 521.5 1208.5 c 128,-1,27
 611 1233 611 1233 718 1233 c 256,0,1
718 1109 m 0,28,29
 638 1109 638 1109 570.5 1089 c 128,-1,30
 503 1069 503 1069 449 1033.5 c 128,-1,31
 395 998 395 998 354.5 950 c 128,-1,32
 314 902 314 902 287 846 c 128,-1,33
 260 790 260 790 246.5 728 c 128,-1,34
 233 666 233 666 233 603 c 0,35,36
 233 510 233 510 263 420.5 c 128,-1,37
 293 331 293 331 353.5 261 c 128,-1,38
 414 191 414 191 505 148.5 c 128,-1,39
 596 106 596 106 718 106 c 256,40,41
 840 106 840 106 931.5 148.5 c 128,-1,42
 1023 191 1023 191 1084 261 c 128,-1,43
 1145 331 1145 331 1175.5 420.5 c 128,-1,44
 1206 510 1206 510 1206 603 c 0,45,46
 1206 697 1206 697 1175 788 c 128,-1,47
 1144 879 1144 879 1083 950 c 128,-1,48
 1022 1021 1022 1021 930.5 1065 c 128,-1,49
 839 1109 839 1109 718 1109 c 0,28,29
1012 441 m 1,50,51
 924 289 924 289 721 289 c 0,52,53
 637 289 637 289 575 317 c 128,-1,54
 513 345 513 345 471.5 390.5 c 128,-1,55
 430 436 430 436 410 494.5 c 128,-1,56
 390 553 390 553 390 614 c 0,57,58
 390 683 390 683 413.5 742 c 128,-1,59
 437 801 437 801 479 845 c 128,-1,60
 521 889 521 889 579 914 c 128,-1,61
 637 939 637 939 707 939 c 0,62,63
 764 939 764 939 809 917.5 c 128,-1,64
 854 896 854 896 880 868 c 1,65,-1
 879 926 l 1,66,-1
 999 926 l 1,67,-1
 999 696 l 1,68,-1
 884 696 l 1,69,70
 876 724 876 724 863 747.5 c 128,-1,71
 850 771 850 771 831 788 c 128,-1,72
 812 805 812 805 785.5 815 c 128,-1,73
 759 825 759 825 724 825 c 0,74,75
 636 825 636 825 588.5 768.5 c 128,-1,76
 541 712 541 712 541 617 c 0,77,78
 541 519 541 519 588.5 461.5 c 128,-1,79
 636 404 636 404 724 404 c 0,80,81
 782 404 782 404 832 429 c 128,-1,82
 882 454 882 454 913 505 c 1,83,-1
 1012 441 l 1,50,51
EndSplineSet
Validated: 1
EndChar

StartChar: ordfeminine
Encoding: 170 170 126
Width: 696
GlyphClass: 2
Flags: W
LayerCount: 2
Fore
SplineSet
636 632 m 1,0,-1
 442 632 l 1,1,-1
 442 694 l 1,2,3
 396 656 396 656 350.5 638.5 c 128,-1,4
 305 621 305 621 254 621 c 0,5,6
 211 621 211 621 175.5 634 c 128,-1,7
 140 647 140 647 114.5 669.5 c 128,-1,8
 89 692 89 692 75 722.5 c 128,-1,9
 61 753 61 753 61 787 c 0,10,11
 61 832 61 832 78.5 865.5 c 128,-1,12
 96 899 96 899 126 920.5 c 128,-1,13
 156 942 156 942 197 952.5 c 128,-1,14
 238 963 238 963 286 963 c 0,15,16
 321 963 321 963 358 955.5 c 128,-1,17
 395 948 395 948 432 934 c 1,18,-1
 432 1004 l 2,19,20
 432 1057 432 1057 397.5 1083 c 128,-1,21
 363 1109 363 1109 303 1109 c 0,22,23
 214 1109 214 1109 169 1044 c 1,24,-1
 81 1093 l 1,25,26
 155 1194 155 1194 316 1194 c 0,27,28
 419 1194 419 1194 478.5 1149 c 128,-1,29
 538 1104 538 1104 538 1015 c 2,30,-1
 538 718 l 1,31,-1
 636 718 l 1,32,-1
 636 632 l 1,0,-1
432 856 m 1,33,34
 403 868 403 868 367 877.5 c 128,-1,35
 331 887 331 887 295 887 c 0,36,37
 268 887 268 887 244.5 882 c 128,-1,38
 221 877 221 877 203.5 865.5 c 128,-1,39
 186 854 186 854 175.5 835 c 128,-1,40
 165 816 165 816 165 788 c 0,41,42
 165 750 165 750 192.5 725 c 128,-1,43
 220 700 220 700 271 700 c 0,44,45
 313 700 313 700 355.5 716.5 c 128,-1,46
 398 733 398 733 432 763 c 1,47,-1
 432 856 l 1,33,34
EndSplineSet
Validated: 1
EndChar

StartChar: guillemotleft
Encoding: 171 171 127
Width: 1135
GlyphClass: 2
Flags: W
LayerCount: 2
Fore
SplineSet
139 606 m 1,0,-1
 454 965 l 1,1,-1
 582 965 l 1,2,-1
 375 555 l 1,3,-1
 582 145 l 1,4,-1
 454 145 l 1,5,-1
 139 506 l 1,6,-1
 139 606 l 1,0,-1
559 606 m 1,7,-1
 873 965 l 1,8,-1
 1001 965 l 1,9,-1
 795 555 l 1,10,-1
 1001 145 l 1,11,-1
 873 145 l 1,12,-1
 559 506 l 1,13,-1
 559 606 l 1,7,-1
EndSplineSet
Validated: 1
EndChar

StartChar: logicalnot
Encoding: 172 172 128
Width: 1113
GlyphClass: 2
Flags: W
LayerCount: 2
Fore
SplineSet
993 863 m 1,0,-1
 993 329 l 1,1,-1
 876 329 l 1,2,-1
 876 722 l 1,3,-1
 56 722 l 1,4,-1
 56 863 l 1,5,-1
 993 863 l 1,0,-1
EndSplineSet
Validated: 1
EndChar

StartChar: registered
Encoding: 174 174 130
Width: 1444
GlyphClass: 2
Flags: W
LayerCount: 2
Fore
SplineSet
722 1233 m 0,0,1
 855 1233 855 1233 972.5 1188.5 c 128,-1,2
 1090 1144 1090 1144 1178 1062 c 128,-1,3
 1266 980 1266 980 1317.5 864 c 128,-1,4
 1369 748 1369 748 1369 606 c 256,5,6
 1369 464 1369 464 1317.5 348.5 c 128,-1,7
 1266 233 1266 233 1178 151.5 c 128,-1,8
 1090 70 1090 70 972.5 25.5 c 128,-1,9
 855 -19 855 -19 722 -19 c 0,10,11
 590 -19 590 -19 472.5 25.5 c 128,-1,12
 355 70 355 70 267 151.5 c 128,-1,13
 179 233 179 233 128 348.5 c 128,-1,14
 77 464 77 464 77 606 c 256,15,16
 77 748 77 748 128 864 c 128,-1,17
 179 980 179 980 267 1062 c 128,-1,18
 355 1144 355 1144 472.5 1188.5 c 128,-1,19
 590 1233 590 1233 722 1233 c 0,0,1
722 1125 m 256,20,21
 617 1125 617 1125 525 1087.5 c 128,-1,22
 433 1050 433 1050 364 982 c 128,-1,23
 295 914 295 914 255 817.5 c 128,-1,24
 215 721 215 721 215 603 c 0,25,26
 215 487 215 487 255 392 c 128,-1,27
 295 297 295 297 364 229.5 c 128,-1,28
 433 162 433 162 525 125.5 c 128,-1,29
 617 89 617 89 722 89 c 256,30,31
 827 89 827 89 919.5 125.5 c 128,-1,32
 1012 162 1012 162 1081 229.5 c 128,-1,33
 1150 297 1150 297 1190 392 c 128,-1,34
 1230 487 1230 487 1230 603 c 0,35,36
 1230 721 1230 721 1190 817 c 128,-1,37
 1150 913 1150 913 1081 981.5 c 128,-1,38
 1012 1050 1012 1050 919.5 1087.5 c 128,-1,39
 827 1125 827 1125 722 1125 c 256,20,21
438 381 m 1,40,-1
 525 381 l 1,41,-1
 525 861 l 1,42,-1
 438 861 l 1,43,-1
 438 935 l 1,44,-1
 746 935 l 2,45,46
 794 935 794 935 833.5 925.5 c 128,-1,47
 873 916 873 916 902 896 c 128,-1,48
 931 876 931 876 947 844.5 c 128,-1,49
 963 813 963 813 963 770 c 0,50,51
 963 707 963 707 929.5 666 c 128,-1,52
 896 625 896 625 825 607 c 1,53,-1
 950 381 l 1,54,-1
 1038 381 l 1,55,-1
 1038 307 l 1,56,-1
 872 307 l 1,57,-1
 720 594 l 1,58,-1
 638 594 l 1,59,-1
 638 381 l 1,60,-1
 720 381 l 1,61,-1
 720 307 l 1,62,-1
 438 307 l 1,63,-1
 438 381 l 1,40,-1
740 672 m 2,64,65
 773 672 773 672 794 680.5 c 128,-1,66
 815 689 815 689 828 702.5 c 128,-1,67
 841 716 841 716 846 733 c 128,-1,68
 851 750 851 750 851 768 c 0,69,70
 851 808 851 808 824.5 834.5 c 128,-1,71
 798 861 798 861 747 861 c 2,72,-1
 638 861 l 1,73,-1
 638 672 l 1,74,-1
 740 672 l 2,64,65
EndSplineSet
Validated: 1
EndChar

StartChar: macron
Encoding: 175 175 131
Width: 593
GlyphClass: 2
Flags: W
LayerCount: 2
Fore
SplineSet
131 1171 m 1,0,-1
 457 1171 l 1,1,-1
 457 1086 l 1,2,-1
 131 1086 l 1,3,-1
 131 1171 l 1,0,-1
EndSplineSet
Validated: 1
EndChar

StartChar: degree
Encoding: 176 176 132
Width: 653
GlyphClass: 2
Flags: W
LayerCount: 2
Fore
SplineSet
327 1113 m 256,0,1
 287 1113 287 1113 256 1099 c 128,-1,2
 225 1085 225 1085 204 1061.5 c 128,-1,3
 183 1038 183 1038 172 1008 c 128,-1,4
 161 978 161 978 161 945 c 256,5,6
 161 912 161 912 172 882 c 128,-1,7
 183 852 183 852 204 828.5 c 128,-1,8
 225 805 225 805 256 791 c 128,-1,9
 287 777 287 777 327 777 c 0,10,11
 366 777 366 777 397 790.5 c 128,-1,12
 428 804 428 804 449.5 827.5 c 128,-1,13
 471 851 471 851 482 881.5 c 128,-1,14
 493 912 493 912 493 945 c 0,15,16
 493 976 493 976 482 1006 c 128,-1,17
 471 1036 471 1036 450 1060 c 128,-1,18
 429 1084 429 1084 398 1098.5 c 128,-1,19
 367 1113 367 1113 327 1113 c 256,0,1
327 1199 m 256,20,21
 389 1199 389 1199 438 1177.5 c 128,-1,22
 487 1156 487 1156 520.5 1121 c 128,-1,23
 554 1086 554 1086 572 1039.5 c 128,-1,24
 590 993 590 993 590 944 c 0,25,26
 590 894 590 894 572.5 848 c 128,-1,27
 555 802 555 802 521 766.5 c 128,-1,28
 487 731 487 731 438.5 709.5 c 128,-1,29
 390 688 390 688 327 688 c 256,30,31
 264 688 264 688 215.5 709.5 c 128,-1,32
 167 731 167 731 133 766.5 c 128,-1,33
 99 802 99 802 81.5 848 c 128,-1,34
 64 894 64 894 64 944 c 0,35,36
 64 993 64 993 81.5 1039.5 c 128,-1,37
 99 1086 99 1086 133 1121 c 128,-1,38
 167 1156 167 1156 216 1177.5 c 128,-1,39
 265 1199 265 1199 327 1199 c 256,20,21
EndSplineSet
Validated: 1
EndChar

StartChar: plusminus
Encoding: 177 177 133
Width: 1145
GlyphClass: 2
Flags: W
LayerCount: 2
Fore
SplineSet
1012 0 m 1,0,-1
 133 0 l 1,1,-1
 133 145 l 1,2,-1
 1012 145 l 1,3,-1
 1012 0 l 1,0,-1
645 659 m 1,4,-1
 645 293 l 1,5,-1
 498 293 l 1,6,-1
 498 659 l 1,7,-1
 133 659 l 1,8,-1
 133 805 l 1,9,-1
 498 805 l 1,10,-1
 498 1171 l 1,11,-1
 645 1171 l 1,12,-1
 645 805 l 1,13,-1
 1012 805 l 1,14,-1
 1012 659 l 1,15,-1
 645 659 l 1,4,-1
EndSplineSet
Validated: 1
EndChar

StartChar: uni00B2
Encoding: 178 178 134
Width: 939
GlyphClass: 2
Flags: W
LayerCount: 2
Fore
SplineSet
175 349 m 1,0,1
 175 425 175 425 195.5 486 c 128,-1,2
 216 547 216 547 249 596.5 c 128,-1,3
 282 646 282 646 324.5 687 c 128,-1,4
 367 728 367 728 411 764 c 0,5,6
 441 789 441 789 475 815 c 128,-1,7
 509 841 509 841 537 869.5 c 128,-1,8
 565 898 565 898 583.5 930 c 128,-1,9
 602 962 602 962 602 1000 c 0,10,11
 602 1058 602 1058 568.5 1092 c 128,-1,12
 535 1126 535 1126 472 1126 c 0,13,14
 389 1126 389 1126 355 1076 c 128,-1,15
 321 1026 321 1026 320 917 c 1,16,-1
 197 917 l 1,17,18
 197 1079 197 1079 265 1156 c 128,-1,19
 333 1233 333 1233 470 1233 c 0,20,21
 544 1233 544 1233 597.5 1212.5 c 128,-1,22
 651 1192 651 1192 685.5 1159 c 128,-1,23
 720 1126 720 1126 736 1083.5 c 128,-1,24
 752 1041 752 1041 752 997 c 0,25,26
 752 933 752 933 724 885.5 c 128,-1,27
 696 838 696 838 653 798.5 c 128,-1,28
 610 759 610 759 557.5 723.5 c 128,-1,29
 505 688 505 688 456.5 649 c 128,-1,30
 408 610 408 610 369 563.5 c 128,-1,31
 330 517 330 517 314 455 c 1,32,-1
 645 455 l 1,33,-1
 645 624 l 1,34,-1
 752 624 l 1,35,-1
 752 349 l 1,36,-1
 175 349 l 1,0,1
EndSplineSet
Validated: 1
EndChar

StartChar: uni00B3
Encoding: 179 179 135
Width: 957
GlyphClass: 2
Flags: W
LayerCount: 2
Fore
SplineSet
306 607 m 1,0,1
 314 529 314 529 354 484 c 128,-1,2
 394 439 394 439 475 439 c 0,3,4
 517 439 517 439 549 450.5 c 128,-1,5
 581 462 581 462 603.5 482 c 128,-1,6
 626 502 626 502 637.5 529.5 c 128,-1,7
 649 557 649 557 649 589 c 0,8,9
 649 634 649 634 633.5 664 c 128,-1,10
 618 694 618 694 587 712 c 128,-1,11
 556 730 556 730 509.5 737.5 c 128,-1,12
 463 745 463 745 401 745 c 1,13,-1
 401 856 l 1,14,15
 459 856 459 856 501 863 c 128,-1,16
 543 870 543 870 569.5 886 c 128,-1,17
 596 902 596 902 608.5 928 c 128,-1,18
 621 954 621 954 621 992 c 0,19,20
 621 1048 621 1048 585 1085 c 128,-1,21
 549 1122 549 1122 476 1122 c 0,22,23
 438 1122 438 1122 412 1112 c 128,-1,24
 386 1102 386 1102 369 1084 c 128,-1,25
 352 1066 352 1066 344 1041.5 c 128,-1,26
 336 1017 336 1017 335 989 c 1,27,-1
 206 997 l 1,28,29
 208 1051 208 1051 228 1095 c 128,-1,30
 248 1139 248 1139 282.5 1170 c 128,-1,31
 317 1201 317 1201 366 1217.5 c 128,-1,32
 415 1234 415 1234 475 1234 c 0,33,34
 541 1234 541 1234 594 1218 c 128,-1,35
 647 1202 647 1202 684.5 1172 c 128,-1,36
 722 1142 722 1142 742 1098.5 c 128,-1,37
 762 1055 762 1055 762 999 c 0,38,39
 762 933 762 933 724 880 c 128,-1,40
 686 827 686 827 613 805 c 1,41,42
 704 783 704 783 750 728 c 128,-1,43
 796 673 796 673 796 592 c 0,44,45
 796 533 796 533 773.5 485 c 128,-1,46
 751 437 751 437 709.5 403 c 128,-1,47
 668 369 668 369 608.5 350 c 128,-1,48
 549 331 549 331 474 331 c 0,49,50
 408 331 408 331 354 348 c 128,-1,51
 300 365 300 365 261 399 c 128,-1,52
 222 433 222 433 200 484.5 c 128,-1,53
 178 536 178 536 177 606 c 1,54,-1
 306 607 l 1,0,1
EndSplineSet
Validated: 1
EndChar

StartChar: acute
Encoding: 180 180 136
Width: 579
GlyphClass: 2
Flags: W
LayerCount: 2
Fore
SplineSet
102 960 m 1,0,-1
 226 1266 l 1,1,-1
 484 1266 l 1,2,-1
 268 960 l 1,3,-1
 102 960 l 1,0,-1
EndSplineSet
Validated: 1
EndChar

StartChar: uni00B5
Encoding: 181 181 137
AltUni2: 0003bc.ffffffff.0
Width: 1066
GlyphClass: 2
Flags: W
LayerCount: 2
Fore
SplineSet
153 709 m 1,0,-1
 26 709 l 1,1,-1
 26 849 l 1,2,-1
 350 849 l 1,3,-1
 350 224 l 2,4,5
 350 209 350 209 356 193.5 c 128,-1,6
 362 178 362 178 376.5 165.5 c 128,-1,7
 391 153 391 153 414 145 c 128,-1,8
 437 137 437 137 471 137 c 0,9,10
 532 137 532 137 589.5 170.5 c 128,-1,11
 647 204 647 204 695 259 c 1,12,-1
 695 709 l 1,13,-1
 554 709 l 1,14,-1
 554 849 l 1,15,-1
 893 849 l 1,16,-1
 893 141 l 1,17,-1
 1040 141 l 1,18,-1
 1040 0 l 1,19,-1
 699 0 l 1,20,-1
 695 96 l 1,21,22
 629 39 629 39 560.5 10 c 128,-1,23
 492 -19 492 -19 420 -19 c 0,24,25
 377 -19 377 -19 342 -8 c 1,26,-1
 342 -356 l 1,27,-1
 153 -356 l 1,28,-1
 153 709 l 1,0,-1
EndSplineSet
Validated: 1
EndChar

StartChar: paragraph
Encoding: 182 182 138
Width: 1096
GlyphClass: 2
Flags: W
LayerCount: 2
Fore
SplineSet
1020 1049 m 1,0,-1
 882 1049 l 1,1,-1
 882 -353 l 1,2,-1
 747 -353 l 1,3,-1
 747 1049 l 1,4,-1
 546 1049 l 1,5,-1
 546 -353 l 1,6,-1
 411 -353 l 1,7,-1
 411 468 l 1,8,9
 325 471 325 471 258 499.5 c 128,-1,10
 191 528 191 528 144.5 575.5 c 128,-1,11
 98 623 98 623 74 687 c 128,-1,12
 50 751 50 751 50 826 c 0,13,14
 50 900 50 900 75 965.5 c 128,-1,15
 100 1031 100 1031 150 1080 c 128,-1,16
 200 1129 200 1129 275 1157.5 c 128,-1,17
 350 1186 350 1186 451 1186 c 2,18,-1
 1020 1186 l 1,19,-1
 1020 1049 l 1,0,-1
EndSplineSet
Validated: 1
EndChar

StartChar: periodcentered
Encoding: 183 183 139
Width: 414
GlyphClass: 2
Flags: W
LayerCount: 2
Fore
SplineSet
86 657 m 1,0,-1
 313 657 l 1,1,-1
 313 446 l 1,2,-1
 86 446 l 1,3,-1
 86 657 l 1,0,-1
EndSplineSet
Validated: 1
EndChar

StartChar: cedilla
Encoding: 184 184 140
Width: 587
GlyphClass: 2
Flags: W
LayerCount: 2
Fore
SplineSet
152 -273 m 1,0,1
 175 -277 175 -277 199 -277 c 0,2,3
 250 -277 250 -277 283.5 -264 c 128,-1,4
 317 -251 317 -251 317 -216 c 0,5,6
 317 -190 317 -190 294 -175 c 128,-1,7
 271 -160 271 -160 228 -157 c 1,8,-1
 267 5 l 1,9,-1
 339 5 l 1,10,-1
 322 -92 l 1,11,12
 377 -101 377 -101 408 -131.5 c 128,-1,13
 439 -162 439 -162 439 -211 c 0,14,15
 439 -242 439 -242 426.5 -269.5 c 128,-1,16
 414 -297 414 -297 387.5 -317.5 c 128,-1,17
 361 -338 361 -338 320 -350 c 128,-1,18
 279 -362 279 -362 222 -362 c 0,19,20
 217 -362 217 -362 207.5 -362 c 128,-1,21
 198 -362 198 -362 187.5 -361.5 c 128,-1,22
 177 -361 177 -361 167.5 -360 c 128,-1,23
 158 -359 158 -359 152 -358 c 1,24,-1
 152 -273 l 1,0,1
EndSplineSet
Validated: 1
EndChar

StartChar: uni00B9
Encoding: 185 185 141
Width: 607
GlyphClass: 2
Flags: W
LayerCount: 2
Fore
SplineSet
490 451 m 1,0,-1
 490 348 l 1,1,-1
 112 348 l 1,2,-1
 112 451 l 1,3,-1
 235 451 l 1,4,-1
 235 1112 l 1,5,-1
 104 1112 l 1,6,-1
 104 1215 l 1,7,-1
 374 1215 l 1,8,-1
 374 451 l 1,9,-1
 490 451 l 1,0,-1
EndSplineSet
Validated: 1
EndChar

StartChar: ordmasculine
Encoding: 186 186 142
Width: 704
GlyphClass: 2
Flags: W
LayerCount: 2
Fore
SplineSet
180 934 m 256,0,1
 180 898 180 898 193 867 c 128,-1,2
 206 836 206 836 229.5 813.5 c 128,-1,3
 253 791 253 791 284.5 778 c 128,-1,4
 316 765 316 765 353 765 c 0,5,6
 389 765 389 765 420.5 778 c 128,-1,7
 452 791 452 791 475 813.5 c 128,-1,8
 498 836 498 836 511 867 c 128,-1,9
 524 898 524 898 524 934 c 256,10,11
 524 970 524 970 511 1000.5 c 128,-1,12
 498 1031 498 1031 475 1053.5 c 128,-1,13
 452 1076 452 1076 420.5 1088.5 c 128,-1,14
 389 1101 389 1101 353 1101 c 0,15,16
 316 1101 316 1101 284.5 1088.5 c 128,-1,17
 253 1076 253 1076 229.5 1053.5 c 128,-1,18
 206 1031 206 1031 193 1000.5 c 128,-1,19
 180 970 180 970 180 934 c 256,0,1
68 934 m 256,20,21
 68 991 68 991 89.5 1039.5 c 128,-1,22
 111 1088 111 1088 149.5 1123 c 128,-1,23
 188 1158 188 1158 240 1178 c 128,-1,24
 292 1198 292 1198 353 1198 c 256,25,26
 414 1198 414 1198 466 1178 c 128,-1,27
 518 1158 518 1158 556 1123 c 128,-1,28
 594 1088 594 1088 615.5 1039.5 c 128,-1,29
 637 991 637 991 637 934 c 256,30,31
 637 877 637 877 615.5 829 c 128,-1,32
 594 781 594 781 556 745.5 c 128,-1,33
 518 710 518 710 466 690 c 128,-1,34
 414 670 414 670 353 670 c 256,35,36
 292 670 292 670 240 690 c 128,-1,37
 188 710 188 710 149.5 745.5 c 128,-1,38
 111 781 111 781 89.5 829 c 128,-1,39
 68 877 68 877 68 934 c 256,20,21
EndSplineSet
Validated: 1
EndChar

StartChar: guillemotright
Encoding: 187 187 143
Width: 1135
GlyphClass: 2
Flags: W
LayerCount: 2
Fore
SplineSet
1007 506 m 1,0,-1
 692 145 l 1,1,-1
 565 145 l 1,2,-1
 771 555 l 1,3,-1
 565 965 l 1,4,-1
 692 965 l 1,5,-1
 1007 606 l 1,6,-1
 1007 506 l 1,0,-1
588 506 m 1,7,-1
 272 145 l 1,8,-1
 145 145 l 1,9,-1
 352 555 l 1,10,-1
 145 965 l 1,11,-1
 272 965 l 1,12,-1
 588 606 l 1,13,-1
 588 506 l 1,7,-1
EndSplineSet
Validated: 1
EndChar

StartChar: AE
Encoding: 198 198 154
Width: 1877
GlyphClass: 2
Flags: W
LayerCount: 2
Fore
SplineSet
-11 141 m 1,0,-1
 135 141 l 1,1,-1
 685 1075 l 1,2,-1
 577 1075 l 1,3,-1
 577 1215 l 1,4,-1
 1792 1215 l 1,5,-1
 1792 867 l 1,6,-1
 1626 867 l 1,7,-1
 1626 1075 l 1,8,-1
 1127 1075 l 1,9,-1
 1127 696 l 1,10,-1
 1457 696 l 1,11,-1
 1457 812 l 1,12,-1
 1559 812 l 1,13,-1
 1559 434 l 1,14,-1
 1457 434 l 1,15,-1
 1457 547 l 1,16,-1
 1128 547 l 1,17,-1
 1128 141 l 1,18,-1
 1628 141 l 1,19,-1
 1628 355 l 1,20,-1
 1794 355 l 1,21,-1
 1794 0 l 1,22,-1
 757 0 l 1,23,-1
 757 141 l 1,24,-1
 911 141 l 1,25,-1
 911 436 l 1,26,-1
 524 436 l 1,27,-1
 362 141 l 1,28,-1
 501 141 l 1,29,-1
 501 0 l 1,30,-1
 -11 0 l 1,31,-1
 -11 141 l 1,0,-1
911 577 m 1,32,-1
 911 1075 l 1,33,-1
 887 1075 l 1,34,-1
 603 577 l 1,35,-1
 911 577 l 1,32,-1
EndSplineSet
Validated: 1
EndChar

StartChar: Eth
Encoding: 208 208 164
Width: 1374
GlyphClass: 2
Flags: W
LayerCount: 2
Fore
SplineSet
61 0 m 1,0,-1
 61 141 l 1,1,-1
 234 141 l 1,2,-1
 234 545 l 1,3,-1
 90 545 l 1,4,-1
 90 694 l 1,5,-1
 234 694 l 1,6,-1
 234 1075 l 1,7,-1
 61 1075 l 1,8,-1
 61 1215 l 1,9,-1
 662 1215 l 2,10,11
 824 1215 824 1215 944 1168.5 c 128,-1,12
 1064 1122 1064 1122 1143 1041 c 128,-1,13
 1222 960 1222 960 1261 850.5 c 128,-1,14
 1300 741 1300 741 1300 615 c 0,15,16
 1300 473 1300 473 1260 359 c 128,-1,17
 1220 245 1220 245 1140 165.5 c 128,-1,18
 1060 86 1060 86 940 43 c 128,-1,19
 820 0 820 0 661 0 c 2,20,-1
 61 0 l 1,0,-1
453 694 m 1,21,-1
 634 694 l 1,22,-1
 634 545 l 1,23,-1
 453 545 l 1,24,-1
 453 141 l 1,25,-1
 642 141 l 2,26,27
 759 141 759 141 841.5 176 c 128,-1,28
 924 211 924 211 975.5 273.5 c 128,-1,29
 1027 336 1027 336 1050.5 422 c 128,-1,30
 1074 508 1074 508 1074 609 c 0,31,32
 1074 709 1074 709 1050 794.5 c 128,-1,33
 1026 880 1026 880 975 942.5 c 128,-1,34
 924 1005 924 1005 843.5 1040 c 128,-1,35
 763 1075 763 1075 650 1075 c 2,36,-1
 453 1075 l 1,37,-1
 453 694 l 1,21,-1
EndSplineSet
Validated: 1
EndChar

StartChar: multiply
Encoding: 215 215 171
Width: 929
GlyphClass: 2
Flags: W
LayerCount: 2
Fore
SplineSet
384 490 m 1,0,-1
 134 737 l 1,1,-1
 219 822 l 1,2,-1
 469 576 l 1,3,-1
 725 826 l 1,4,-1
 807 743 l 1,5,-1
 552 493 l 1,6,-1
 802 248 l 1,7,-1
 717 163 l 1,8,-1
 466 408 l 1,9,-1
 212 159 l 1,10,-1
 129 241 l 1,11,-1
 384 490 l 1,0,-1
EndSplineSet
Validated: 1
EndChar

StartChar: Oslash
Encoding: 216 216 172
Width: 1439
GlyphClass: 2
Flags: W
LayerCount: 2
Fore
SplineSet
265 -46 m 1,0,-1
 342 82 l 1,1,2
 277 124 277 124 227.5 180.5 c 128,-1,3
 178 237 178 237 144 304.5 c 128,-1,4
 110 372 110 372 93 448.5 c 128,-1,5
 76 525 76 525 76 607 c 0,6,7
 76 736 76 736 119 850 c 128,-1,8
 162 964 162 964 244.5 1049 c 128,-1,9
 327 1134 327 1134 446.5 1183.5 c 128,-1,10
 566 1233 566 1233 719 1233 c 0,11,12
 794 1233 794 1233 860 1221.5 c 128,-1,13
 926 1210 926 1210 985 1187 c 1,14,-1
 1056 1306 l 1,15,-1
 1164 1251 l 1,16,-1
 1094 1133 l 1,17,18
 1160 1091 1160 1091 1210.5 1034.5 c 128,-1,19
 1261 978 1261 978 1295.5 910 c 128,-1,20
 1330 842 1330 842 1348 765 c 128,-1,21
 1366 688 1366 688 1366 606 c 0,22,23
 1366 479 1366 479 1322.5 365.5 c 128,-1,24
 1279 252 1279 252 1196.5 166.5 c 128,-1,25
 1114 81 1114 81 994 31 c 128,-1,26
 874 -19 874 -19 720 -19 c 0,27,28
 644 -19 644 -19 577 -7 c 128,-1,29
 510 5 510 5 450 28 c 1,30,-1
 373 -101 l 1,31,-1
 265 -46 l 1,0,-1
895 1035 m 1,32,33
 856 1054 856 1054 812.5 1064.5 c 128,-1,34
 769 1075 769 1075 720 1075 c 0,35,36
 633 1075 633 1075 558.5 1040.5 c 128,-1,37
 484 1006 484 1006 429.5 944 c 128,-1,38
 375 882 375 882 344 795.5 c 128,-1,39
 313 709 313 709 313 605 c 0,40,41
 313 498 313 498 347.5 407 c 128,-1,42
 382 316 382 316 444 253 c 1,43,-1
 895 1035 l 1,32,33
719 141 m 0,44,45
 808 141 808 141 883 175.5 c 128,-1,46
 958 210 958 210 1012 272 c 128,-1,47
 1066 334 1066 334 1096.5 419 c 128,-1,48
 1127 504 1127 504 1127 606 c 0,49,50
 1127 717 1127 717 1092 809.5 c 128,-1,51
 1057 902 1057 902 993 965 c 1,52,-1
 542 181 l 1,53,54
 622 141 622 141 719 141 c 0,44,45
EndSplineSet
Validated: 1
EndChar

StartChar: Thorn
Encoding: 222 222 178
Width: 1124
GlyphClass: 2
Flags: W
LayerCount: 2
Fore
SplineSet
57 141 m 1,0,-1
 220 141 l 1,1,-1
 220 1075 l 1,2,-1
 62 1075 l 1,3,-1
 62 1215 l 1,4,-1
 439 1215 l 1,5,-1
 439 1061 l 1,6,-1
 606 1061 l 2,7,8
 840 1061 840 1061 962.5 965 c 128,-1,9
 1085 869 1085 869 1085 688 c 0,10,11
 1085 581 1085 581 1048 509 c 128,-1,12
 1011 437 1011 437 945 393.5 c 128,-1,13
 879 350 879 350 787 332 c 128,-1,14
 695 314 695 314 586 314 c 2,15,-1
 439 314 l 1,16,-1
 439 141 l 1,17,-1
 606 141 l 1,18,-1
 606 0 l 1,19,-1
 57 0 l 1,20,-1
 57 141 l 1,0,-1
439 461 m 1,21,-1
 577 461 l 2,22,23
 657 461 657 461 711 477 c 128,-1,24
 765 493 765 493 797.5 522.5 c 128,-1,25
 830 552 830 552 844 594 c 128,-1,26
 858 636 858 636 858 689 c 0,27,28
 858 745 858 745 844 787.5 c 128,-1,29
 830 830 830 830 798.5 858.5 c 128,-1,30
 767 887 767 887 716.5 901.5 c 128,-1,31
 666 916 666 916 593 916 c 2,32,-1
 439 916 l 1,33,-1
 439 461 l 1,21,-1
EndSplineSet
Validated: 1
EndChar

StartChar: germandbls
Encoding: 223 223 179
Width: 1143
GlyphClass: 2
Flags: W
LayerCount: 2
Fore
SplineSet
525 141 m 1,0,-1
 525 0 l 1,1,-1
 43 0 l 1,2,-1
 43 141 l 1,3,-1
 196 141 l 1,4,-1
 196 824 l 2,5,6
 196 921 196 921 222 997 c 128,-1,7
 248 1073 248 1073 300 1125.5 c 128,-1,8
 352 1178 352 1178 430.5 1205.5 c 128,-1,9
 509 1233 509 1233 614 1233 c 0,10,11
 695 1233 695 1233 763 1211 c 128,-1,12
 831 1189 831 1189 880 1149 c 128,-1,13
 929 1109 929 1109 956 1053.5 c 128,-1,14
 983 998 983 998 983 931 c 0,15,16
 983 843 983 843 941.5 778.5 c 128,-1,17
 900 714 900 714 809 678 c 1,18,19
 947 646 947 646 1022 566.5 c 128,-1,20
 1097 487 1097 487 1097 368 c 0,21,22
 1097 288 1097 288 1071 220.5 c 128,-1,23
 1045 153 1045 153 987.5 104 c 128,-1,24
 930 55 930 55 838.5 27.5 c 128,-1,25
 747 0 747 0 616 0 c 1,26,-1
 616 141 l 1,27,28
 671 141 671 141 719.5 152.5 c 128,-1,29
 768 164 768 164 804 190.5 c 128,-1,30
 840 217 840 217 861 260.5 c 128,-1,31
 882 304 882 304 882 368 c 0,32,33
 882 414 882 414 866.5 454 c 128,-1,34
 851 494 851 494 815 523.5 c 128,-1,35
 779 553 779 553 721 569.5 c 128,-1,36
 663 586 663 586 578 586 c 1,37,-1
 578 726 l 1,38,39
 633 726 633 726 671.5 742 c 128,-1,40
 710 758 710 758 734.5 785 c 128,-1,41
 759 812 759 812 770 847 c 128,-1,42
 781 882 781 882 781 920 c 0,43,44
 781 991 781 991 736.5 1035 c 128,-1,45
 692 1079 692 1079 614 1079 c 0,46,47
 567 1079 567 1079 529 1066 c 128,-1,48
 491 1053 491 1053 464.5 1023.5 c 128,-1,49
 438 994 438 994 423.5 946 c 128,-1,50
 409 898 409 898 409 828 c 2,51,-1
 409 141 l 1,52,-1
 525 141 l 1,0,-1
EndSplineSet
Validated: 1
EndChar

StartChar: ae
Encoding: 230 230 186
Width: 1542
GlyphClass: 2
Flags: W
LayerCount: 2
Fore
SplineSet
1443 137 m 1,0,1
 1389 63 1389 63 1296.5 22 c 128,-1,2
 1204 -19 1204 -19 1081 -19 c 0,3,4
 974 -19 974 -19 889.5 15 c 128,-1,5
 805 49 805 49 745 109 c 1,6,7
 667 49 667 49 569 15 c 128,-1,8
 471 -19 471 -19 353 -19 c 0,9,10
 287 -19 287 -19 233 1.5 c 128,-1,11
 179 22 179 22 141.5 57 c 128,-1,12
 104 92 104 92 83.5 137.5 c 128,-1,13
 63 183 63 183 63 233 c 0,14,15
 63 308 63 308 91 360 c 128,-1,16
 119 412 119 412 169 444.5 c 128,-1,17
 219 477 219 477 286.5 491.5 c 128,-1,18
 354 506 354 506 434 506 c 0,19,20
 482 506 482 506 528.5 500.5 c 128,-1,21
 575 495 575 495 626 485 c 1,22,-1
 626 571 l 2,23,24
 626 612 626 612 612 642 c 128,-1,25
 598 672 598 672 573.5 691.5 c 128,-1,26
 549 711 549 711 515.5 720.5 c 128,-1,27
 482 730 482 730 443 730 c 0,28,29
 361 730 361 730 305.5 706 c 128,-1,30
 250 682 250 682 204 636 c 1,31,-1
 103 748 l 1,32,33
 163 807 163 807 253 836.5 c 128,-1,34
 343 866 343 866 461 866 c 0,35,36
 520 866 520 866 565.5 858.5 c 128,-1,37
 611 851 611 851 647 834 c 128,-1,38
 683 817 683 817 712.5 787.5 c 128,-1,39
 742 758 742 758 768 715 c 1,40,41
 830 796 830 796 909 831 c 128,-1,42
 988 866 988 866 1082 866 c 0,43,44
 1180 866 1180 866 1254 829 c 128,-1,45
 1328 792 1328 792 1378 726.5 c 128,-1,46
 1428 661 1428 661 1453.5 573 c 128,-1,47
 1479 485 1479 485 1479 383 c 1,48,-1
 833 383 l 1,49,50
 837 329 837 329 854.5 283 c 128,-1,51
 872 237 872 237 903.5 203.5 c 128,-1,52
 935 170 935 170 981.5 151 c 128,-1,53
 1028 132 1028 132 1090 132 c 0,54,55
 1155 132 1155 132 1221 160 c 128,-1,56
 1287 188 1287 188 1335 241 c 1,57,-1
 1443 137 l 1,0,1
395 111 m 0,58,59
 435 111 435 111 473.5 120 c 128,-1,60
 512 129 512 129 547 143.5 c 128,-1,61
 582 158 582 158 614 176 c 128,-1,62
 646 194 646 194 672 213 c 1,63,64
 638 279 638 279 629 363 c 1,65,-1
 626 368 l 1,66,67
 588 371 588 371 541.5 378 c 128,-1,68
 495 385 495 385 446 385 c 0,69,70
 407 385 407 385 371.5 378.5 c 128,-1,71
 336 372 336 372 309 355.5 c 128,-1,72
 282 339 282 339 266 311 c 128,-1,73
 250 283 250 283 250 239 c 0,74,75
 250 212 250 212 260 189 c 128,-1,76
 270 166 270 166 288.5 148.5 c 128,-1,77
 307 131 307 131 334 121 c 128,-1,78
 361 111 361 111 395 111 c 0,58,59
1288 501 m 1,79,80
 1288 548 1288 548 1272 588 c 128,-1,81
 1256 628 1256 628 1227 657.5 c 128,-1,82
 1198 687 1198 687 1158 704 c 128,-1,83
 1118 721 1118 721 1071 721 c 0,84,85
 1019 721 1019 721 978.5 705.5 c 128,-1,86
 938 690 938 690 909 661 c 128,-1,87
 880 632 880 632 861.5 591.5 c 128,-1,88
 843 551 843 551 836 501 c 1,89,-1
 1288 501 l 1,79,80
EndSplineSet
Validated: 1
EndChar

StartChar: eth
Encoding: 240 240 196
Width: 1006
GlyphClass: 2
Flags: W
LayerCount: 2
Fore
SplineSet
510 968 m 1,0,-1
 636 1001 l 1,1,2
 602 1042 602 1042 557 1061.5 c 128,-1,3
 512 1081 512 1081 458 1081 c 0,4,5
 362 1081 362 1081 243 1020 c 1,6,-1
 177 1144 l 1,7,8
 199 1161 199 1161 231.5 1177 c 128,-1,9
 264 1193 264 1193 301 1205.5 c 128,-1,10
 338 1218 338 1218 378 1225.5 c 128,-1,11
 418 1233 418 1233 456 1233 c 0,12,13
 577 1233 577 1233 665.5 1185.5 c 128,-1,14
 754 1138 754 1138 811 1048 c 1,15,-1
 969 1091 l 1,16,-1
 1004 971 l 1,17,-1
 866 934 l 1,18,19
 917 793 917 793 917 596 c 0,20,21
 917 293 917 293 807 137 c 128,-1,22
 697 -19 697 -19 476 -19 c 0,23,24
 384 -19 384 -19 312 11 c 128,-1,25
 240 41 240 41 189.5 95.5 c 128,-1,26
 139 150 139 150 112.5 226.5 c 128,-1,27
 86 303 86 303 86 397 c 0,28,29
 86 478 86 478 112 546 c 128,-1,30
 138 614 138 614 185.5 662.5 c 128,-1,31
 233 711 233 711 298.5 738 c 128,-1,32
 364 765 364 765 443 765 c 0,33,34
 526 765 526 765 598.5 739.5 c 128,-1,35
 671 714 671 714 724 663 c 1,36,37
 724 796 724 796 695 888 c 1,38,-1
 545 848 l 1,39,-1
 510 968 l 1,0,-1
478 605 m 0,40,41
 429 605 429 605 390.5 588.5 c 128,-1,42
 352 572 352 572 325.5 542.5 c 128,-1,43
 299 513 299 513 285 471.5 c 128,-1,44
 271 430 271 430 271 380 c 0,45,46
 271 326 271 326 284.5 281 c 128,-1,47
 298 236 298 236 324.5 203 c 128,-1,48
 351 170 351 170 390.5 151.5 c 128,-1,49
 430 133 430 133 482 133 c 0,50,51
 543 133 543 133 585.5 157.5 c 128,-1,52
 628 182 628 182 656 229 c 128,-1,53
 684 276 684 276 699 343.5 c 128,-1,54
 714 411 714 411 720 498 c 1,55,56
 695 525 695 525 663.5 545.5 c 128,-1,57
 632 566 632 566 599.5 579 c 128,-1,58
 567 592 567 592 535.5 598.5 c 128,-1,59
 504 605 504 605 478 605 c 0,40,41
EndSplineSet
Validated: 1
EndChar

StartChar: divide
Encoding: 247 247 203
Width: 1164
GlyphClass: 2
Flags: W
LayerCount: 2
Fore
SplineSet
1001 613 m 1,0,-1
 1001 495 l 1,1,-1
 158 495 l 1,2,-1
 158 613 l 1,3,-1
 1001 613 l 1,0,-1
550 824 m 0,4,5
 540 824 540 824 532 838 c 128,-1,6
 524 852 524 852 518 871 c 128,-1,7
 512 890 512 890 509 908.5 c 128,-1,8
 506 927 506 927 506 935 c 0,9,10
 506 944 506 944 519 951.5 c 128,-1,11
 532 959 532 959 549.5 964.5 c 128,-1,12
 567 970 567 970 585 973 c 128,-1,13
 603 976 603 976 612 976 c 256,14,15
 621 976 621 976 629 961.5 c 128,-1,16
 637 947 637 947 643 928.5 c 128,-1,17
 649 910 649 910 652.5 891.5 c 128,-1,18
 656 873 656 873 656 864 c 256,19,20
 656 855 656 855 643 848 c 128,-1,21
 630 841 630 841 612 835.5 c 128,-1,22
 594 830 594 830 576.5 827 c 128,-1,23
 559 824 559 824 550 824 c 0,4,5
550 131 m 0,24,25
 540 131 540 131 532 145.5 c 128,-1,26
 524 160 524 160 518 179 c 128,-1,27
 512 198 512 198 509 216.5 c 128,-1,28
 506 235 506 235 506 244 c 0,29,30
 506 252 506 252 519 259.5 c 128,-1,31
 532 267 532 267 549.5 272.5 c 128,-1,32
 567 278 567 278 585 281 c 128,-1,33
 603 284 603 284 612 284 c 256,34,35
 621 284 621 284 629 269.5 c 128,-1,36
 637 255 637 255 643 236 c 128,-1,37
 649 217 649 217 652.5 198.5 c 128,-1,38
 656 180 656 180 656 171 c 256,39,40
 656 162 656 162 643 155 c 128,-1,41
 630 148 630 148 612 142.5 c 128,-1,42
 594 137 594 137 576.5 134 c 128,-1,43
 559 131 559 131 550 131 c 0,24,25
EndSplineSet
Validated: 1
EndChar

StartChar: oslash
Encoding: 248 248 204
Width: 967
GlyphClass: 2
Flags: W
LayerCount: 2
Fore
SplineSet
483 -20 m 0,0,1
 445 -20 445 -20 410 -15 c 128,-1,2
 375 -10 375 -10 343 -1 c 1,3,-1
 279 -126 l 1,4,-1
 185 -83 l 1,5,-1
 248 41 l 1,6,7
 157 98 157 98 107.5 193 c 128,-1,8
 58 288 58 288 58 402 c 0,9,10
 58 489 58 489 88 565.5 c 128,-1,11
 118 642 118 642 173.5 699.5 c 128,-1,12
 229 757 229 757 308 790.5 c 128,-1,13
 387 824 387 824 485 824 c 0,14,15
 571 824 571 824 637 799 c 1,16,-1
 702 926 l 1,17,-1
 796 883 l 1,18,-1
 730 753 l 1,19,20
 816 696 816 696 863.5 605 c 128,-1,21
 911 514 911 514 911 402 c 0,22,23
 911 315 911 315 881 238.5 c 128,-1,24
 851 162 851 162 795 104.5 c 128,-1,25
 739 47 739 47 660 13.5 c 128,-1,26
 581 -20 581 -20 483 -20 c 0,0,1
217 402 m 0,27,28
 217 329 217 329 241.5 268.5 c 128,-1,29
 266 208 266 208 314 168 c 1,30,-1
 574 677 l 1,31,32
 530 692 530 692 483 692 c 0,33,34
 421 692 421 692 372 669.5 c 128,-1,35
 323 647 323 647 288.5 608 c 128,-1,36
 254 569 254 569 235.5 516 c 128,-1,37
 217 463 217 463 217 402 c 0,27,28
483 111 m 0,38,39
 545 111 545 111 594.5 133 c 128,-1,40
 644 155 644 155 679 194 c 128,-1,41
 714 233 714 233 732.5 286.5 c 128,-1,42
 751 340 751 340 751 402 c 0,43,44
 751 471 751 471 728 527.5 c 128,-1,45
 705 584 705 584 663 623 c 1,46,-1
 406 120 l 1,47,48
 440 111 440 111 483 111 c 0,38,39
EndSplineSet
Validated: 1
EndChar

StartChar: thorn
Encoding: 254 254 210
Width: 835
GlyphClass: 2
Flags: W
LayerCount: 2
Fore
SplineSet
-96 -186 m 1,0,-1
 47 -186 l 1,1,-1
 47 1075 l 1,2,-1
 -100 1075 l 1,3,-1
 -100 1215 l 1,4,-1
 245 1215 l 1,5,-1
 245 750 l 1,6,7
 310 810 310 810 378.5 838 c 128,-1,8
 447 866 447 866 536 866 c 0,9,10
 628 866 628 866 702.5 832.5 c 128,-1,11
 777 799 777 799 829.5 741 c 128,-1,12
 882 683 882 683 910.5 603.5 c 128,-1,13
 939 524 939 524 939 433 c 0,14,15
 939 330 939 330 908 246.5 c 128,-1,16
 877 163 877 163 822.5 104 c 128,-1,17
 768 45 768 45 694 13 c 128,-1,18
 620 -19 620 -19 535 -19 c 0,19,20
 493 -19 493 -19 452 -11 c 128,-1,21
 411 -3 411 -3 373 12.5 c 128,-1,22
 335 28 335 28 302 51 c 128,-1,23
 269 74 269 74 245 104 c 1,24,-1
 245 -330 l 1,25,-1
 -96 -330 l 1,26,-1
 -96 -186 l 1,0,-1
480 137 m 0,27,28
 540 137 540 137 587 157.5 c 128,-1,29
 634 178 634 178 666 215.5 c 128,-1,30
 698 253 698 253 715 305 c 128,-1,31
 732 357 732 357 732 419 c 0,32,33
 732 482 732 482 715 535 c 128,-1,34
 698 588 698 588 665.5 627 c 128,-1,35
 633 666 633 666 586 688 c 128,-1,36
 539 710 539 710 479 710 c 0,37,38
 432 710 432 710 392.5 694.5 c 128,-1,39
 353 679 353 679 323 658.5 c 128,-1,40
 293 638 293 638 273 617.5 c 128,-1,41
 253 597 253 597 245 587 c 1,42,-1
 245 253 l 1,43,44
 254 244 254 244 274.5 224.5 c 128,-1,45
 295 205 295 205 325 185.5 c 128,-1,46
 355 166 355 166 394.5 151.5 c 128,-1,47
 434 137 434 137 480 137 c 0,27,28
EndSplineSet
Validated: 1
EndChar

StartChar: hbar
Encoding: 295 295 212
Width: 1024
GlyphClass: 2
Flags: W
LayerCount: 2
Fore
SplineSet
58 997 m 1,0,-1
 182 997 l 1,1,-1
 182 1075 l 1,2,-1
 33 1075 l 1,3,-1
 33 1215 l 1,4,-1
 378 1215 l 1,5,-1
 378 997 l 1,6,-1
 477 997 l 1,7,-1
 477 912 l 1,8,-1
 378 912 l 1,9,-1
 378 769 l 1,10,11
 454 820 454 820 523.5 843 c 128,-1,12
 593 866 593 866 668 866 c 0,13,14
 799 866 799 866 865.5 794 c 128,-1,15
 932 722 932 722 932 591 c 2,16,-1
 932 141 l 1,17,-1
 1063 141 l 1,18,-1
 1063 0 l 1,19,-1
 643 0 l 1,20,-1
 643 141 l 1,21,-1
 737 141 l 1,22,-1
 737 553 l 2,23,24
 737 587 737 587 731 616 c 128,-1,25
 725 645 725 645 710.5 666 c 128,-1,26
 696 687 696 687 671.5 699 c 128,-1,27
 647 711 647 711 610 711 c 0,28,29
 558 711 558 711 499 691 c 128,-1,30
 440 671 440 671 378 631 c 1,31,-1
 378 141 l 1,32,-1
 503 141 l 1,33,-1
 503 0 l 1,34,-1
 31 0 l 1,35,-1
 31 141 l 1,36,-1
 182 141 l 1,37,-1
 182 912 l 1,38,-1
 58 912 l 1,39,-1
 58 997 l 1,0,-1
EndSplineSet
Validated: 1
EndChar

StartChar: dotlessi
Encoding: 305 305 215
Width: 571
GlyphClass: 2
Flags: W
LayerCount: 2
Fore
SplineSet
67 709 m 1,0,-1
 67 849 l 1,1,-1
 400 849 l 1,2,-1
 400 140 l 1,3,-1
 537 140 l 1,4,-1
 537 0 l 1,5,-1
 67 0 l 1,6,-1
 67 140 l 1,7,-1
 204 140 l 1,8,-1
 204 709 l 1,9,-1
 67 709 l 1,0,-1
EndSplineSet
Validated: 1
EndChar

StartChar: kgreenlandic
Encoding: 312 312 221
Width: 1088
GlyphClass: 2
Flags: W
LayerCount: 2
Fore
SplineSet
35 0 m 1,0,-1
 35 141 l 1,1,-1
 186 141 l 1,2,-1
 186 709 l 1,3,-1
 34 709 l 1,4,-1
 34 849 l 1,5,-1
 381 849 l 1,6,-1
 381 439 l 1,7,-1
 688 709 l 1,8,-1
 555 709 l 1,9,-1
 555 849 l 1,10,-1
 1041 849 l 1,11,-1
 1041 709 l 1,12,-1
 904 709 l 1,13,-1
 589 430 l 1,14,-1
 917 141 l 1,15,-1
 1053 141 l 1,16,-1
 1053 0 l 1,17,-1
 608 0 l 1,18,-1
 608 141 l 1,19,-1
 695 141 l 1,20,-1
 381 418 l 1,21,-1
 381 141 l 1,22,-1
 491 141 l 1,23,-1
 491 0 l 1,24,-1
 35 0 l 1,0,-1
EndSplineSet
Validated: 1
EndChar

StartChar: Lslash
Encoding: 321 321 224
Width: 1076
GlyphClass: 2
Flags: W
LayerCount: 2
Fore
SplineSet
60 579 m 1,0,-1
 227 645 l 1,1,-1
 227 1075 l 1,2,-1
 58 1075 l 1,3,-1
 58 1215 l 1,4,-1
 612 1215 l 1,5,-1
 612 1075 l 1,6,-1
 445 1075 l 1,7,-1
 445 732 l 1,8,-1
 627 805 l 1,9,-1
 627 676 l 1,10,-1
 445 603 l 1,11,-1
 445 141 l 1,12,-1
 854 141 l 1,13,-1
 854 506 l 1,14,-1
 1034 506 l 1,15,-1
 1034 0 l 1,16,-1
 58 0 l 1,17,-1
 58 141 l 1,18,-1
 227 141 l 1,19,-1
 227 516 l 1,20,-1
 60 450 l 1,21,-1
 60 579 l 1,0,-1
EndSplineSet
Validated: 1
EndChar

StartChar: lslash
Encoding: 322 322 225
Width: 556
GlyphClass: 2
Flags: W
LayerCount: 2
Fore
SplineSet
36 0 m 1,0,-1
 36 141 l 1,1,-1
 187 141 l 1,2,-1
 187 494 l 1,3,-1
 68 450 l 1,4,-1
 68 579 l 1,5,-1
 187 625 l 1,6,-1
 187 1075 l 1,7,-1
 38 1075 l 1,8,-1
 38 1215 l 1,9,-1
 383 1215 l 1,10,-1
 383 701 l 1,11,-1
 504 748 l 1,12,-1
 504 612 l 1,13,-1
 383 567 l 1,14,-1
 383 141 l 1,15,-1
 518 141 l 1,16,-1
 518 0 l 1,17,-1
 36 0 l 1,0,-1
EndSplineSet
Validated: 1
EndChar

StartChar: OE
Encoding: 338 338 228
Width: 2046
GlyphClass: 2
Flags: W
LayerCount: 2
Fore
SplineSet
1960 1215 m 1,0,-1
 1960 867 l 1,1,-1
 1794 867 l 1,2,-1
 1794 1075 l 1,3,-1
 1298 1075 l 1,4,-1
 1298 696 l 1,5,-1
 1626 696 l 1,6,-1
 1626 812 l 1,7,-1
 1727 812 l 1,8,-1
 1727 434 l 1,9,-1
 1625 434 l 1,10,-1
 1625 547 l 1,11,-1
 1298 547 l 1,12,-1
 1298 141 l 1,13,-1
 1796 141 l 1,14,-1
 1796 355 l 1,15,-1
 1963 355 l 1,16,-1
 1963 0 l 1,17,-1
 1080 0 l 1,18,-1
 1080 91 l 1,19,20
 1011 39 1011 39 919.5 10 c 128,-1,21
 828 -19 828 -19 713 -19 c 0,22,23
 560 -19 560 -19 441.5 30.5 c 128,-1,24
 323 80 323 80 241.5 165.5 c 128,-1,25
 160 251 160 251 118 365 c 128,-1,26
 76 479 76 479 76 607 c 0,27,28
 76 736 76 736 118.5 850 c 128,-1,29
 161 964 161 964 242.5 1049 c 128,-1,30
 324 1134 324 1134 442.5 1183.5 c 128,-1,31
 561 1233 561 1233 712 1233 c 0,32,33
 827 1233 827 1233 919 1204.5 c 128,-1,34
 1011 1176 1011 1176 1080 1124 c 1,35,-1
 1080 1215 l 1,36,-1
 1960 1215 l 1,0,-1
314 605 m 0,37,38
 314 500 314 500 345 414 c 128,-1,39
 376 328 376 328 431.5 267.5 c 128,-1,40
 487 207 487 207 563.5 174 c 128,-1,41
 640 141 640 141 730 141 c 0,42,43
 833 141 833 141 922 172 c 128,-1,44
 1011 203 1011 203 1080 263 c 1,45,-1
 1080 956 l 1,46,47
 1009 1014 1009 1014 921 1044.5 c 128,-1,48
 833 1075 833 1075 728 1075 c 0,49,50
 641 1075 641 1075 565.5 1044 c 128,-1,51
 490 1013 490 1013 434 953 c 128,-1,52
 378 893 378 893 346 805.5 c 128,-1,53
 314 718 314 718 314 605 c 0,37,38
EndSplineSet
Validated: 1
EndChar

StartChar: oe
Encoding: 339 339 229
Width: 1715
GlyphClass: 2
Flags: W
LayerCount: 2
Fore
SplineSet
1616 137 m 1,0,1
 1559 63 1559 63 1462 22 c 128,-1,2
 1365 -19 1365 -19 1234 -19 c 0,3,4
 1113 -19 1113 -19 1019.5 26 c 128,-1,5
 926 71 926 71 864 149 c 1,6,7
 804 71 804 71 715.5 26 c 128,-1,8
 627 -19 627 -19 513 -19 c 0,9,10
 412 -19 412 -19 329 14.5 c 128,-1,11
 246 48 246 48 187 107 c 128,-1,12
 128 166 128 166 95.5 247 c 128,-1,13
 63 328 63 328 63 424 c 0,14,15
 63 521 63 521 96.5 602.5 c 128,-1,16
 130 684 130 684 190 742.5 c 128,-1,17
 250 801 250 801 333 833.5 c 128,-1,18
 416 866 416 866 515 866 c 0,19,20
 628 866 628 866 717.5 820.5 c 128,-1,21
 807 775 807 775 867 696 c 1,22,23
 930 775 930 775 1021.5 820.5 c 128,-1,24
 1113 866 1113 866 1225 866 c 0,25,26
 1331 866 1331 866 1411 829 c 128,-1,27
 1491 792 1491 792 1544.5 726.5 c 128,-1,28
 1598 661 1598 661 1625 573 c 128,-1,29
 1652 485 1652 485 1652 383 c 1,30,-1
 966 383 l 1,31,32
 970 329 970 329 988.5 283 c 128,-1,33
 1007 237 1007 237 1041.5 203.5 c 128,-1,34
 1076 170 1076 170 1126.5 151 c 128,-1,35
 1177 132 1177 132 1243 132 c 0,36,37
 1314 132 1314 132 1384.5 160 c 128,-1,38
 1455 188 1455 188 1508 241 c 1,39,-1
 1616 137 l 1,0,1
760 424 m 0,40,41
 760 487 760 487 743 540 c 128,-1,42
 726 593 726 593 694 631 c 128,-1,43
 662 669 662 669 616.5 690 c 128,-1,44
 571 711 571 711 513 711 c 0,45,46
 456 711 456 711 410.5 690 c 128,-1,47
 365 669 365 669 333.5 631 c 128,-1,48
 302 593 302 593 285 540 c 128,-1,49
 268 487 268 487 268 423 c 0,50,51
 268 360 268 360 285 307 c 128,-1,52
 302 254 302 254 334 216.5 c 128,-1,53
 366 179 366 179 411.5 158 c 128,-1,54
 457 137 457 137 514 137 c 256,55,56
 571 137 571 137 616.5 158 c 128,-1,57
 662 179 662 179 694 217 c 128,-1,58
 726 255 726 255 743 307.5 c 128,-1,59
 760 360 760 360 760 424 c 0,40,41
1461 501 m 1,60,61
 1454 549 1454 549 1435.5 589 c 128,-1,62
 1417 629 1417 629 1387.5 658.5 c 128,-1,63
 1358 688 1358 688 1317 704.5 c 128,-1,64
 1276 721 1276 721 1224 721 c 0,65,66
 1111 721 1111 721 1048.5 661 c 128,-1,67
 986 601 986 601 969 501 c 1,68,-1
 1461 501 l 1,60,61
EndSplineSet
Validated: 1
EndChar

StartChar: florin
Encoding: 402 402 240
Width: 916
GlyphClass: 2
Flags: W
LayerCount: 2
Fore
SplineSet
739 669 m 1,0,-1
 530 669 l 1,1,-1
 406 36 l 2,2,3
 384 -75 384 -75 348 -148.5 c 128,-1,4
 312 -222 312 -222 262.5 -266 c 128,-1,5
 213 -310 213 -310 149.5 -328.5 c 128,-1,6
 86 -347 86 -347 10 -347 c 0,7,8
 -29 -347 -29 -347 -70 -340.5 c 128,-1,9
 -111 -334 -111 -334 -139 -325 c 1,10,-1
 -114 -222 l 1,11,12
 -93 -230 -93 -230 -58.5 -237.5 c 128,-1,13
 -24 -245 -24 -245 6 -245 c 0,14,15
 37 -245 37 -245 59.5 -230 c 128,-1,16
 82 -215 82 -215 100 -182 c 128,-1,17
 118 -149 118 -149 132.5 -95 c 128,-1,18
 147 -41 147 -41 162 37 c 2,19,-1
 283 669 l 1,20,-1
 122 669 l 1,21,-1
 142 783 l 1,22,-1
 303 783 l 1,23,-1
 334 937 l 2,24,25
 348 1007 348 1007 375.5 1062.5 c 128,-1,26
 403 1118 403 1118 446 1155.5 c 128,-1,27
 489 1193 489 1193 548.5 1213 c 128,-1,28
 608 1233 608 1233 686 1233 c 0,29,30
 749 1233 749 1233 796 1223 c 128,-1,31
 843 1213 843 1213 873.5 1195.5 c 128,-1,32
 904 1178 904 1178 919 1154 c 128,-1,33
 934 1130 934 1130 934 1102 c 256,34,35
 934 1074 934 1074 925 1049.5 c 128,-1,36
 916 1025 916 1025 894.5 1007 c 128,-1,37
 873 989 873 989 836.5 979 c 128,-1,38
 800 969 800 969 746 969 c 1,39,40
 746 1049 746 1049 729 1094.5 c 128,-1,41
 712 1140 712 1140 678 1140 c 0,42,43
 639 1140 639 1140 619.5 1093 c 128,-1,44
 600 1046 600 1046 582 948 c 2,45,-1
 550 783 l 1,46,-1
 760 783 l 1,47,-1
 739 669 l 1,0,-1
EndSplineSet
Validated: 1
EndChar

StartChar: uni0237
Encoding: 567 567 269
Width: 523
GlyphClass: 2
Flags: W
LayerCount: 2
Fore
SplineSet
14 709 m 1,0,-1
 14 849 l 1,1,-1
 379 849 l 1,2,-1
 379 47 l 2,3,4
 379 -40 379 -40 370 -111.5 c 128,-1,5
 361 -183 361 -183 327.5 -234 c 128,-1,6
 294 -285 294 -285 228 -313.5 c 128,-1,7
 162 -342 162 -342 48 -342 c 2,8,-1
 -48 -342 l 1,9,-1
 -48 -186 l 1,10,-1
 48 -186 l 2,11,12
 87 -186 87 -186 112.5 -176 c 128,-1,13
 138 -166 138 -166 153.5 -145 c 128,-1,14
 169 -124 169 -124 175 -91 c 128,-1,15
 181 -58 181 -58 181 -13 c 2,16,-1
 181 709 l 1,17,-1
 14 709 l 1,0,-1
EndSplineSet
Validated: 1
EndChar

StartChar: circumflex
Encoding: 710 710 270
Width: 593
GlyphClass: 2
Flags: W
LayerCount: 2
Fore
SplineSet
18 959 m 1,0,-1
 152 1288 l 1,1,-1
 435 1288 l 1,2,-1
 575 959 l 1,3,-1
 395 959 l 1,4,-1
 294 1211 l 1,5,-1
 193 959 l 1,6,-1
 18 959 l 1,0,-1
EndSplineSet
Validated: 1
EndChar

StartChar: caron
Encoding: 711 711 271
Width: 593
GlyphClass: 2
Flags: W
LayerCount: 2
Fore
SplineSet
145 1171 m 1,0,-1
 299 1017 l 1,1,-1
 451 1171 l 1,2,-1
 555 1171 l 1,3,-1
 396 912 l 1,4,-1
 200 912 l 1,5,-1
 38 1171 l 1,6,-1
 145 1171 l 1,0,-1
EndSplineSet
Validated: 1
EndChar

StartChar: breve
Encoding: 728 728 272
Width: 584
GlyphClass: 2
Flags: W
LayerCount: 2
Fore
SplineSet
150 1199 m 1,0,1
 160 1142 160 1142 193.5 1110.5 c 128,-1,2
 227 1079 227 1079 284 1079 c 0,3,4
 338 1079 338 1079 373 1110.5 c 128,-1,5
 408 1142 408 1142 416 1199 c 1,6,-1
 549 1199 l 1,7,8
 544 1145 544 1145 522.5 1101 c 128,-1,9
 501 1057 501 1057 466.5 1025.5 c 128,-1,10
 432 994 432 994 385.5 977 c 128,-1,11
 339 960 339 960 284 960 c 0,12,13
 230 960 230 960 183.5 977 c 128,-1,14
 137 994 137 994 102.5 1025.5 c 128,-1,15
 68 1057 68 1057 46.5 1101 c 128,-1,16
 25 1145 25 1145 21 1199 c 1,17,-1
 150 1199 l 1,0,1
EndSplineSet
Validated: 1
EndChar

StartChar: dotaccent
Encoding: 729 729 273
Width: 535
GlyphClass: 2
Flags: W
LayerCount: 2
Fore
SplineSet
357 1215 m 1,0,-1
 357 1030 l 1,1,-1
 170 1030 l 1,2,-1
 170 1215 l 1,3,-1
 357 1215 l 1,0,-1
EndSplineSet
Validated: 1
EndChar

StartChar: ring
Encoding: 730 730 274
Width: 565
GlyphClass: 2
Flags: W
LayerCount: 2
Fore
SplineSet
281 1244 m 256,0,1
 325 1244 325 1244 359 1230.5 c 128,-1,2
 393 1217 393 1217 416.5 1194 c 128,-1,3
 440 1171 440 1171 452 1141 c 128,-1,4
 464 1111 464 1111 464 1078 c 0,5,6
 464 1044 464 1044 451.5 1013 c 128,-1,7
 439 982 439 982 415.5 958 c 128,-1,8
 392 934 392 934 358 920 c 128,-1,9
 324 906 324 906 281 906 c 256,10,11
 238 906 238 906 204.5 920 c 128,-1,12
 171 934 171 934 147.5 958 c 128,-1,13
 124 982 124 982 111.5 1013 c 128,-1,14
 99 1044 99 1044 99 1078 c 0,15,16
 99 1111 99 1111 111 1141 c 128,-1,17
 123 1171 123 1171 146.5 1194 c 128,-1,18
 170 1217 170 1217 203.5 1230.5 c 128,-1,19
 237 1244 237 1244 281 1244 c 256,0,1
281 1175 m 256,20,21
 231 1175 231 1175 204.5 1145 c 128,-1,22
 178 1115 178 1115 178 1076 c 256,23,24
 178 1037 178 1037 204.5 1007 c 128,-1,25
 231 977 231 977 281 977 c 256,26,27
 331 977 331 977 358 1007 c 128,-1,28
 385 1037 385 1037 385 1076 c 256,29,30
 385 1115 385 1115 358 1145 c 128,-1,31
 331 1175 331 1175 281 1175 c 256,20,21
EndSplineSet
Validated: 1
EndChar

StartChar: ogonek
Encoding: 731 731 275
Width: 587
GlyphClass: 2
Flags: W
LayerCount: 2
Fore
SplineSet
311 0 m 1,0,1
 285 -36 285 -36 275.5 -65 c 128,-1,2
 266 -94 266 -94 266 -126 c 0,3,4
 266 -233 266 -233 364 -233 c 0,5,6
 387 -233 387 -233 407 -228.5 c 128,-1,7
 427 -224 427 -224 451 -213 c 1,8,-1
 451 -316 l 1,9,10
 410 -336 410 -336 381 -344.5 c 128,-1,11
 352 -353 352 -353 317 -353 c 0,12,13
 278 -353 278 -353 245 -340 c 128,-1,14
 212 -327 212 -327 188 -304 c 128,-1,15
 164 -281 164 -281 150.5 -248.5 c 128,-1,16
 137 -216 137 -216 137 -177 c 0,17,18
 137 -158 137 -158 139.5 -138.5 c 128,-1,19
 142 -119 142 -119 149 -98 c 128,-1,20
 156 -77 156 -77 167.5 -53 c 128,-1,21
 179 -29 179 -29 197 0 c 1,22,-1
 311 0 l 1,0,1
EndSplineSet
Validated: 1
EndChar

StartChar: tilde
Encoding: 732 732 276
Width: 587
GlyphClass: 2
Flags: W
LayerCount: 2
Fore
SplineSet
1 973 m 1,0,1
 5 1028 5 1028 20 1067.5 c 128,-1,2
 35 1107 35 1107 57 1132.5 c 128,-1,3
 79 1158 79 1158 107 1170 c 128,-1,4
 135 1182 135 1182 165 1182 c 0,5,6
 200 1182 200 1182 235 1171.5 c 128,-1,7
 270 1161 270 1161 303 1148.5 c 128,-1,8
 336 1136 336 1136 366.5 1125.5 c 128,-1,9
 397 1115 397 1115 424 1115 c 0,10,11
 468 1115 468 1115 480 1177 c 1,12,-1
 586 1177 l 1,13,14
 579 1077 579 1077 536 1020.5 c 128,-1,15
 493 964 493 964 419 964 c 0,16,17
 381 964 381 964 346 975 c 128,-1,18
 311 986 311 986 279 998.5 c 128,-1,19
 247 1011 247 1011 218 1022 c 128,-1,20
 189 1033 189 1033 163 1033 c 256,21,22
 137 1033 137 1033 125.5 1017.5 c 128,-1,23
 114 1002 114 1002 109 973 c 1,24,-1
 1 973 l 1,0,1
EndSplineSet
Validated: 1
EndChar

StartChar: hungarumlaut
Encoding: 733 733 277
Width: 677
GlyphClass: 2
Flags: W
LayerCount: 2
Fore
SplineSet
329 955 m 1,0,-1
 449 1266 l 1,1,-1
 702 1266 l 1,2,-1
 487 955 l 1,3,-1
 329 955 l 1,0,-1
8 955 m 1,4,-1
 129 1266 l 1,5,-1
 382 1266 l 1,6,-1
 167 955 l 1,7,-1
 8 955 l 1,4,-1
EndSplineSet
Validated: 1
EndChar

StartChar: uni0307
Encoding: 775 775 278
Width: 535
GlyphClass: 2
Flags: W
LayerCount: 2
Fore
SplineSet
357 1215 m 1,0,-1
 357 1030 l 1,1,-1
 170 1030 l 1,2,-1
 170 1215 l 1,3,-1
 357 1215 l 1,0,-1
EndSplineSet
Validated: 1
EndChar

StartChar: uni030F
Encoding: 783 783 279
Width: 677
GlyphClass: 2
Flags: W
LayerCount: 2
Fore
SplineSet
214 955 m 1,0,-1
 0 1266 l 1,1,-1
 252 1266 l 1,2,-1
 373 955 l 1,3,-1
 214 955 l 1,0,-1
535 955 m 1,4,-1
 320 1266 l 1,5,-1
 572 1266 l 1,6,-1
 693 955 l 1,7,-1
 535 955 l 1,4,-1
EndSplineSet
Validated: 1
EndChar

StartChar: uni0311
Encoding: 785 785 280
Width: 584
GlyphClass: 2
Flags: W
LayerCount: 2
Fore
SplineSet
21 960 m 1,0,1
 25 1014 25 1014 46.5 1058 c 128,-1,2
 68 1102 68 1102 102.5 1133.5 c 128,-1,3
 137 1165 137 1165 183.5 1182 c 128,-1,4
 230 1199 230 1199 284 1199 c 0,5,6
 339 1199 339 1199 385.5 1181.5 c 128,-1,7
 432 1164 432 1164 466.5 1132.5 c 128,-1,8
 501 1101 501 1101 522.5 1057 c 128,-1,9
 544 1013 544 1013 549 960 c 1,10,-1
 416 960 l 1,11,12
 408 1017 408 1017 373 1048 c 128,-1,13
 338 1079 338 1079 284 1079 c 0,14,15
 227 1079 227 1079 193.5 1048 c 128,-1,16
 160 1017 160 1017 150 960 c 1,17,-1
 21 960 l 1,0,1
EndSplineSet
Validated: 1
EndChar

StartChar: uni0326
Encoding: 806 806 281
Width: 496
GlyphClass: 2
Flags: W
LayerCount: 2
Fore
SplineSet
134 -144 m 1,0,-1
 380 -144 l 1,1,2
 381 -194 381 -194 383 -238 c 0,3,4
 385 -276 385 -276 386 -312 c 128,-1,5
 387 -348 387 -348 387 -365 c 0,6,7
 387 -437 387 -437 374.5 -491.5 c 128,-1,8
 362 -546 362 -546 332 -582.5 c 128,-1,9
 302 -619 302 -619 252.5 -637.5 c 128,-1,10
 203 -656 203 -656 130 -657 c 1,11,-1
 130 -555 l 1,12,13
 166 -548 166 -548 191 -536 c 128,-1,14
 216 -524 216 -524 232 -504 c 128,-1,15
 248 -484 248 -484 255 -455 c 128,-1,16
 262 -426 262 -426 262 -385 c 1,17,-1
 134 -385 l 1,18,-1
 134 -144 l 1,0,-1
EndSplineSet
Validated: 1
EndChar

StartChar: pi
Encoding: 960 960 282
Width: 1094
GlyphClass: 2
Flags: W
LayerCount: 2
Fore
SplineSet
1018 645 m 1,0,-1
 808 645 l 1,1,2
 803 588 803 588 799.5 527 c 128,-1,3
 796 466 796 466 794 409.5 c 128,-1,4
 792 353 792 353 791 305 c 128,-1,5
 790 257 790 257 790 226 c 0,6,7
 790 162 790 162 814.5 137 c 128,-1,8
 839 112 839 112 875 112 c 0,9,10
 898 112 898 112 919.5 117 c 128,-1,11
 941 122 941 122 957 128 c 1,12,-1
 957 30 l 1,13,14
 937 11 937 11 902 -1 c 128,-1,15
 867 -13 867 -13 822 -13 c 0,16,17
 779 -13 779 -13 745 -3 c 128,-1,18
 711 7 711 7 687.5 29 c 128,-1,19
 664 51 664 51 651.5 87 c 128,-1,20
 639 123 639 123 639 174 c 0,21,22
 639 214 639 214 643.5 270.5 c 128,-1,23
 648 327 648 327 655.5 390 c 128,-1,24
 663 453 663 453 672.5 519 c 128,-1,25
 682 585 682 585 692 645 c 1,26,-1
 427 645 l 1,27,-1
 407 244 l 2,28,29
 404 181 404 181 392 135 c 128,-1,30
 380 89 380 89 354.5 59 c 128,-1,31
 329 29 329 29 288 14.5 c 128,-1,32
 247 0 247 0 188 0 c 2,33,-1
 82 0 l 1,34,-1
 82 82 l 1,35,36
 107 82 107 82 136.5 92 c 128,-1,37
 166 102 166 102 193 126 c 128,-1,38
 220 150 220 150 241 190.5 c 128,-1,39
 262 231 262 231 271 293 c 2,40,-1
 319 645 l 1,41,-1
 246 645 l 2,42,43
 200 645 200 645 176.5 617 c 128,-1,44
 153 589 153 589 146 545 c 1,45,-1
 53 545 l 1,46,47
 53 607 53 607 67.5 662 c 128,-1,48
 82 717 82 717 113.5 758.5 c 128,-1,49
 145 800 145 800 193.5 824.5 c 128,-1,50
 242 849 242 849 310 849 c 2,51,-1
 1018 849 l 1,52,-1
 1018 645 l 1,0,-1
EndSplineSet
Validated: 1
EndChar

StartChar: endash
Encoding: 8211 8211 283
Width: 1001
GlyphClass: 2
Flags: W
LayerCount: 2
Fore
SplineSet
937 506.400390625 m 5,0,-1
 937 382.400390625 l 5,1,-1
 64 382.400390625 l 5,2,-1
 64 506.400390625 l 5,3,-1
 937 506.400390625 l 5,0,-1
EndSplineSet
Validated: 524289
EndChar

StartChar: emdash
Encoding: 8212 8212 284
Width: 1823
GlyphClass: 2
Flags: W
LayerCount: 2
Fore
SplineSet
1759 506.400390625 m 5,0,-1
 1759 382.400390625 l 5,1,-1
 64 382.400390625 l 5,2,-1
 64 506.400390625 l 5,3,-1
 1759 506.400390625 l 5,0,-1
EndSplineSet
Validated: 524289
EndChar

StartChar: quoteleft
Encoding: 8216 8216 285
Width: 382
GlyphClass: 2
Flags: W
LayerCount: 2
Fore
SplineSet
289 787 m 1,0,-1
 86 787 l 1,1,-1
 86 1000 l 2,2,3
 86 1055 86 1055 96.5 1098.5 c 128,-1,4
 107 1142 107 1142 131.5 1171.5 c 128,-1,5
 156 1201 156 1201 195.5 1217 c 128,-1,6
 235 1233 235 1233 293 1233 c 1,7,-1
 293 1137 l 1,8,9
 267 1131 267 1131 248.5 1122 c 128,-1,10
 230 1113 230 1113 218.5 1097.5 c 128,-1,11
 207 1082 207 1082 201.5 1059 c 128,-1,12
 196 1036 196 1036 196 1003 c 1,13,-1
 289 1003 l 1,14,-1
 289 787 l 1,0,-1
EndSplineSet
Validated: 1
EndChar

StartChar: quoteright
Encoding: 8217 8217 286
Width: 364
GlyphClass: 2
Flags: W
LayerCount: 2
Fore
SplineSet
88 1215 m 1,0,-1
 291 1215 l 1,1,-1
 291 1003 l 2,2,3
 291 947 291 947 280.5 904 c 128,-1,4
 270 861 270 861 246 831 c 128,-1,5
 222 801 222 801 182.5 785 c 128,-1,6
 143 769 143 769 85 768 c 1,7,-1
 85 865 l 1,8,9
 112 870 112 870 130 879 c 128,-1,10
 148 888 148 888 159.5 904 c 128,-1,11
 171 920 171 920 176.5 943 c 128,-1,12
 182 966 182 966 183 1000 c 1,13,-1
 88 1000 l 1,14,-1
 88 1215 l 1,0,-1
EndSplineSet
Validated: 1
EndChar

StartChar: quotesinglbase
Encoding: 8218 8218 287
Width: 389
GlyphClass: 2
Flags: W
LayerCount: 2
Fore
SplineSet
88 203 m 1,0,-1
 291 203 l 1,1,-1
 291 -9 l 2,2,3
 291 -65 291 -65 280.5 -108 c 128,-1,4
 270 -151 270 -151 246 -181 c 128,-1,5
 222 -211 222 -211 182.5 -227 c 128,-1,6
 143 -243 143 -243 85 -244 c 1,7,-1
 85 -147 l 1,8,9
 112 -142 112 -142 130 -133 c 128,-1,10
 148 -124 148 -124 159.5 -108 c 128,-1,11
 171 -92 171 -92 176.5 -69 c 128,-1,12
 182 -46 182 -46 183 -12 c 1,13,-1
 88 -12 l 1,14,-1
 88 203 l 1,0,-1
EndSplineSet
Validated: 1
EndChar

StartChar: quotedblleft
Encoding: 8220 8220 288
Width: 691
GlyphClass: 2
Flags: W
LayerCount: 2
Fore
SplineSet
594 787 m 1,0,-1
 392 787 l 1,1,-1
 392 1000 l 2,2,3
 392 1055 392 1055 402.5 1098.5 c 128,-1,4
 413 1142 413 1142 437.5 1171.5 c 128,-1,5
 462 1201 462 1201 501.5 1217 c 128,-1,6
 541 1233 541 1233 599 1233 c 1,7,-1
 599 1137 l 1,8,9
 573 1131 573 1131 554.5 1122 c 128,-1,10
 536 1113 536 1113 524.5 1097.5 c 128,-1,11
 513 1082 513 1082 507.5 1059 c 128,-1,12
 502 1036 502 1036 502 1003 c 1,13,-1
 594 1003 l 1,14,-1
 594 787 l 1,0,-1
289 787 m 1,15,-1
 86 787 l 1,16,-1
 86 1000 l 2,17,18
 86 1055 86 1055 96.5 1098.5 c 128,-1,19
 107 1142 107 1142 131.5 1171.5 c 128,-1,20
 156 1201 156 1201 195.5 1217 c 128,-1,21
 235 1233 235 1233 293 1233 c 1,22,-1
 293 1137 l 1,23,24
 267 1131 267 1131 248.5 1122 c 128,-1,25
 230 1113 230 1113 218.5 1097.5 c 128,-1,26
 207 1082 207 1082 201.5 1059 c 128,-1,27
 196 1036 196 1036 196 1003 c 1,28,-1
 289 1003 l 1,29,-1
 289 787 l 1,15,-1
EndSplineSet
Validated: 1
EndChar

StartChar: quotedblright
Encoding: 8221 8221 289
Width: 677
GlyphClass: 2
Flags: W
LayerCount: 2
Fore
SplineSet
88 1215 m 1,0,-1
 291 1215 l 1,1,-1
 291 1003 l 2,2,3
 291 947 291 947 280.5 904 c 128,-1,4
 270 861 270 861 246 831 c 128,-1,5
 222 801 222 801 182.5 785 c 128,-1,6
 143 769 143 769 85 768 c 1,7,-1
 85 865 l 1,8,9
 112 870 112 870 130 879 c 128,-1,10
 148 888 148 888 159.5 904 c 128,-1,11
 171 920 171 920 176.5 943 c 128,-1,12
 182 966 182 966 183 1000 c 1,13,-1
 88 1000 l 1,14,-1
 88 1215 l 1,0,-1
387 1215 m 1,15,-1
 590 1215 l 1,16,-1
 590 1003 l 2,17,18
 590 947 590 947 579.5 904 c 128,-1,19
 569 861 569 861 545 831 c 128,-1,20
 521 801 521 801 481.5 785 c 128,-1,21
 442 769 442 769 384 768 c 1,22,-1
 384 865 l 1,23,24
 411 870 411 870 429 879 c 128,-1,25
 447 888 447 888 458.5 904 c 128,-1,26
 470 920 470 920 475.5 943 c 128,-1,27
 481 966 481 966 482 1000 c 1,28,-1
 387 1000 l 1,29,-1
 387 1215 l 1,15,-1
EndSplineSet
Validated: 1
EndChar

StartChar: quotedblbase
Encoding: 8222 8222 290
Width: 785
GlyphClass: 2
Flags: W
LayerCount: 2
Fore
SplineSet
483 203 m 1,0,-1
 686 203 l 1,1,-1
 686 -9 l 2,2,3
 686 -65 686 -65 675.5 -108 c 128,-1,4
 665 -151 665 -151 641 -181 c 128,-1,5
 617 -211 617 -211 577.5 -227 c 128,-1,6
 538 -243 538 -243 480 -244 c 1,7,-1
 480 -147 l 1,8,9
 507 -142 507 -142 525 -133 c 128,-1,10
 543 -124 543 -124 554.5 -108 c 128,-1,11
 566 -92 566 -92 571 -69 c 128,-1,12
 576 -46 576 -46 577 -12 c 1,13,-1
 483 -12 l 1,14,-1
 483 203 l 1,0,-1
123 203 m 1,15,-1
 326 203 l 1,16,-1
 326 -9 l 2,17,18
 326 -65 326 -65 315.5 -108 c 128,-1,19
 305 -151 305 -151 281 -181 c 128,-1,20
 257 -211 257 -211 217.5 -227 c 128,-1,21
 178 -243 178 -243 120 -244 c 1,22,-1
 120 -147 l 1,23,24
 147 -142 147 -142 165 -133 c 128,-1,25
 183 -124 183 -124 194.5 -108 c 128,-1,26
 206 -92 206 -92 211 -69 c 128,-1,27
 216 -46 216 -46 217 -12 c 1,28,-1
 123 -12 l 1,29,-1
 123 203 l 1,15,-1
EndSplineSet
Validated: 1
EndChar

StartChar: dagger
Encoding: 8224 8224 291
Width: 833
GlyphClass: 2
Flags: W
LayerCount: 2
Fore
SplineSet
539 576 m 1,0,1
 524 510 524 510 509.5 430 c 128,-1,2
 495 350 495 350 483.5 252 c 128,-1,3
 472 154 472 154 465 35.5 c 128,-1,4
 458 -83 458 -83 458 -227 c 1,5,-1
 370 -227 l 1,6,7
 370 -85 370 -85 363 33 c 128,-1,8
 356 151 356 151 345 249.5 c 128,-1,9
 334 348 334 348 320.5 428 c 128,-1,10
 307 508 307 508 293 576 c 1,11,-1
 370 765 l 1,12,-1
 72 718 l 1,13,-1
 72 913 l 1,14,-1
 370 869 l 1,15,-1
 310 1235 l 1,16,-1
 522 1235 l 1,17,-1
 458 869 l 1,18,-1
 757 913 l 1,19,-1
 757 718 l 1,20,-1
 458 765 l 1,21,-1
 539 576 l 1,0,1
EndSplineSet
Validated: 1
EndChar

StartChar: daggerdbl
Encoding: 8225 8225 292
Width: 853
GlyphClass: 2
Flags: W
LayerCount: 2
Fore
SplineSet
478 141 m 1,0,-1
 756 189 l 1,1,-1
 756 -6 l 1,2,-1
 458 37 l 1,3,-1
 522 -227 l 1,4,-1
 309 -227 l 1,5,-1
 370 37 l 1,6,-1
 72 -6 l 1,7,-1
 72 189 l 1,8,-1
 350 141 l 1,9,-1
 362 508 l 1,10,-1
 350 865 l 1,11,-1
 72 818 l 1,12,-1
 72 1012 l 1,13,-1
 370 969 l 1,14,-1
 309 1233 l 1,15,-1
 522 1233 l 1,16,-1
 458 969 l 1,17,-1
 756 1012 l 1,18,-1
 756 818 l 1,19,-1
 478 865 l 1,20,-1
 465 506 l 1,21,-1
 478 141 l 1,0,-1
EndSplineSet
Validated: 1
EndChar

StartChar: bullet
Encoding: 8226 8226 293
Width: 559
GlyphClass: 2
Flags: W
LayerCount: 2
Fore
SplineSet
280 754 m 256,0,1
 322 754 322 754 358.5 739 c 128,-1,2
 395 724 395 724 422 698.5 c 128,-1,3
 449 673 449 673 465 637.5 c 128,-1,4
 481 602 481 602 481 562 c 256,5,6
 481 522 481 522 465 486.5 c 128,-1,7
 449 451 449 451 422 425 c 128,-1,8
 395 399 395 399 358.5 383.5 c 128,-1,9
 322 368 322 368 280 368 c 256,10,11
 238 368 238 368 201.5 383.5 c 128,-1,12
 165 399 165 399 138 425 c 128,-1,13
 111 451 111 451 95.5 486.5 c 128,-1,14
 80 522 80 522 80 562 c 256,15,16
 80 602 80 602 95.5 637.5 c 128,-1,17
 111 673 111 673 138 698.5 c 128,-1,18
 165 724 165 724 201.5 739 c 128,-1,19
 238 754 238 754 280 754 c 256,0,1
EndSplineSet
Validated: 1
EndChar

StartChar: ellipsis
Encoding: 8230 8230 294
Width: 1501
GlyphClass: 2
Flags: W
LayerCount: 2
Fore
SplineSet
127 244 m 1,0,1
 147 244 147 244 181.5 243.5 c 128,-1,2
 216 243 216 243 253 242 c 128,-1,3
 290 241 290 241 323.5 240 c 128,-1,4
 357 239 357 239 375 238 c 1,5,6
 375 220 375 220 374.5 186 c 128,-1,7
 374 152 374 152 372.5 116 c 128,-1,8
 371 80 371 80 369.5 47.5 c 128,-1,9
 368 15 368 15 367 -1 c 1,10,11
 347 -1 347 -1 312.5 -0.5 c 128,-1,12
 278 0 278 0 241.5 1 c 128,-1,13
 205 2 205 2 171.5 3 c 128,-1,14
 138 4 138 4 120 6 c 1,15,16
 120 24 120 24 120.5 57.5 c 128,-1,17
 121 91 121 91 122 127 c 128,-1,18
 123 163 123 163 124 195.5 c 128,-1,19
 125 228 125 228 127 244 c 1,0,1
627 244 m 1,20,21
 647 244 647 244 681.5 243.5 c 128,-1,22
 716 243 716 243 753 242 c 128,-1,23
 790 241 790 241 823.5 240 c 128,-1,24
 857 239 857 239 875 238 c 1,25,26
 875 220 875 220 874.5 186 c 128,-1,27
 874 152 874 152 873 116 c 128,-1,28
 872 80 872 80 870.5 47.5 c 128,-1,29
 869 15 869 15 867 -1 c 1,30,31
 847 -1 847 -1 812.5 -0.5 c 128,-1,32
 778 0 778 0 741.5 1 c 128,-1,33
 705 2 705 2 671.5 3 c 128,-1,34
 638 4 638 4 620 6 c 1,35,36
 620 24 620 24 620.5 57.5 c 128,-1,37
 621 91 621 91 622 127 c 128,-1,38
 623 163 623 163 624 195.5 c 128,-1,39
 625 228 625 228 627 244 c 1,20,21
1127 244 m 1,40,41
 1148 244 1148 244 1182.5 243.5 c 128,-1,42
 1217 243 1217 243 1253.5 242 c 128,-1,43
 1290 241 1290 241 1323.5 240 c 128,-1,44
 1357 239 1357 239 1375 238 c 1,45,46
 1375 220 1375 220 1374.5 186 c 128,-1,47
 1374 152 1374 152 1373 116 c 128,-1,48
 1372 80 1372 80 1370.5 47.5 c 128,-1,49
 1369 15 1369 15 1368 -1 c 1,50,51
 1347 -1 1347 -1 1312.5 -0.5 c 128,-1,52
 1278 0 1278 0 1241.5 1 c 128,-1,53
 1205 2 1205 2 1171.5 3 c 128,-1,54
 1138 4 1138 4 1120 6 c 1,55,56
 1120 24 1120 24 1120.5 57.5 c 128,-1,57
 1121 91 1121 91 1122 127 c 128,-1,58
 1123 163 1123 163 1124 195.5 c 128,-1,59
 1125 228 1125 228 1127 244 c 1,40,41
EndSplineSet
Validated: 1
EndChar

StartChar: guilsinglleft
Encoding: 8249 8249 295
Width: 723
GlyphClass: 2
Flags: W
LayerCount: 2
Fore
SplineSet
133 606 m 1,0,-1
 446 963 l 1,1,-1
 590 963 l 1,2,-1
 383 553 l 1,3,-1
 590 143 l 1,4,-1
 446 143 l 1,5,-1
 133 500 l 1,6,-1
 133 606 l 1,0,-1
EndSplineSet
Validated: 1
EndChar

StartChar: guilsinglright
Encoding: 8250 8250 296
Width: 723
GlyphClass: 2
Flags: W
LayerCount: 2
Fore
SplineSet
590 500 m 1,0,-1
 276 143 l 1,1,-1
 133 143 l 1,2,-1
 340 553 l 1,3,-1
 133 963 l 1,4,-1
 276 963 l 1,5,-1
 590 606 l 1,6,-1
 590 500 l 1,0,-1
EndSplineSet
Validated: 1
EndChar

StartChar: fraction
Encoding: 8260 8260 297
Width: 865
GlyphClass: 2
Flags: W
LayerCount: 2
Fore
SplineSet
668 1246 m 1,0,-1
 775 1217 l 1,1,-1
 202 -35 l 1,2,-1
 94 -6 l 1,3,-1
 668 1246 l 1,0,-1
EndSplineSet
Validated: 1
EndChar

StartChar: uni2074
Encoding: 8308 8308 298
Width: 666
GlyphClass: 2
Flags: W
LayerCount: 2
Fore
SplineSet
606 107 m 1,0,-1
 606 0 l 1,1,-1
 267 0 l 1,2,-1
 267 107 l 1,3,-1
 385 107 l 1,4,-1
 385 242 l 1,5,-1
 29 242 l 1,6,-1
 29 363 l 1,7,-1
 374 865 l 1,8,-1
 511 865 l 1,9,-1
 511 345 l 1,10,-1
 635 345 l 1,11,-1
 635 242 l 1,12,-1
 511 242 l 1,13,-1
 511 107 l 1,14,-1
 606 107 l 1,0,-1
385 345 m 1,15,-1
 385 689 l 1,16,-1
 152 345 l 1,17,-1
 385 345 l 1,15,-1
EndSplineSet
Validated: 1
EndChar

StartChar: Euro
Encoding: 8364 8364 299
Width: 1284
GlyphClass: 2
Flags: W
LayerCount: 2
Fore
SplineSet
187 549 m 1,0,1
 186 560 186 560 185.5 577 c 128,-1,2
 185 594 185 594 185 606 c 0,3,4
 185 626 185 626 185.5 644.5 c 128,-1,5
 186 663 186 663 188 683 c 1,6,-1
 36 683 l 1,7,-1
 36 806 l 1,8,-1
 207 806 l 1,9,10
 229 900 229 900 273.5 978.5 c 128,-1,11
 318 1057 318 1057 382.5 1113.5 c 128,-1,12
 447 1170 447 1170 530.5 1201.5 c 128,-1,13
 614 1233 614 1233 714 1233 c 0,14,15
 767 1233 767 1233 813.5 1222.5 c 128,-1,16
 860 1212 860 1212 900 1193.5 c 128,-1,17
 940 1175 940 1175 973.5 1150 c 128,-1,18
 1007 1125 1007 1125 1035 1097 c 1,19,-1
 1035 1215 l 1,20,-1
 1198 1215 l 1,21,-1
 1198 832 l 1,22,-1
 1043 832 l 1,23,24
 994 962 994 962 916 1018.5 c 128,-1,25
 838 1075 838 1075 743 1075 c 0,26,27
 688 1075 688 1075 641 1055.5 c 128,-1,28
 594 1036 594 1036 556.5 1001 c 128,-1,29
 519 966 519 966 491 916.5 c 128,-1,30
 463 867 463 867 447 806 c 1,31,-1
 735 806 l 1,32,-1
 735 683 l 1,33,-1
 425 683 l 1,34,35
 422 647 422 647 422 609 c 0,36,37
 422 597 422 597 422 578.5 c 128,-1,38
 422 560 422 560 424 549 c 1,39,-1
 735 549 l 1,40,-1
 735 426 l 1,41,-1
 444 426 l 1,42,43
 459 363 459 363 485.5 310.5 c 128,-1,44
 512 258 512 258 549 220.5 c 128,-1,45
 586 183 586 183 634.5 162 c 128,-1,46
 683 141 683 141 742 141 c 0,47,48
 797 141 797 141 848.5 158 c 128,-1,49
 900 175 900 175 942.5 211.5 c 128,-1,50
 985 248 985 248 1016.5 304.5 c 128,-1,51
 1048 361 1048 361 1063 439 c 1,52,-1
 1235 358 l 1,53,54
 1205 249 1205 249 1153.5 177 c 128,-1,55
 1102 105 1102 105 1036 61.5 c 128,-1,56
 970 18 970 18 892.5 0 c 128,-1,57
 815 -18 815 -18 733 -19 c 1,58,59
 622 -18 622 -18 533.5 15.5 c 128,-1,60
 445 49 445 49 379 108 c 128,-1,61
 313 167 313 167 269.5 248.5 c 128,-1,62
 226 330 226 330 205 426 c 1,63,-1
 36 426 l 1,64,-1
 36 549 l 1,65,-1
 187 549 l 1,0,1
EndSplineSet
Validated: 1
EndChar

StartChar: trademark
Encoding: 8482 8482 300
Width: 2069
GlyphClass: 2
Flags: W
LayerCount: 2
Fore
SplineSet
813 1215 m 1,0,-1
 813 916 l 1,1,-1
 688 916 l 1,2,-1
 688 1103 l 1,3,-1
 532 1103 l 1,4,-1
 532 561 l 1,5,-1
 653 561 l 1,6,-1
 653 449 l 1,7,-1
 244 449 l 1,8,-1
 244 561 l 1,9,-1
 367 561 l 1,10,-1
 367 1103 l 1,11,-1
 209 1103 l 1,12,-1
 209 916 l 1,13,-1
 83 916 l 1,14,-1
 83 1215 l 1,15,-1
 813 1215 l 1,0,-1
980 1103 m 1,16,-1
 872 1103 l 1,17,-1
 872 1215 l 1,18,-1
 1199 1215 l 1,19,-1
 1416 695 l 1,20,-1
 1638 1215 l 1,21,-1
 1980 1215 l 1,22,-1
 1980 1103 l 1,23,-1
 1872 1103 l 1,24,-1
 1872 561 l 1,25,-1
 1980 561 l 1,26,-1
 1980 449 l 1,27,-1
 1615 449 l 1,28,-1
 1615 561 l 1,29,-1
 1716 561 l 1,30,-1
 1716 1059 l 1,31,-1
 1446 449 l 1,32,-1
 1382 449 l 1,33,-1
 1104 1058 l 1,34,-1
 1104 561 l 1,35,-1
 1205 561 l 1,36,-1
 1205 449 l 1,37,-1
 872 449 l 1,38,-1
 872 561 l 1,39,-1
 980 561 l 1,40,-1
 980 1103 l 1,16,-1
EndSplineSet
Validated: 1
EndChar

StartChar: partialdiff
Encoding: 8706 8706 301
Width: 930
GlyphClass: 2
Flags: W
LayerCount: 2
Fore
SplineSet
554 1125 m 0,0,1
 512 1125 512 1125 480.5 1107 c 128,-1,2
 449 1089 449 1089 427.5 1061 c 128,-1,3
 406 1033 406 1033 395.5 999 c 128,-1,4
 385 965 385 965 385 933 c 1,5,6
 335 933 335 933 300.5 943 c 128,-1,7
 266 953 266 953 244 970 c 128,-1,8
 222 987 222 987 212.5 1009 c 128,-1,9
 203 1031 203 1031 203 1055 c 0,10,11
 203 1094 203 1094 220.5 1127 c 128,-1,12
 238 1160 238 1160 271 1183.5 c 128,-1,13
 304 1207 304 1207 352 1220 c 128,-1,14
 400 1233 400 1233 462 1233 c 0,15,16
 559 1233 559 1233 632.5 1198 c 128,-1,17
 706 1163 706 1163 755.5 1097 c 128,-1,18
 805 1031 805 1031 829.5 936 c 128,-1,19
 854 841 854 841 854 720 c 0,20,21
 854 645 854 645 842.5 561.5 c 128,-1,22
 831 478 831 478 807 396 c 128,-1,23
 783 314 783 314 744.5 239 c 128,-1,24
 706 164 706 164 652 106.5 c 128,-1,25
 598 49 598 49 527 15 c 128,-1,26
 456 -19 456 -19 367 -19 c 0,27,28
 286 -19 286 -19 230.5 5.5 c 128,-1,29
 175 30 175 30 141 71 c 128,-1,30
 107 112 107 112 92 165.5 c 128,-1,31
 77 219 77 219 77 276 c 0,32,33
 77 321 77 321 88 374.5 c 128,-1,34
 99 428 99 428 121.5 482 c 128,-1,35
 144 536 144 536 180 586 c 128,-1,36
 216 636 216 636 266 675 c 128,-1,37
 316 714 316 714 381 737.5 c 128,-1,38
 446 761 446 761 527 761 c 256,39,40
 608 761 608 761 660 732.5 c 128,-1,41
 712 704 712 704 741 648 c 1,42,-1
 749 648 l 1,43,44
 752 665 752 665 753.5 688 c 128,-1,45
 755 711 755 711 755 725 c 0,46,47
 755 812 755 812 742 885.5 c 128,-1,48
 729 959 729 959 704 1012 c 128,-1,49
 679 1065 679 1065 641 1095 c 128,-1,50
 603 1125 603 1125 554 1125 c 0,0,1
460 92 m 0,51,52
 504 92 504 92 546.5 126.5 c 128,-1,53
 589 161 589 161 625 218.5 c 128,-1,54
 661 276 661 276 687.5 351 c 128,-1,55
 714 426 714 426 726 508 c 1,56,57
 718 538 718 538 706.5 565 c 128,-1,58
 695 592 695 592 678 613 c 128,-1,59
 661 634 661 634 638 646 c 128,-1,60
 615 658 615 658 585 658 c 0,61,62
 541 658 541 658 505.5 639 c 128,-1,63
 470 620 470 620 442 588 c 128,-1,64
 414 556 414 556 393.5 515 c 128,-1,65
 373 474 373 474 360 430.5 c 128,-1,66
 347 387 347 387 340.5 343.5 c 128,-1,67
 334 300 334 300 334 264 c 0,68,69
 334 184 334 184 367 138 c 128,-1,70
 400 92 400 92 460 92 c 0,51,52
EndSplineSet
Validated: 1
EndChar

StartChar: uni2206
Encoding: 8710 8710 302
Width: 1147
GlyphClass: 2
Flags: W
LayerCount: 2
Fore
SplineSet
1066 0 m 1,0,-1
 80 0 l 1,1,-1
 80 106 l 1,2,-1
 464 1170 l 1,3,-1
 698 1170 l 1,4,-1
 1066 118 l 1,5,-1
 1066 0 l 1,0,-1
813 130 m 1,6,-1
 602 746 l 1,7,8
 576 818 576 818 555.5 886 c 128,-1,9
 535 954 535 954 521 1014 c 1,10,11
 508 955 508 955 489 895.5 c 128,-1,12
 470 836 470 836 444 760 c 2,13,-1
 226 130 l 1,14,-1
 813 130 l 1,6,-1
EndSplineSet
Validated: 1
EndChar

StartChar: product
Encoding: 8719 8719 303
Width: 1043
GlyphClass: 2
Flags: W
LayerCount: 2
Fore
SplineSet
568 0 m 1,0,-1
 568 67 l 1,1,-1
 622 67 l 2,2,3
 635 67 635 67 647 69.5 c 128,-1,4
 659 72 659 72 667.5 80.5 c 128,-1,5
 676 89 676 89 681 105 c 128,-1,6
 686 121 686 121 686 148 c 2,7,-1
 686 1139 l 1,8,-1
 360 1139 l 1,9,-1
 360 148 l 2,10,11
 360 121 360 121 365 105 c 128,-1,12
 370 89 370 89 378.5 80.5 c 128,-1,13
 387 72 387 72 398.5 69.5 c 128,-1,14
 410 67 410 67 424 67 c 2,15,-1
 477 67 l 1,16,-1
 477 0 l 1,17,-1
 46 0 l 1,18,-1
 46 67 l 1,19,-1
 98 67 l 2,20,21
 112 67 112 67 123.5 69.5 c 128,-1,22
 135 72 135 72 143.5 80.5 c 128,-1,23
 152 89 152 89 157 105 c 128,-1,24
 162 121 162 121 162 148 c 2,25,-1
 162 1072 l 1,26,27
 161 1097 161 1097 155.5 1112 c 128,-1,28
 150 1127 150 1127 141.5 1135.5 c 128,-1,29
 133 1144 133 1144 121.5 1146.5 c 128,-1,30
 110 1149 110 1149 98 1149 c 2,31,-1
 46 1149 l 1,32,-1
 46 1215 l 1,33,-1
 1000 1215 l 1,34,-1
 1000 1149 l 1,35,-1
 947 1149 l 2,36,37
 934 1149 934 1149 922.5 1146.5 c 128,-1,38
 911 1144 911 1144 902.5 1135.5 c 128,-1,39
 894 1127 894 1127 889 1111 c 128,-1,40
 884 1095 884 1095 884 1068 c 2,41,-1
 884 142 l 1,42,43
 885 117 885 117 890.5 102 c 128,-1,44
 896 87 896 87 904 79.5 c 128,-1,45
 912 72 912 72 923 69.5 c 128,-1,46
 934 67 934 67 947 67 c 2,47,-1
 1000 67 l 1,48,-1
 1000 0 l 1,49,-1
 568 0 l 1,0,-1
EndSplineSet
Validated: 1
EndChar

StartChar: summation
Encoding: 8721 8721 304
Width: 984
GlyphClass: 2
Flags: W
LayerCount: 2
Fore
SplineSet
716 165 m 2,0,1
 746 165 746 165 765.5 174.5 c 128,-1,2
 785 184 785 184 797 200.5 c 128,-1,3
 809 217 809 217 815 240 c 128,-1,4
 821 263 821 263 824 289 c 2,5,-1
 829 327 l 1,6,-1
 903 327 l 1,7,-1
 903 0 l 1,8,-1
 61 0 l 1,9,-1
 61 99 l 1,10,-1
 455 607 l 1,11,-1
 89 1089 l 1,12,-1
 89 1215 l 1,13,-1
 841 1215 l 1,14,-1
 841 977 l 1,15,-1
 773 977 l 1,16,-1
 765 1032 l 1,17,18
 760 1083 760 1083 734 1110 c 128,-1,19
 708 1137 708 1137 648 1137 c 2,20,-1
 261 1137 l 1,21,-1
 583 712 l 1,22,-1
 583 642 l 1,23,-1
 212 165 l 1,24,-1
 716 165 l 2,0,1
EndSplineSet
Validated: 1
EndChar

StartChar: minus
Encoding: 8722 8722 305
Width: 930
GlyphClass: 2
Flags: W
LayerCount: 2
Fore
SplineSet
876 863 m 1,0,-1
 876 722 l 1,1,-1
 56 722 l 1,2,-1
 56 863 l 1,3,-1
 876 863 l 1,0,-1
EndSplineSet
Validated: 1
EndChar

StartChar: radical
Encoding: 8730 8730 306
Width: 1071
GlyphClass: 2
Flags: W
LayerCount: 2
Fore
SplineSet
657 -14 m 1,0,-1
 516 -14 l 1,1,-1
 229 788 l 1,2,-1
 63 788 l 1,3,-1
 63 911 l 1,4,-1
 365 911 l 1,5,-1
 598 244 l 1,6,-1
 1034 1673 l 1,7,-1
 1169 1673 l 1,8,-1
 657 -14 l 1,0,-1
EndSplineSet
Validated: 1
EndChar

StartChar: infinity
Encoding: 8734 8734 307
Width: 1448
GlyphClass: 2
Flags: W
LayerCount: 2
Fore
SplineSet
1376 592 m 0,0,1
 1376 512 1376 512 1353 441 c 128,-1,2
 1330 370 1330 370 1288.5 316.5 c 128,-1,3
 1247 263 1247 263 1188.5 232 c 128,-1,4
 1130 201 1130 201 1059 201 c 0,5,6
 964 201 964 201 874.5 259.5 c 128,-1,7
 785 318 785 318 711 451 c 1,8,9
 648 330 648 330 566 268.5 c 128,-1,10
 484 207 484 207 393 207 c 0,11,12
 322 207 322 207 263.5 234.5 c 128,-1,13
 205 262 205 262 162 312.5 c 128,-1,14
 119 363 119 363 95.5 435.5 c 128,-1,15
 72 508 72 508 72 598 c 0,16,17
 72 680 72 680 95 751.5 c 128,-1,18
 118 823 118 823 160 875.5 c 128,-1,19
 202 928 202 928 261 958.5 c 128,-1,20
 320 989 320 989 393 989 c 0,21,22
 439 989 439 989 486 975.5 c 128,-1,23
 533 962 533 962 577.5 932.5 c 128,-1,24
 622 903 622 903 662.5 857 c 128,-1,25
 703 811 703 811 737 745 c 1,26,27
 800 865 800 865 879 924 c 128,-1,28
 958 983 958 983 1061 983 c 0,29,30
 1131 983 1131 983 1189 955 c 128,-1,31
 1247 927 1247 927 1288.5 876 c 128,-1,32
 1330 825 1330 825 1353 752.5 c 128,-1,33
 1376 680 1376 680 1376 592 c 0,0,1
1051 846 m 0,34,35
 978 846 978 846 920 783.5 c 128,-1,36
 862 721 862 721 803 592 c 1,37,38
 856 465 856 465 915 401.5 c 128,-1,39
 974 338 974 338 1053 338 c 0,40,41
 1097 338 1097 338 1132.5 358 c 128,-1,42
 1168 378 1168 378 1193 413 c 128,-1,43
 1218 448 1218 448 1231.5 494.5 c 128,-1,44
 1245 541 1245 541 1245 594 c 256,45,46
 1245 647 1245 647 1231 693 c 128,-1,47
 1217 739 1217 739 1191.5 773 c 128,-1,48
 1166 807 1166 807 1130 826.5 c 128,-1,49
 1094 846 1094 846 1051 846 c 0,34,35
397 344 m 0,50,51
 466 344 466 344 527 405.5 c 128,-1,52
 588 467 588 467 645 598 c 1,53,54
 592 725 592 725 532 788.5 c 128,-1,55
 472 852 472 852 393 852 c 0,56,57
 350 852 350 852 315.5 832 c 128,-1,58
 281 812 281 812 256.5 777 c 128,-1,59
 232 742 232 742 218.5 695.5 c 128,-1,60
 205 649 205 649 205 596 c 0,61,62
 205 545 205 545 216.5 499.5 c 128,-1,63
 228 454 228 454 252 419.5 c 128,-1,64
 276 385 276 385 312 364.5 c 128,-1,65
 348 344 348 344 397 344 c 0,50,51
EndSplineSet
Validated: 1
EndChar

StartChar: integral
Encoding: 8747 8747 308
Width: 890
GlyphClass: 2
Flags: W
LayerCount: 2
Fore
SplineSet
219 -348 m 0,0,1
 161 -348 161 -348 119.5 -337 c 128,-1,2
 78 -326 78 -326 51.5 -307.5 c 128,-1,3
 25 -289 25 -289 12.5 -264 c 128,-1,4
 0 -239 0 -239 0 -211 c 0,5,6
 0 -189 0 -189 8 -168 c 128,-1,7
 16 -147 16 -147 36 -130.5 c 128,-1,8
 56 -114 56 -114 89.5 -104.5 c 128,-1,9
 123 -95 123 -95 173 -95 c 1,10,11
 173 -141 173 -141 179.5 -172.5 c 128,-1,12
 186 -204 186 -204 197.5 -223 c 128,-1,13
 209 -242 209 -242 224.5 -250 c 128,-1,14
 240 -258 240 -258 258 -258 c 0,15,16
 274 -258 274 -258 289 -248 c 128,-1,17
 304 -238 304 -238 315 -213 c 128,-1,18
 326 -188 326 -188 332.5 -146 c 128,-1,19
 339 -104 339 -104 339 -39 c 0,20,21
 339 20 339 20 332.5 95 c 128,-1,22
 326 170 326 170 318.5 247.5 c 128,-1,23
 311 325 311 325 304.5 398 c 128,-1,24
 298 471 298 471 298 526 c 0,25,26
 298 602 298 602 300 683.5 c 128,-1,27
 302 765 302 765 312.5 844 c 128,-1,28
 323 923 323 923 344.5 993.5 c 128,-1,29
 366 1064 366 1064 404.5 1117 c 128,-1,30
 443 1170 443 1170 501 1201.5 c 128,-1,31
 559 1233 559 1233 643 1233 c 0,32,33
 749 1233 749 1233 802.5 1198 c 128,-1,34
 856 1163 856 1163 856 1107 c 0,35,36
 856 1084 856 1084 847.5 1062 c 128,-1,37
 839 1040 839 1040 819 1023.5 c 128,-1,38
 799 1007 799 1007 766 997 c 128,-1,39
 733 987 733 987 683 987 c 1,40,41
 683 1064 683 1064 662 1103.5 c 128,-1,42
 641 1143 641 1143 605 1143 c 0,43,44
 586 1143 586 1143 570.5 1132.5 c 128,-1,45
 555 1122 555 1122 544.5 1097 c 128,-1,46
 534 1072 534 1072 528.5 1030 c 128,-1,47
 523 988 523 988 523 925 c 0,48,49
 523 886 523 886 527.5 829.5 c 128,-1,50
 532 773 532 773 538 708.5 c 128,-1,51
 544 644 544 644 548.5 576.5 c 128,-1,52
 553 509 553 509 553 449 c 0,53,54
 553 358 553 358 551.5 263.5 c 128,-1,55
 550 169 550 169 540.5 80.5 c 128,-1,56
 531 -8 531 -8 511 -86 c 128,-1,57
 491 -164 491 -164 454 -222.5 c 128,-1,58
 417 -281 417 -281 360 -314.5 c 128,-1,59
 303 -348 303 -348 219 -348 c 0,0,1
EndSplineSet
Validated: 1
EndChar

StartChar: approxequal
Encoding: 8776 8776 309
Width: 1149
GlyphClass: 2
Flags: W
LayerCount: 2
Fore
SplineSet
541 492 m 0,0,1
 504 508 504 508 476 518.5 c 128,-1,2
 448 529 448 529 425.5 535.5 c 128,-1,3
 403 542 403 542 382.5 544.5 c 128,-1,4
 362 547 362 547 340 547 c 0,5,6
 312 547 312 547 282 538 c 128,-1,7
 252 529 252 529 222.5 512.5 c 128,-1,8
 193 496 193 496 165 474 c 128,-1,9
 137 452 137 452 113 426 c 1,10,-1
 113 584 l 1,11,12
 212 692 212 692 360 692 c 0,13,14
 389 692 389 692 414 689.5 c 128,-1,15
 439 687 439 687 466.5 680.5 c 128,-1,16
 494 674 494 674 527.5 661.5 c 128,-1,17
 561 649 561 649 608 629 c 0,18,19
 645 613 645 613 673 602 c 128,-1,20
 701 591 701 591 724 584.5 c 128,-1,21
 747 578 747 578 767 575.5 c 128,-1,22
 787 573 787 573 809 573 c 0,23,24
 837 573 837 573 867 582.5 c 128,-1,25
 897 592 897 592 926.5 608.5 c 128,-1,26
 956 625 956 625 984 647 c 128,-1,27
 1012 669 1012 669 1036 694 c 1,28,-1
 1036 537 l 1,29,30
 939 428 939 428 788 428 c 0,31,32
 759 428 759 428 734.5 430.5 c 128,-1,33
 710 433 710 433 682.5 440 c 128,-1,34
 655 447 655 447 621.5 459.5 c 128,-1,35
 588 472 588 472 541 492 c 0,0,1
541 834 m 0,36,37
 504 850 504 850 476 860.5 c 128,-1,38
 448 871 448 871 425.5 877.5 c 128,-1,39
 403 884 403 884 382.5 886.5 c 128,-1,40
 362 889 362 889 340 889 c 0,41,42
 312 889 312 889 282 880 c 128,-1,43
 252 871 252 871 222.5 854.5 c 128,-1,44
 193 838 193 838 165 816 c 128,-1,45
 137 794 137 794 113 768 c 1,46,-1
 113 926 l 1,47,48
 212 1034 212 1034 360 1034 c 0,49,50
 389 1034 389 1034 414 1031.5 c 128,-1,51
 439 1029 439 1029 466.5 1022.5 c 128,-1,52
 494 1016 494 1016 527.5 1003.5 c 128,-1,53
 561 991 561 991 608 971 c 0,54,55
 645 955 645 955 673 944 c 128,-1,56
 701 933 701 933 724 926.5 c 128,-1,57
 747 920 747 920 767 917.5 c 128,-1,58
 787 915 787 915 809 915 c 0,59,60
 837 915 837 915 867 924.5 c 128,-1,61
 897 934 897 934 926.5 950.5 c 128,-1,62
 956 967 956 967 984 989 c 128,-1,63
 1012 1011 1012 1011 1036 1036 c 1,64,-1
 1036 879 l 1,65,66
 939 770 939 770 788 770 c 0,67,68
 759 770 759 770 734.5 772.5 c 128,-1,69
 710 775 710 775 682.5 782 c 128,-1,70
 655 789 655 789 621.5 801.5 c 128,-1,71
 588 814 588 814 541 834 c 0,36,37
EndSplineSet
Validated: 1
EndChar

StartChar: notequal
Encoding: 8800 8800 310
Width: 1145
GlyphClass: 2
Flags: W
LayerCount: 2
Fore
SplineSet
569 1001 m 1,0,-1
 625 1212 l 1,1,-1
 768 1212 l 1,2,-1
 713 1001 l 1,3,-1
 1016 1001 l 1,4,-1
 1016 858 l 1,5,-1
 676 858 l 1,6,-1
 610 604 l 1,7,-1
 1016 604 l 1,8,-1
 1016 461 l 1,9,-1
 573 461 l 1,10,-1
 520 250 l 1,11,-1
 375 250 l 1,12,-1
 428 461 l 1,13,-1
 129 461 l 1,14,-1
 129 604 l 1,15,-1
 465 604 l 1,16,-1
 532 858 l 1,17,-1
 129 858 l 1,18,-1
 129 1001 l 1,19,-1
 569 1001 l 1,0,-1
EndSplineSet
Validated: 1
EndChar

StartChar: lessequal
Encoding: 8804 8804 311
Width: 1145
GlyphClass: 2
Flags: W
LayerCount: 2
Fore
SplineSet
1012 0 m 1,0,-1
 133 0 l 1,1,-1
 133 145 l 1,2,-1
 1012 145 l 1,3,-1
 1012 0 l 1,0,-1
133 690 m 1,4,-1
 133 774 l 1,5,-1
 1012 1253 l 1,6,-1
 1012 1092 l 1,7,-1
 352 731 l 1,8,-1
 1012 375 l 1,9,-1
 1012 213 l 1,10,-1
 133 690 l 1,4,-1
EndSplineSet
Validated: 1
EndChar

StartChar: greaterequal
Encoding: 8805 8805 312
Width: 1145
GlyphClass: 2
Flags: W
LayerCount: 2
Fore
SplineSet
1012 0 m 1,0,-1
 133 0 l 1,1,-1
 133 145 l 1,2,-1
 1012 145 l 1,3,-1
 1012 0 l 1,0,-1
133 213 m 1,4,-1
 133 375 l 1,5,-1
 793 731 l 1,6,-1
 133 1092 l 1,7,-1
 133 1253 l 1,8,-1
 1012 774 l 1,9,-1
 1012 690 l 1,10,-1
 133 213 l 1,4,-1
EndSplineSet
Validated: 1
EndChar

StartChar: lozenge
Encoding: 9674 9674 313
Width: 1122
GlyphClass: 2
Flags: W
LayerCount: 2
Fore
SplineSet
608 0 m 1,0,-1
 514 0 l 1,1,-1
 55 729 l 1,2,-1
 514 1462 l 1,3,-1
 608 1462 l 1,4,-1
 1067 731 l 1,5,-1
 608 0 l 1,0,-1
563 1274 m 1,6,-1
 229 731 l 1,7,-1
 563 180 l 1,8,-1
 893 731 l 1,9,-1
 563 1274 l 1,6,-1
EndSplineSet
Validated: 1
EndChar

StartChar: uniFB01
Encoding: 64257 64257 314
Width: 1142
GlyphClass: 2
Flags: W
LayerCount: 2
Fore
SplineSet
387 709 m 1,0,-1
 387 141 l 1,1,-1
 545 141 l 1,2,-1
 545 0 l 1,3,-1
 63 0 l 1,4,-1
 63 141 l 1,5,-1
 189 141 l 1,6,-1
 189 709 l 1,7,-1
 59 709 l 1,8,-1
 59 849 l 1,9,-1
 189 849 l 1,10,-1
 189 951 l 2,11,12
 189 1014 189 1014 203.5 1066 c 128,-1,13
 218 1118 218 1118 250.5 1155 c 128,-1,14
 283 1192 283 1192 334 1212.5 c 128,-1,15
 385 1233 385 1233 459 1233 c 0,16,17
 503 1233 503 1233 545 1223.5 c 128,-1,18
 587 1214 587 1214 619.5 1188.5 c 128,-1,19
 652 1163 652 1163 671.5 1119.5 c 128,-1,20
 691 1076 691 1076 691 1009 c 1,21,-1
 536 1009 l 1,22,23
 536 1057 536 1057 514 1076.5 c 128,-1,24
 492 1096 492 1096 466 1096 c 0,25,26
 422 1096 422 1096 404.5 1062 c 128,-1,27
 387 1028 387 1028 387 948 c 2,28,-1
 387 849 l 1,29,-1
 990 849 l 1,30,-1
 990 141 l 1,31,-1
 1127 141 l 1,32,-1
 1127 0 l 1,33,-1
 657 0 l 1,34,-1
 657 141 l 1,35,-1
 794 141 l 1,36,-1
 794 709 l 1,37,-1
 387 709 l 1,0,-1
906 1227 m 256,38,39
 930 1227 930 1227 951 1218.5 c 128,-1,40
 972 1210 972 1210 987.5 1195.5 c 128,-1,41
 1003 1181 1003 1181 1012 1161 c 128,-1,42
 1021 1141 1021 1141 1021 1119 c 0,43,44
 1021 1096 1021 1096 1012 1076.5 c 128,-1,45
 1003 1057 1003 1057 987.5 1042.5 c 128,-1,46
 972 1028 972 1028 951 1019.5 c 128,-1,47
 930 1011 930 1011 906 1011 c 256,48,49
 882 1011 882 1011 861.5 1019.5 c 128,-1,50
 841 1028 841 1028 826 1042.5 c 128,-1,51
 811 1057 811 1057 802 1076.5 c 128,-1,52
 793 1096 793 1096 793 1119 c 0,53,54
 793 1141 793 1141 802 1161 c 128,-1,55
 811 1181 811 1181 826 1195.5 c 128,-1,56
 841 1210 841 1210 861.5 1218.5 c 128,-1,57
 882 1227 882 1227 906 1227 c 256,38,39
EndSplineSet
Validated: 1
EndChar

StartChar: uniFB02
Encoding: 64258 64258 315
Width: 1137
GlyphClass: 2
Flags: W
LayerCount: 2
Fore
SplineSet
627 0 m 1,0,-1
 627 141 l 1,1,-1
 773 141 l 1,2,-1
 773 1075 l 1,3,-1
 466 1075 l 2,4,5
 444 1075 444 1075 429 1070 c 128,-1,6
 414 1065 414 1065 404.5 1051 c 128,-1,7
 395 1037 395 1037 391 1012.5 c 128,-1,8
 387 988 387 988 387 948 c 2,9,-1
 387 849 l 1,10,-1
 542 849 l 1,11,-1
 542 709 l 1,12,-1
 387 709 l 1,13,-1
 387 141 l 1,14,-1
 545 141 l 1,15,-1
 545 0 l 1,16,-1
 63 0 l 1,17,-1
 63 141 l 1,18,-1
 189 141 l 1,19,-1
 189 709 l 1,20,-1
 59 709 l 1,21,-1
 59 849 l 1,22,-1
 189 849 l 1,23,-1
 189 951 l 2,24,25
 189 1014 189 1014 203.5 1063 c 128,-1,26
 218 1112 218 1112 250.5 1146 c 128,-1,27
 283 1180 283 1180 334 1197.5 c 128,-1,28
 385 1215 385 1215 459 1215 c 2,29,-1
 969 1215 l 1,30,-1
 969 141 l 1,31,-1
 1104 141 l 1,32,-1
 1104 0 l 1,33,-1
 627 0 l 1,0,-1
EndSplineSet
Validated: 1
EndChar

StartChar: glyph316
Encoding: 65539 -1 316
Width: 593
GlyphClass: 2
Flags: W
LayerCount: 2
Fore
SplineSet
58 896 m 1,0,-1
 156 1171 l 1,1,-1
 431 1171 l 1,2,-1
 535 896 l 1,3,-1
 387 896 l 1,4,-1
 294 1126 l 1,5,-1
 201 896 l 1,6,-1
 58 896 l 1,0,-1
EndSplineSet
Validated: 1
EndChar

StartChar: glyph317
Encoding: 65540 -1 317
Width: 458
GlyphClass: 2
Flags: W
LayerCount: 2
Fore
SplineSet
104 -144 m 1,0,-1
 350 -144 l 1,1,2
 351 -194 351 -194 353 -238 c 0,3,4
 355 -276 355 -276 356 -312 c 128,-1,5
 357 -348 357 -348 357 -365 c 0,6,7
 357 -437 357 -437 344.5 -491.5 c 128,-1,8
 332 -546 332 -546 302 -582.5 c 128,-1,9
 272 -619 272 -619 222.5 -637.5 c 128,-1,10
 173 -656 173 -656 100 -657 c 1,11,-1
 100 -555 l 1,12,13
 136 -548 136 -548 161 -536 c 128,-1,14
 186 -524 186 -524 202 -504 c 128,-1,15
 218 -484 218 -484 225 -455 c 128,-1,16
 232 -426 232 -426 232 -385 c 1,17,-1
 104 -385 l 1,18,-1
 104 -144 l 1,0,-1
EndSplineSet
Validated: 1
EndChar

StartChar: glyph320
Encoding: 65543 -1 320
Width: 562
GlyphClass: 2
Flags: W
LayerCount: 2
Fore
SplineSet
292 914 m 1,0,-1
 105 1171 l 1,1,-1
 312 1171 l 1,2,-1
 411 914 l 1,3,-1
 292 914 l 1,0,-1
EndSplineSet
Validated: 1
EndChar

StartChar: glyph321
Encoding: 65544 -1 321
Width: 562
GlyphClass: 2
Flags: W
LayerCount: 2
Fore
SplineSet
165 914 m 1,0,-1
 264 1171 l 1,1,-1
 471 1171 l 1,2,-1
 284 914 l 1,3,-1
 165 914 l 1,0,-1
EndSplineSet
Validated: 1
EndChar

StartChar: glyph323
Encoding: 65546 -1 323
Width: 593
GlyphClass: 2
Flags: W
LayerCount: 2
Fore
SplineSet
145 1171 m 1,0,-1
 299 1017 l 1,1,-1
 451 1171 l 1,2,-1
 555 1171 l 1,3,-1
 396 912 l 1,4,-1
 200 912 l 1,5,-1
 38 1171 l 1,6,-1
 145 1171 l 1,0,-1
EndSplineSet
Validated: 1
EndChar

StartChar: glyph324
Encoding: 65547 -1 324
Width: 565
GlyphClass: 2
Flags: W
LayerCount: 2
Fore
SplineSet
281 1244 m 256,0,1
 325 1244 325 1244 359 1230.5 c 128,-1,2
 393 1217 393 1217 416.5 1194 c 128,-1,3
 440 1171 440 1171 452 1141 c 128,-1,4
 464 1111 464 1111 464 1078 c 0,5,6
 464 1044 464 1044 451.5 1013 c 128,-1,7
 439 982 439 982 415.5 958 c 128,-1,8
 392 934 392 934 358 920 c 128,-1,9
 324 906 324 906 281 906 c 256,10,11
 238 906 238 906 204.5 920 c 128,-1,12
 171 934 171 934 147.5 958 c 128,-1,13
 124 982 124 982 111.5 1013 c 128,-1,14
 99 1044 99 1044 99 1078 c 0,15,16
 99 1111 99 1111 111 1141 c 128,-1,17
 123 1171 123 1171 146.5 1194 c 128,-1,18
 170 1217 170 1217 203.5 1230.5 c 128,-1,19
 237 1244 237 1244 281 1244 c 256,0,1
281 1175 m 256,20,21
 231 1175 231 1175 204.5 1145 c 128,-1,22
 178 1115 178 1115 178 1076 c 256,23,24
 178 1037 178 1037 204.5 1007 c 128,-1,25
 231 977 231 977 281 977 c 256,26,27
 331 977 331 977 358 1007 c 128,-1,28
 385 1037 385 1037 385 1076 c 256,29,30
 385 1115 385 1115 358 1145 c 128,-1,31
 331 1175 331 1175 281 1175 c 256,20,21
EndSplineSet
Validated: 1
EndChar

StartChar: glyph325
Encoding: 65548 -1 325
Width: 587
GlyphClass: 2
Flags: W
LayerCount: 2
Fore
SplineSet
-11 980 m 1,0,1
 -6 1035 -6 1035 10 1074.5 c 128,-1,2
 26 1114 26 1114 49.5 1139.5 c 128,-1,3
 73 1165 73 1165 102.5 1177 c 128,-1,4
 132 1189 132 1189 165 1189 c 0,5,6
 203 1189 203 1189 240.5 1178 c 128,-1,7
 278 1167 278 1167 313.5 1154 c 128,-1,8
 349 1141 349 1141 381.5 1130 c 128,-1,9
 414 1119 414 1119 443 1119 c 0,10,11
 505 1119 505 1119 520 1184 c 1,12,-1
 598 1184 l 1,13,14
 590 1084 590 1084 544 1027.5 c 128,-1,15
 498 971 498 971 419 971 c 0,16,17
 377 971 377 971 338.5 982 c 128,-1,18
 300 993 300 993 265 1006.5 c 128,-1,19
 230 1020 230 1020 198 1031 c 128,-1,20
 166 1042 166 1042 137 1042 c 0,21,22
 105 1042 105 1042 90 1026 c 128,-1,23
 75 1010 75 1010 69 980 c 1,24,-1
 -11 980 l 1,0,1
EndSplineSet
Validated: 1
EndChar

StartChar: glyph326
Encoding: 65549 -1 326
Width: 535
GlyphClass: 2
Flags: W
LayerCount: 2
Fore
SplineSet
357 1215 m 1,0,-1
 357 1030 l 1,1,-1
 170 1030 l 1,2,-1
 170 1215 l 1,3,-1
 357 1215 l 1,0,-1
EndSplineSet
Validated: 1
EndChar

